<?xml version="1.0" encoding="UTF-8"?>
<svg xmlns="http://www.w3.org/2000/svg" viewBox="0 0 2400 2400">
  <defs>
    <style>
      .uuid-bda5fa9e-ac55-4a05-a84e-1f34701ecfc1 {
        fill: #6e3e32;
      }

      .uuid-bda5fa9e-ac55-4a05-a84e-1f34701ecfc1, .uuid-901f3af1-de5c-48a1-adc5-d7768d53b3e2, .uuid-0459f191-0fb3-4bd5-8e2e-d4020d077a9e, .uuid-c24181e5-413c-459f-8388-3c3093f23530, .uuid-06198b60-634a-4354-be1d-27efc306b78f, .uuid-8e2d3d75-32d8-4b53-a20c-914f834d5ca0 {
        stroke-width: 0px;
      }

      .uuid-901f3af1-de5c-48a1-adc5-d7768d53b3e2 {
        fill: #b5aa7a;
        mix-blend-mode: screen;
      }

      .uuid-901f3af1-de5c-48a1-adc5-d7768d53b3e2, .uuid-0459f191-0fb3-4bd5-8e2e-d4020d077a9e, .uuid-8e2d3d75-32d8-4b53-a20c-914f834d5ca0 {
        opacity: .15;
      }

      .uuid-54f0d209-da78-4483-98fc-1cb0a903d7c4 {
        isolation: isolate;
      }

      .uuid-0459f191-0fb3-4bd5-8e2e-d4020d077a9e, .uuid-06198b60-634a-4354-be1d-27efc306b78f {
        fill: #2b0000;
      }

      .uuid-c24181e5-413c-459f-8388-3c3093f23530 {
        fill: #915e4c;
        opacity: .6;
      }

      .uuid-06198b60-634a-4354-be1d-27efc306b78f {
        opacity: .08;
      }

      .uuid-8e2d3d75-32d8-4b53-a20c-914f834d5ca0 {
        fill: #3a0c04;
      }
    </style>
  </defs>
  <g class="uuid-54f0d209-da78-4483-98fc-1cb0a903d7c4">
    <g id="uuid-b63dc877-66bc-45c6-af0b-20a16ad0e123" data-name="Layer 1">
      <g>
        <g>
          <rect class="uuid-bda5fa9e-ac55-4a05-a84e-1f34701ecfc1" x="0" y="0" width="2400" height="2400"/>
          <path class="uuid-0459f191-0fb3-4bd5-8e2e-d4020d077a9e" d="m1241.83,1860.48c-81.16,256.38-106.13,255.53-236.84,88.49-83.05-106.14-193.33-9.29-328.76,129.39C247.6,2517.27,409.9,1915.72,0,1915.72v-986.94c326.68,0,405.74-217.58,631.53-22.93,225.8,194.65,48.86,213.17-88.47,393.78-137.33,180.6,224.72,160.64,420.31,168.65,195.59,8.01,359.61,135.82,278.45,392.2Zm753.59-660.48c-220.56,81.32-312.11,270.14-133.17,331.79,178.94,61.64,201.6,383.94,537.75,383.94v-986.94c-238.16,0-184.03,189.9-404.59,271.22Zm-1030.81,1015.41c-56.18-78.02-199.74,106.11-199.74,184.59h380.75c0-61.96-124.84-106.57-181.01-184.59Zm1026.79-40.57c-115.48-118.6-93.66-259.11-187.26-371.39-93.6-112.28-196.62-177.89-218.47-62.42-21.85,115.47-53.06,140.44-90.51,284.01-37.45,143.56,90.51,184.14,90.51,374.97h814.32v-203.46c-144.73,0-293.13,96.89-408.6-21.7ZM0,2196.54v203.46h291.3c0-75.66-162.33-203.46-291.3-203.46ZM1585.68,0c0,56.81,72.66,122.35,149.65,151.48,76.99,29.13,91.55,108.2,235.12,27.05,143.57-81.15,222.64,62.42,212.23,181.02-10.4,118.6,52.02,258.01,217.32,258.01V0h-814.32ZM160.21,480.24c-22.89-58.26-101.96-166.46-20.81-241.36C220.55,163.97,291.3,127.36,291.3,0H0v617.57c120.65,0,183.1-79.07,160.21-137.33Zm1437.95,742.71c127.96-209.1,87.39-214.49,249.68-275.77,162.29-61.29,177.03-234.47,96.32-350.74-12.69-25.4-37.43-54.71-77.59-88.18-102.99-85.83-260.22-126.17-330.82-71.78-293.37,225.99-201.3-131.08-302.73-165.41-202.86-68.66-87.39-205.03-87.39-271.06h-380.75c0,158.68-43.69,214.88-205.98,274.18-162.29,59.3-137.32,149.81,0,199.74,137.32,49.94,318.34,162.29,377.63,318.34,49.55,130.38,151.39,238.93,307.34,165.54,0,0,.02.03.02.03,148.29-56.33,188.86,124.68,185.74,218.31-3.12,93.63,40.57,255.92,168.53,46.81Z"/>
          <path class="uuid-c24181e5-413c-459f-8388-3c3093f23530" d="m2168.62,65.32c-128.13,31.39-192.49,70.39-88.44,121.89,104.05,51.5,208.09,19.77,208.09-60.95s-42.18-79.92-119.65-60.95Z"/>
          <path class="uuid-901f3af1-de5c-48a1-adc5-d7768d53b3e2" d="m2168.62,65.32c-23.28,5.7-44.44,11.66-62.88,17.89.64,4.37,11.83,7.68,39.05,8.7,69.36,2.61,92.48,18.67,105.48,44.37,7.82,15.46,17.64,28.67,28.37,28.8,6.21-11.2,9.64-24.2,9.64-38.82,0-80.71-42.18-79.92-119.65-60.94Z"/>
          <path class="uuid-8e2d3d75-32d8-4b53-a20c-914f834d5ca0" d="m2254.98,191.19h0c-51.94,7.93-64.81-19.53-104.12-19.53s-78.61-10.44-122.03-38.17h0c-3.49,16.27,11.68,34.09,51.35,53.72,67.91,33.61,135.82,31.76,174.8,3.98Z"/>
          <path class="uuid-c24181e5-413c-459f-8388-3c3093f23530" d="m292.16,1800.8c-49.41-14.93-46.81-26.91-124.84,3.87-77.81,30.7-31.21,102.25,52.02,99.14,83.22-3.11,122.24-88.08,72.82-103.01Z"/>
          <path class="uuid-901f3af1-de5c-48a1-adc5-d7768d53b3e2" d="m292.16,1800.8c-49.01-14.8-46.9-26.69-122.97,3.15,6.39,2.26,16.71,3.56,31.57,3.56,54.91,0,65.31,8.12,72.83,34.8,4.36,15.48,16.32,19.62,32.14,14.03,13.71-23.38,11.01-48.12-13.56-55.54Z"/>
          <path class="uuid-8e2d3d75-32d8-4b53-a20c-914f834d5ca0" d="m171.85,1862.6c-25.71-7.71-37.57-19.14-38.71-33.05h0c-21.43,33.62,21.22,76.68,86.19,74.26,25.58-.96,46.97-9.65,62.92-21.66-52.74,8.98-59.09-4.16-110.4-19.54Z"/>
          <path class="uuid-c24181e5-413c-459f-8388-3c3093f23530" d="m258.75,1145.61c-113.64,11.85-231.47,60.03-93.63,117.44,137.84,57.42,288.69,20.88,309.49-23.49,20.81-44.37-15.6-114.83-215.87-93.95Z"/>
          <path class="uuid-901f3af1-de5c-48a1-adc5-d7768d53b3e2" d="m258.75,1145.62c-34.69,3.62-69.75,10.62-97.83,20.24-1.84,10.24,28.96,17.04,63.33,16.17,46.24-1.16,123.69,10.15,156.05,39.15,27.52,24.65,25.82,46.99,65.17,44.58,14.58-7.85,24.76-16.84,29.14-26.18,20.81-44.37-15.6-114.83-215.87-93.95Z"/>
          <path class="uuid-8e2d3d75-32d8-4b53-a20c-914f834d5ca0" d="m309.21,1259.74c-43.93-17.4-93.05-11.6-127.73-17.4-34.67-5.8-73.97-31.89-72.4-46.85-15.54,19.27-4.03,42.54,56.04,67.56,85.05,35.43,175.04,35.08,236.39,19.2-36.01.47-48.37-5.11-92.3-22.51Z"/>
          <path class="uuid-c24181e5-413c-459f-8388-3c3093f23530" d="m605.7,2093.96c-115.97-63.76-246.22,23.46-339.85,41.07-93.63,17.61-34.68,87.21,114.44,115.05,149.12,27.84,416.15-51.26,225.41-156.13Z"/>
          <path class="uuid-901f3af1-de5c-48a1-adc5-d7768d53b3e2" d="m605.7,2093.96c-76.62-42.13-159.47-18.35-233.88,7.72,0,0,0,0,0,0,88.24,2.24,119.45-.17,152.4,22.79,32.94,22.95,125.88,104.62,147.03,48.13,4.57-23.18-13.34-49.94-65.54-78.64Z"/>
          <path class="uuid-8e2d3d75-32d8-4b53-a20c-914f834d5ca0" d="m606.34,2227.94c-72.76,13.23-65.83-7.28-119-16.56-53.17-9.28-75.72,7.15-164.72-18.36-88.15-25.27-95.07-41.54-95.19-41.86-27.92,27.74,33.65,76.67,152.86,98.93,69.13,12.91,163.61,2.83,226.06-22.15h0Z"/>
          <path class="uuid-c24181e5-413c-459f-8388-3c3093f23530" d="m1477.31,735.64c-80.62-21.11-75.51-32.71-143.04,0-78.46,38.01-23.41,88.5,75.42,91.11,98.83,2.61,148.24-70,67.62-91.11Z"/>
          <path class="uuid-901f3af1-de5c-48a1-adc5-d7768d53b3e2" d="m1477.31,735.64c-56.4-14.77-70.85-24.88-97.55-18.43,9.48,16.38,55.01,31.82,81.18,53.81,19.68,16.54,27.59,27.13,45.88,23.94,19.64-21.48,14.05-47.92-29.51-59.32Z"/>
          <path class="uuid-8e2d3d75-32d8-4b53-a20c-914f834d5ca0" d="m1355.88,776.84c-58.81-8.51-42.69-28.33-42.65-28.39-44.89,35.65,8.42,75.97,96.46,78.29,30.07.79,55.56-5.38,74.21-14.95-75.01,11.26-52.66-24.05-128.02-34.96Z"/>
          <path class="uuid-c24181e5-413c-459f-8388-3c3093f23530" d="m1971.71,2253.58c-124.84-18.27-151.81-132.45-49.41-164.42,117.03-36.54,312.09-23.49,348.5,52.2s-174.25,130.49-299.09,112.22Z"/>
          <path class="uuid-901f3af1-de5c-48a1-adc5-d7768d53b3e2" d="m2260.62,2163.35c6.01-3.17,10.41-7.29,13.6-11.94-.67-3.31-1.79-6.66-3.42-10.05-31.78-66.06-184.44-84.4-300.57-63.69,22.61,7.5,102.03,11.58,174.09,47.91,66.32,33.44,19.65,88.74,116.3,37.77Z"/>
          <path class="uuid-8e2d3d75-32d8-4b53-a20c-914f834d5ca0" d="m1965.28,2201.22c-99.21-24.8-92.7-78.94-92.5-80.4-35.97,46.45,1.92,118.56,98.93,132.75,80.68,11.81,197.18-6.91,259.69-42.06-56.37,27.41-207.33,4.4-266.12-10.29Z"/>
          <path class="uuid-c24181e5-413c-459f-8388-3c3093f23530" d="m2121.92,1241.54c-71.27,32.07-13,80.55,57.22,96.21,70.22,15.66,145.64-36.54,127.44-78.29-18.21-41.76-127.44-43.66-184.66-17.92Z"/>
          <path class="uuid-901f3af1-de5c-48a1-adc5-d7768d53b3e2" d="m2136,1236.09c21.32,5.94,82.72,6.71,122.14,35.96,26.8,19.88,30.84,31.13,50.05,9.32,1.86-7.35,1.48-14.78-1.62-21.91-16.8-38.54-111.15-43.13-170.57-23.37Z"/>
          <path class="uuid-8e2d3d75-32d8-4b53-a20c-914f834d5ca0" d="m2282.6,1315.55c-13.12,4.3-34.28,9.04-67.8,4.63-33.52-4.41-28.32-15.31-78.61-25.87-50.28-10.56-45.79-24.86-45.79-24.86h0c-8.17,27.46,37.04,56.77,88.73,68.3,38.28,8.54,78.1-3.09,103.46-22.2h0Z"/>
          <path class="uuid-c24181e5-413c-459f-8388-3c3093f23530" d="m1158.72,2031.7c-161.52-13.28-119.65,101.92-46.82,121.61,72.83,19.69,296.53-101.07,46.82-121.61Z"/>
          <path class="uuid-901f3af1-de5c-48a1-adc5-d7768d53b3e2" d="m1091.36,2057.53c31.21,13.92,83.23,9.57,124.84,23.49,18.94,6.33,39.11,11.03,53.78,10.18,14.08-25.62-8.5-51.05-111.27-59.5-40.37-3.32-68.04,1.39-85.69,10.63,1.82,5.24,7.88,10.54,18.33,15.2Z"/>
          <path class="uuid-8e2d3d75-32d8-4b53-a20c-914f834d5ca0" d="m1111.15,2126.09c-30-10.72-60.03-30.11-63.1-46.66-.17-.91-.3-1.84-.39-2.79-3.1,30.39,26.37,66.44,64.24,76.68,30.03,8.12,85.7-7.64,123.27-30.41-42.12,4.8-97.61,12.63-124.02,3.18Z"/>
          <path class="uuid-c24181e5-413c-459f-8388-3c3093f23530" d="m986.32,153.29c-117.36,30.22,57.23,147.48,140.46,141.43s202.89-229.84-140.46-141.43Z"/>
          <path class="uuid-901f3af1-de5c-48a1-adc5-d7768d53b3e2" d="m1140.85,133.49c-30.25,2.26-47.44,9.26-28.03,23.17,24.27,17.4,58.09,29.58,69.36,46.11,7.12,10.45,23.94,8.37,33.82-1.81,4.37-32.5-13.9-62.18-75.15-67.47Z"/>
          <path class="uuid-8e2d3d75-32d8-4b53-a20c-914f834d5ca0" d="m1093.45,269.18c-13.29-5.22-21.38-24.36-65.31-41.76-27.73-10.98-64.1-13.92-80.36-33.88,10.23,45.09,118.63,105.57,179,101.18,18.71-1.36,39.26-13.72,55.97-31.07-35.19,24.77-76.05,10.72-89.3,5.52Z"/>
          <path class="uuid-c24181e5-413c-459f-8388-3c3093f23530" d="m1501.09,2197.42c-100.28-48.65-149.69-66.93-188.07-16.57-40.69,53.39-97.69,143.92,57.11,145.56,154.8,1.64,231.24-80.34,130.95-128.99Z"/>
          <path class="uuid-901f3af1-de5c-48a1-adc5-d7768d53b3e2" d="m1542.46,2232.71c-6.1-12.54-19.55-24.7-41.37-35.29-56.08-27.2-96.24-44.9-127.46-46.42-10.1,3.53-3.81,9.49,10.83,26.62,20.81,24.36,67.62,93.96,121.38,74.82,19.25-6.86,30.91-13.15,36.63-19.73Z"/>
          <path class="uuid-8e2d3d75-32d8-4b53-a20c-914f834d5ca0" d="m1360.6,2285.07c-40.34-5.47-90.65-6.86-89.3-31.55-11.01,38.25,5,71.9,98.83,72.9,56.41.6,102.39-9.91,133.23-25.86h0c-100.7,17.14-77.32-6.62-142.76-15.49Z"/>
          <path class="uuid-c24181e5-413c-459f-8388-3c3093f23530" d="m2151.9,1019.12c-100.14-75.91-190.73-47.89-246.22,15.78-55.49,63.67,83.23,126.31,173.39,101.95,90.16-24.36,122.13-80.36,72.83-117.74Z"/>
          <path class="uuid-901f3af1-de5c-48a1-adc5-d7768d53b3e2" d="m2151.9,1019.12c-42.99-32.59-84.21-46.01-121.66-45.69,2.08,7.49,10.19,18.51,26.29,34.67,39.03,39.17,57.19,104.93,93.96,94.45,31.12-26.36,33.76-58.91,1.4-83.43Z"/>
          <path class="uuid-8e2d3d75-32d8-4b53-a20c-914f834d5ca0" d="m1986.31,1101.19c-45.04-14.78-91.93-28.73-93.22-39.24-4.13,52.79,108.73,95.77,185.98,74.9,17.06-4.61,32.04-10.35,44.78-16.89-80.05,18.48-82.21-.63-137.54-18.78Z"/>
          <path class="uuid-c24181e5-413c-459f-8388-3c3093f23530" d="m392.07,201.85c-97.1-62.98-138.72-41.42-215.01,0-66.81,36.27-31.21,115.17,107.5,120.05,138.72,4.88,204.6-57.07,107.5-120.05Z"/>
          <path class="uuid-901f3af1-de5c-48a1-adc5-d7768d53b3e2" d="m437.83,256.04c-2.42-16.82-16.88-35.45-45.75-54.18-46.88-30.41-80.83-41.1-111.99-39.38-13.93,4.81-22.31,12.3-15.16,23.38,12.72,19.72,95.94,45.24,118.49,65.54,16.88,15.2,45.93,19.66,54.42,4.65Z"/>
          <path class="uuid-8e2d3d75-32d8-4b53-a20c-914f834d5ca0" d="m145.35,255.39c6.99,32.09,53.33,63.49,139.22,66.51,28.67,1.01,54.22-.84,75.87-4.96-65.33-7.68-51.31-32.95-117.35-33.84-86.11-1.16-97.74-27.7-97.74-27.71Z"/>
          <path class="uuid-c24181e5-413c-459f-8388-3c3093f23530" d="m2016.59,432.3c-153.04-56.79-347.82-42.83-486.95,40.94-96.19,57.91,13.91,174.52,222.61,188.48,208.7,13.96,417.39-172.63,264.35-229.42Z"/>
          <path class="uuid-901f3af1-de5c-48a1-adc5-d7768d53b3e2" d="m2016.59,432.3c-102.46-38.02-223.6-44.28-334.25-19.16,17.7,11.95,75.69,11.43,126.22,23.34,166.93,39.35,205.58,69.25,190.39,107.16-4.05,10.09-8.73,32.47,10.24,38.96,68.06-53.8,88.43-120.24,7.41-150.3Z"/>
          <path class="uuid-8e2d3d75-32d8-4b53-a20c-914f834d5ca0" d="m1723.79,577.09c-130.96-15.12-219.06-36.05-223.44-75.13-32.5,61.15,73.77,147.84,251.9,159.76,65.57,4.39,131.13-11.03,185.48-35.99-99.94,22-82.94-33.52-213.94-48.64Z"/>
          <path class="uuid-c24181e5-413c-459f-8388-3c3093f23530" d="m889.74,1469.9c-90.16-24.17-104.04-49.72-221.94-10.85-107.94,35.59-55.49,112.89,65.89,147.22,121.38,34.33,246.22-112.21,156.05-136.38Z"/>
          <path class="uuid-901f3af1-de5c-48a1-adc5-d7768d53b3e2" d="m889.74,1469.9c-57.14-15.32-83.65-31.18-125.4-30.86-12.07,5.11-16.83,11.9-9.85,19.45,15.03,16.24,80.63,31.9,73.69,55.1-6.94,23.2,1.16,26.84,46.53,11.65,16.49-5.52,33.06-13.4,45.81-22.08-.32-15.21-9.64-27.6-30.78-33.26Z"/>
          <path class="uuid-8e2d3d75-32d8-4b53-a20c-914f834d5ca0" d="m774.44,1579.71c-31.79-3.48-35.55-17.4-70.22-23.49-18-3.16-64.16-3.48-94.97-42.59,1,33.99,49.61,71.49,124.45,92.65,46.17,13.06,92.83-.07,127.98-22.66-58.66,23.03-55.45-.43-87.24-3.91Z"/>
          <path class="uuid-c24181e5-413c-459f-8388-3c3093f23530" d="m1580.47,1628.4c-160.56,32.13-20.81,203.05,145.65,200.9,166.46-2.15,395.34-309.16-145.65-200.9Z"/>
          <path class="uuid-901f3af1-de5c-48a1-adc5-d7768d53b3e2" d="m1659.42,1614.69c9.7,13.12,134.01,21.87,168.77,46.18,65.37,45.74,27.06,92.55,63.04,81.31,60.96-75.42,40.04-166.67-231.8-127.49Z"/>
          <path class="uuid-8e2d3d75-32d8-4b53-a20c-914f834d5ca0" d="m1685.8,1771.96c-58.09-22.48-65.44-18.76-100.12-30.93-34.67-12.17-70.86-26.51-75.37-60.13-10.37,61.5,95.77,149.96,215.82,148.41,36.82-.48,76.68-15.87,110.6-38.38-65.52,8.39-92.84,3.52-150.93-18.96Z"/>
          <path class="uuid-c24181e5-413c-459f-8388-3c3093f23530" d="m905.47,610.39c-114.45-103.48-384.97,46.28-244.51,114.14,140.46,67.86,358.96-10.67,244.51-114.14Z"/>
          <path class="uuid-901f3af1-de5c-48a1-adc5-d7768d53b3e2" d="m905.47,610.39c-48.65-43.98-125.5-42.21-186.99-20.42,7.94,13.04,29.42,25.64,61,32.93,69.36,16.02,71.16,30.75,109.82,51.98,27.41,15.05,43.47,13.4,48.16-6.19.53-17.77-9.02-37.53-31.99-58.3Z"/>
          <path class="uuid-8e2d3d75-32d8-4b53-a20c-914f834d5ca0" d="m882.76,730.01h0c-25.61,4.38-44.19-11.46-73.67-8.85-29.48,2.61-33.37-24.95-92.32-25.98-58.95-1.04-88.43-16.53-92.58-32.72h0c-8.06,22.31,1.09,44.84,36.77,62.07,71.85,34.72,164.12,31.12,221.8,5.48Z"/>
          <path class="uuid-c24181e5-413c-459f-8388-3c3093f23530" d="m1298.41,918.09c-145.9-71.68-221.65-42.68-274.96-29.14-164.98,41.89-157.12,127.33,0,160.64,157.12,33.32,420.85-59.82,274.96-131.5Z"/>
          <path class="uuid-901f3af1-de5c-48a1-adc5-d7768d53b3e2" d="m1339.67,955.26c-3.86-12.53-16.8-25.15-41.26-37.17-115.77-56.88-187.37-50.36-238.64-38.48-5.36,4.06-4.59,7.5,4.94,9.2,97.68,17.4,100.03,14.44,179.17,69.02,56.92,39.25,90.55,23.71,95.79-2.56Z"/>
          <path class="uuid-8e2d3d75-32d8-4b53-a20c-914f834d5ca0" d="m1089.12,1014.44c-71.67-3.48-162.4-15.32-185.71-50.37-6.95,33.67,34.33,67.35,120.04,85.52,67.99,14.42,155.94,5.15,222.03-15.8-.02,0-.03,0-.05,0-55.75,7.17-84.65-15.88-156.32-19.36Z"/>
        </g>
        <path class="uuid-06198b60-634a-4354-be1d-27efc306b78f" d="m0,452.77V0h561.3c0,192.9-174.77,150.4-240.99,255.39C254.09,360.39,160.21,452.77,0,452.77Zm2010.8,1332.71c7.63,90.21,132.81,237.49,0,286.68-132.81,49.19-151.39,125.58-151.39,327.85h540.59s0-837.46,0-837.46c-355.31,0-396.83,132.72-389.2,222.93ZM1859.41,0s0,193.54-248.32,226.38c-230.18,30.45-339.47,39.22-411.09,226.38-71.64,187.16-180.57,109.3-338.33,77.49-157.78-31.81-306.18-65.42-255.35,257.37,10.18,64.54,36.79,242.76-234.52,274.34-217.5,25.3-170.52,331.71-267.33,452.27-23.97,29.86-56.71,48.31-104.48,48.31v837.45h561.31c0-292.78-130.27-202.79-147.75-479.34-17.48-276.55,227.32-18.29,360.88-340.95,133.56-322.66,71.33-524.88,398.96-320.77,327.65,204.12,237.53-43.26,344.24-332.38,11.09-30.07,22.68-57.28,34.71-81.84,91.74-187.29,209.72-218.1,340.49-157.45,155.22,65,241.82-59.38,362.9-167.81,42.22-38.53,88.93-66.71,144.28-66.71V0h-540.59Z"/>
      </g>
    </g>
  </g>
</svg>