<svg id="Capa_1" enable-background="new 0 0 512 512" viewBox="0 0 512 512" xmlns="http://www.w3.org/2000/svg"><g><g><g><path d="m239.732 292.557 11.065-42.776c17.072-65.995 68.607-117.53 134.602-134.602l10.342-2.675 21.845-1.457c2.214-.573 4.228 1.442 3.656 3.656l-9.79 37.844c-17.072 65.995-65.071 109.751-131.066 126.823z" fill="#97da7b"/><path d="m417.11 146.889 9.79-37.844c.573-2.214-1.442-4.228-3.656-3.656l-27.503 7.114-2.675 10.342c-17.072 65.995-68.607 117.53-134.602 134.602l-10.341 2.675-8.39 32.434 42.776-11.066c65.993-17.071 117.529-68.606 134.601-134.601z" fill="#80d261"/><path d="m270.351 292.557-42.776-11.065c-65.995-17.072-117.53-68.607-134.602-134.602l-2.675-10.342-1.457-21.845c-.573-2.213 1.442-4.228 3.656-3.656l37.844 9.79c65.995 17.072 109.751 65.071 126.823 131.066z" fill="#97da7b"/><path d="m124.684 115.179-37.844-9.79c-2.214-.573-4.228 1.442-3.656 3.656l7.114 27.503 10.342 2.675c65.995 17.072 117.53 68.607 134.602 134.602l2.675 10.341 32.434 8.39-11.065-42.776c-17.072-65.994-68.608-117.529-134.602-134.601z" fill="#80d261"/><path d="m215.513 372.46c-4.26 7.64-12.056-.39-18.546 6.1-20.15 20.15-44.544 44.8-70.924 43.51-23.22-1.13-46.1-10.56-63.83-28.3-37.89-37.88-37.89-99.29 0-137.17 17.93-17.93 41.14-27.38 64.62-28.32 26.13-1.07 55.028 21.118 74.978 41.069 7.89 7.89 11.702 4.051 16.302 13.551 13.72 28.32 12.85 61.92-2.6 89.56z" fill="#a274bf"/><path d="m448.253 393.77c-17.73 17.74-40.61 27.17-63.83 28.3-26.38 1.29-52.15-14.705-72.3-34.855-6.49-6.49-12.91-7.115-17.17-14.755-15.45-27.64-16.32-61.24-2.6-89.56 4.6-9.5 14.522 3.036 22.412-4.854 19.95-19.95 42.738-50.836 68.868-49.766 23.48.94 46.69 10.39 64.62 28.32 37.89 37.88 37.89 99.29 0 137.17z" fill="#a274bf"/><path d="m218.113 282.9c-.242.072-.481.15-.722.224-3.935-9.411-9.841-18.357-18.008-26.523-19.95-19.95-46.42-29.39-72.55-28.32-1.05 6.64-1.6 13.45-1.6 20.39 0 26.015 6.258 49.305 17.895 68.598 4.496 7.454 4.5 16.847.074 24.343-11.414 19.332-17.969 41.859-17.969 65.889 0 4.92.28 9.78.81 14.57 26.38 1.29 53.19-8.15 73.34-28.3 6.49-6.49 11.87-13.67 16.13-21.31 15.45-27.641 16.32-61.241 2.6-89.561z" fill="#925cb4"/><path d="m385.233 248.67c0-6.94-.55-13.75-1.6-20.39-26.13-1.07-52.6 8.37-72.55 28.32-30.659 30.659-36.491 76.727-17.516 113.257.441.871.903 1.739 1.386 2.603 4.26 7.64 9.64 14.82 16.13 21.31 20.15 20.15 46.96 29.59 73.34 28.3.53-4.79.81-9.65.81-14.57 0-25.903-6.217-49.593-17.759-69.365-4.343-7.439-4.314-16.573.037-24.007 11.26-19.234 17.722-41.604 17.722-65.458z" fill="#925cb4"/><path d="m255.233 273.999-22.423-38.071c-34.594-58.737-34.594-131.619 0-190.356l5.421-9.204 14.417-16.477c1.16-1.97 4.01-1.97 5.17 0l19.838 33.682c34.594 58.737 31.593 123.618-3 182.355z" fill="#9be69d"/><path d="m277.655 45.572-19.838-33.682c-1.16-1.97-4.01-1.97-5.17 0l-14.417 24.478 5.421 9.204c34.594 58.737 34.594 131.619 0 190.356l-5.421 9.204 17.002 28.867 22.423-38.072c34.594-58.737 34.594-131.619 0-190.355z" fill="#97da7b"/><path d="m339.741 246.064c0 20.8-6.55 40.08-17.71 55.87-17.55 24.88-34.028 31.598-66.798 31.598s-61.74-4.112-79.29-28.992c-11.16-15.79-17.71-35.07-17.71-55.87 0-53.57 43.43-97 97-97 20.947 0 38.403 4.259 51.933 15.064 21.07 16.828 32.575 46.707 32.575 79.33z" fill="#b289c9"/><path d="m307.165 166.734c9.537 15.015 15.064 32.828 15.064 51.933 0 20.8-6.55 40.08-17.71 55.87-.024.034-.048.068-.072.102-4.073 5.757-11.328 8.294-18.176 6.609-9.949-2.448-20.345-3.749-31.038-3.749-29.032 0-57.627 10.893-79.29 27.04 17.55 24.88 46.52 41.13 79.29 41.13s61.74-16.25 79.29-41.13c11.16-15.79 17.71-35.07 17.71-55.87 0-34.464-17.979-64.729-45.068-81.935z" fill="#a274bf"/><g><path d="m346.073 407.5c0 53.572-37.269 87.935-90.84 87.935-34.467 0-64.733-8.912-81.938-36.001-9.537-15.015-15.062-32.829-15.062-51.934 0-53.572 43.428-97 97-97 19.105 0 36.92 5.523 51.935 15.06 27.088 17.206 38.905 47.474 38.905 81.94z" fill="#b289c9"/><path d="m307.168 325.561c9.537 15.015 15.062 32.832 15.062 51.936 0 53.572-43.428 97-97 97-19.105 0-36.92-5.526-51.935-15.063 17.205 27.088 47.471 45.066 81.938 45.066 53.572 0 97-43.428 97-97 0-34.466-17.977-64.734-45.065-81.939z" fill="#a274bf"/></g></g></g><g><path d="m110.858 266.714c-4-1.071-8.114 1.296-9.189 5.296l-5.094 18.952-18.951 5.094c-4 1.075-6.372 5.19-5.296 9.19.9 3.348 3.929 5.555 7.238 5.555.645 0 1.3-.084 1.952-.259l10.557-2.838-2.837 10.557c-1.075 4.001 1.296 8.115 5.296 9.19.652.175 1.307.259 1.952.259 3.309 0 6.338-2.207 7.238-5.555l5.094-18.952 18.951-5.094c4-1.075 6.372-5.19 5.296-9.19-1.075-4-5.19-6.367-9.189-5.296l-10.557 2.838 2.837-10.557c1.073-4.001-1.298-8.115-5.298-9.19z"/><path d="m453.56 251.292c-17.439-17.439-40.438-28.047-64.729-30.194 16.804-21.147 29.01-45.612 35.922-72.331l11.065-42.776c.665-2.571-.08-5.303-1.958-7.182-1.878-1.877-4.608-2.624-7.182-1.957l-42.775 11.065c-26.571 6.874-51.459 19.372-72.856 36.444.613-35.832-8.7-71.644-26.93-102.596l-22.422-38.071c-1.348-2.289-3.806-3.694-6.462-3.694s-5.114 1.405-6.462 3.694l-22.422 38.071c-18.213 30.923-27.531 66.755-26.925 102.573-11.705-9.351-24.428-17.314-38.006-23.755-3.742-1.775-8.215-.181-9.99 3.562-1.775 3.742-.18 8.215 3.562 9.99 15.276 7.246 29.386 16.576 42.044 27.782-21.131 14.222-36.802 35.954-43.169 61.338-4.101-.927-8.226-1.593-12.355-2.018-19.686-21.589-33.958-47.945-41.275-76.226l-7.873-30.451 30.442 7.879c.053.014.053.014.105.026l.136.039c3.967 1.189 8.147-1.069 9.334-5.038 1.186-3.969-1.07-8.147-5.039-9.333-.279-.084-.559-.163-.838-.231l-42.71-11.052c-2.574-.669-5.304.079-7.182 1.957s-2.624 4.609-1.958 7.181l11.061 42.78c6.801 26.291 19.165 51.035 36.006 72.309-24.096 2.104-47.137 12.54-64.809 30.221-15.098 15.098-25.093 34.134-28.905 55.049-.743 4.075 1.958 7.98 6.034 8.724.455.082.907.122 1.354.122 3.554 0 6.71-2.536 7.37-6.156 3.263-17.901 11.823-34.2 24.756-47.133 21.988-21.997 53.675-30.899 83.751-23.845-.354 3.49-.536 7.031-.536 10.613 0 30.595 13.551 59.688 36.622 79.444-23.583 20.019-38.183 51.249-36.504 84.295-29.936 6.856-61.506-2.105-83.336-23.944-12.934-12.933-21.494-29.227-24.755-47.12-.743-4.076-4.655-6.766-8.723-6.034-4.075.743-6.776 4.648-6.034 8.724 3.811 20.907 13.806 39.938 28.904 55.036 19.853 19.861 46.6 30.607 73.975 30.607 7.246 0 14.537-.76 21.755-2.297 9.312 48.143 51.771 84.617 102.595 84.617 23.556 0 46.652-8.063 65.033-22.704 3.24-2.58 3.774-7.299 1.194-10.539-2.581-3.24-7.299-3.774-10.54-1.193-15.964 12.715-35.22 19.436-55.687 19.436-49.351 0-89.5-40.149-89.5-89.5s40.149-89.5 89.5-89.5 89.5 40.149 89.5 89.5c0 16.066-4.309 31.826-12.461 45.575-2.113 3.563-.937 8.164 2.626 10.276 3.562 2.114 8.163.937 10.276-2.626 6.122-10.326 10.377-21.621 12.645-33.353 7.193 1.529 14.462 2.292 21.692 2.292 27.405-.001 54.228-10.766 74.05-30.587 40.744-40.744 40.744-107.04-.001-147.785zm-65.899-128.853 30.447-7.876-7.876 30.448c-8.712 33.68-26.541 63.482-51.849 86.897-4.708-29.077-21.452-54.172-44.943-69.986 21.223-18.771 46.752-32.376 74.221-39.483zm-148.388-73.062 15.96-27.098 15.96 27.099c18.227 30.947 26.792 67.157 24.522 102.954-12.457-5.254-26.136-8.162-40.482-8.162s-28.025 2.908-40.482 8.162c-2.27-35.786 6.308-72.029 24.522-102.955zm203.681 339.094c-21.781 21.781-53.431 30.786-83.35 23.942 1.708-33.048-12.917-64.274-36.491-84.296 5.856-5.01 11.139-10.634 15.755-16.802 2.482-3.316 1.806-8.017-1.511-10.499-3.316-2.482-8.017-1.805-10.498 1.511-4.652 6.216-10.094 11.792-16.204 16.621-16.076-10.098-35.078-15.948-55.422-15.948-20.342 0-39.342 5.849-55.416 15.944-21.409-16.919-34.084-42.893-34.084-70.274 0-49.351 40.149-89.5 89.5-89.5s89.5 40.149 89.5 89.5c0 8.421-1.167 16.743-3.467 24.736-1.146 3.98 1.152 8.136 5.133 9.281 3.983 1.15 8.136-1.151 9.282-5.133 2.508-8.713 3.847-17.755 4.018-26.904 5.713-4.69 11.126-9.654 16.215-14.879 24.987-1.049 49.351 8.438 67.041 26.128 34.895 34.896 34.895 91.676-.001 126.572z"/><path d="m432.842 296.056-18.951-5.094-5.094-18.952c-1.075-3.999-5.19-6.369-9.189-5.296-4 1.075-6.371 5.189-5.296 9.19l2.837 10.557-10.557-2.838c-3.998-1.072-8.115 1.296-9.189 5.296-1.076 4 1.295 8.115 5.296 9.19l18.951 5.094 5.094 18.952c.9 3.348 3.929 5.555 7.238 5.555.645 0 1.3-.084 1.952-.259 4-1.075 6.371-5.189 5.296-9.19l-2.837-10.557 10.557 2.838c.652.175 1.307.259 1.952.259 3.309 0 6.338-2.207 7.238-5.555 1.074-4-1.297-8.115-5.298-9.19z"/><path d="m282.478 193.229c-2.067-3.589-6.653-4.82-10.243-2.753l-17.002 9.798-17.002-9.798c-3.589-2.066-8.174-.835-10.243 2.753-2.068 3.589-.835 8.175 2.753 10.243l9.472 5.458-9.472 5.458c-3.588 2.068-4.821 6.654-2.753 10.243 1.388 2.409 3.911 3.756 6.505 3.756 1.271 0 2.558-.323 3.738-1.003l17.002-9.798 17.002 9.798c1.18.68 2.467 1.003 3.738 1.003 2.594 0 5.117-1.348 6.505-3.756 2.068-3.589.835-8.175-2.753-10.243l-9.472-5.458 9.472-5.458c3.588-2.068 4.821-6.654 2.753-10.243z"/><path d="m282.478 352.056c-2.067-3.588-6.653-4.819-10.243-2.753l-17.002 9.798-17.002-9.798c-3.589-2.067-8.174-.835-10.243 2.753-2.068 3.589-.835 8.175 2.753 10.243l9.472 5.458-9.472 5.458c-3.588 2.068-4.821 6.654-2.753 10.243 1.388 2.409 3.911 3.756 6.505 3.756 1.271 0 2.558-.323 3.738-1.003l17.002-9.798 17.002 9.798c1.18.68 2.467 1.003 3.738 1.003 2.594 0 5.117-1.348 6.505-3.756 2.068-3.589.835-8.175-2.753-10.243l-9.472-5.458 9.472-5.458c3.588-2.069 4.821-6.654 2.753-10.243z"/></g></g><g/><g/><g/><g/><g/><g/><g/><g/><g/><g/><g/><g/><g/><g/><g/></svg>