<?xml version="1.0" encoding="iso-8859-1"?>
<!-- Generator: Adobe Illustrator 19.0.0, SVG Export Plug-In . SVG Version: 6.00 Build 0)  -->
<svg xmlns="http://www.w3.org/2000/svg" xmlns:xlink="http://www.w3.org/1999/xlink" version="1.1" id="Layer_1" x="0px" y="0px" viewBox="0 0 500.055 500.055" style="enable-background:new 0 0 500.055 500.055;" xml:space="preserve" width="512" height="512">
<g>
	<g>
		<g>
			<path style="fill:#70D65B;" d="M488.375,11.689c10.594,38.105,0.94,80.659-29.021,110.62     c-29.961,29.961-72.515,39.615-110.62,29.021c-10.594-38.105-0.94-80.659,29.021-110.62     C407.716,10.749,450.27,1.095,488.375,11.689z"/>
			<path style="fill:#58B741;" d="M348.735,151.329c-10.598-38.104-0.936-80.655,29.019-110.61     c29.966-29.966,72.517-39.628,110.621-29.03C488.375,11.689,402.031,27.629,348.735,151.329z"/>
		</g>
		<g>
			<path style="fill:#70D65B;" d="M362.761,126.158c-13.143,13.143-28.704,22.374-45.264,27.705     c-15.456,4.984-31.753,6.561-47.735,4.731c-5.941-0.662-11.818-1.808-17.611-3.417c-9.81-35.254-2.271-74.315,22.637-103.681     c2.019-2.376,4.143-4.689,6.382-6.929c29.966-29.966,72.517-39.628,110.62-29.03c7.15,25.676,5.089,53.37-6.182,77.89     C380.151,105.277,372.529,116.39,362.761,126.158z"/>
			<path style="fill:#58B741;" d="M252.151,155.177c-10.598-38.104-0.936-80.655,29.019-110.61     c29.966-29.966,72.517-39.628,110.621-29.03C391.791,15.537,305.448,31.477,252.151,155.177z"/>
		</g>
		<g>
			<path style="fill:#70D65B;" d="M455.475,218.894c-2.239,2.239-4.553,4.363-6.929,6.382     c-29.366,24.908-68.426,32.447-103.681,22.637c-1.609-5.793-2.755-11.671-3.417-17.611c-1.829-15.982-0.252-32.3,4.721-47.745     c5.341-16.549,14.583-32.121,27.716-45.253c9.768-9.768,20.882-17.391,32.752-22.827c24.498-11.292,52.193-13.353,77.869-6.203     C495.104,146.377,485.441,188.928,455.475,218.894z"/>
			<path style="fill:#58B741;" d="M344.866,247.913c-10.598-38.104-0.936-80.655,29.019-110.61     c29.966-29.966,72.517-39.628,110.621-29.03C484.505,108.273,398.162,124.213,344.866,247.913z"/>
		</g>
		<polyline style="fill:#70D65B;" points="272.859,273.445 53.75,492.554 7.5,446.304 226.609,227.195   "/>
		<polyline style="fill:#58B741;" points="248.263,248.848 29.153,467.957 7.5,446.304 226.609,227.195   "/>
		<g>
			<path style="fill:#70D65B;" d="M374.19,207.465c-9.768,9.768-20.871,17.38-32.741,22.837     c-24.498,11.271-52.193,13.332-77.868,6.182c-7.139-25.686-5.078-53.381,6.182-77.89c5.457-11.85,13.069-22.953,22.837-32.72     c6.529-6.529,13.648-12.091,21.197-16.697c21.849-13.311,47.199-18.558,71.812-15.75c5.941,0.662,11.818,1.808,17.611,3.417     c1.609,5.793,2.755,11.692,3.417,17.632c2.807,24.593-2.439,49.943-15.75,71.77C386.292,193.807,380.719,200.936,374.19,207.465z     "/>
			<path style="fill:#58B741;" d="M263.58,236.484c-10.598-38.104-0.936-80.655,29.019-110.61     c29.966-29.966,72.517-39.628,110.621-29.03C403.22,96.844,316.876,112.784,263.58,236.484z"/>
		</g>
		<path style="fill:#58B741;" d="M448.547,225.276c-29.366,24.908-68.426,32.447-103.681,22.637    c-1.609-5.793-2.755-11.671-3.417-17.611c-24.498,11.271-52.193,13.332-77.868,6.182c-7.139-25.686-5.078-53.381,6.182-77.89    c-5.941-0.662-11.818-1.808-17.611-3.417c-9.81-35.254-2.271-74.315,22.637-103.681c13.416,10.535,24.425,24.025,31.995,39.502    c2.849,5.793,5.204,11.871,7.013,18.179c2.923,10.009,4.479,20.608,4.479,31.564c0,4.437-0.252,8.832-0.778,13.122    c-1.745,15.33-6.571,29.703-13.816,42.52c12.806-7.255,27.169-12.071,42.488-13.826c4.3-0.515,8.685-0.778,13.143-0.778    c10.956,0,21.555,1.556,31.574,4.468C414.007,192.945,434.079,206.813,448.547,225.276z"/>
		<path style="fill:#70D65B;" d="M336.023,320.472c-42.373,0-79.288-23.268-98.729-57.702    c-34.445-19.451-57.713-56.367-57.713-98.739c0-42.372,23.268-79.288,57.702-98.75c19.925,11.261,36.106,28.368,46.21,49.007    c7.36,15.014,11.492,31.89,11.492,49.743c0,20.23-5.31,39.208-14.594,55.641c16.423-9.295,35.401-14.604,55.631-14.604    c42.372,0,79.288,23.268,98.75,57.702C415.311,297.204,378.396,320.472,336.023,320.472z"/>
		<path style="fill:#58B741;" d="M237.294,262.77c-34.445-19.451-57.713-56.367-57.713-98.739c0-42.372,23.268-79.288,57.702-98.75    c19.925,11.261,36.106,28.368,46.21,49.007C243.067,134.191,207.518,202.944,237.294,262.77z"/>
		<path style="fill:#58B741;" d="M252.971,343.147L252.971,343.147c-19.884-19.884-52.122-19.884-72.006,0l-28.127,28.127l0,0    c19.884,19.884,52.122,19.884,72.006,0L252.971,343.147z"/>
		<path style="fill:#58B741;" d="M100.548,298.518L100.548,298.518c19.884,19.884,19.884,52.122,0,72.006L72.42,398.651l0,0    c-19.884-19.884-19.884-52.122,0-72.006L100.548,298.518z"/>
	</g>
	<path d="M486.517,101.048c-0.512-0.143-1.025-0.274-1.538-0.41c15.271-27.578,19.184-60.149,10.622-90.957   c-0.704-2.533-2.683-4.513-5.216-5.217c-30.826-8.574-63.398-4.663-90.961,10.618c-0.135-0.511-0.266-1.023-0.408-1.533   c-0.705-2.533-2.683-4.512-5.216-5.216c-41.987-11.68-87.177,0.173-117.934,30.931c-8.502,8.502-15.593,18.071-21.174,28.528   c-4.33-3.293-8.907-6.317-13.718-9.035c-2.29-1.293-5.089-1.293-7.378,0c-37.941,21.433-61.511,61.771-61.511,105.271   c0,29.063,10.531,56.707,28.829,78.252l-27.956,27.956c-2.929,2.929-2.929,7.678,0,10.606c1.464,1.464,3.384,2.197,5.303,2.197   s3.839-0.732,5.303-2.197l27.753-27.753c6.212,5.703,13.053,10.808,20.475,15.171c4.362,7.421,9.466,14.261,15.169,20.473   l-32.078,32.078c-14.257,0.504-28.364,6.173-39.224,17.033l-28.127,28.127c-2.929,2.929-2.929,7.678,0,10.606   c1.966,1.966,4.046,3.751,6.207,5.378L53.75,481.947l-35.644-35.644l45.826-45.826c1.012,1.188,2.062,2.354,3.185,3.477   c1.464,1.465,3.384,2.197,5.303,2.197c1.919,0,3.839-0.732,5.303-2.197l28.127-28.127c9.495-9.495,15.017-21.474,16.595-33.864   l37.619-37.619c2.929-2.929,2.929-7.678,0-10.606c-2.929-2.929-7.678-2.929-10.606,0l-27.956,27.956   c-2.334-10.444-7.541-20.369-15.652-28.479c-2.929-2.929-7.678-2.929-10.606,0l-28.127,28.127   c-17.887,17.887-21.719,44.58-11.512,66.25L2.197,441c-2.929,2.929-2.929,7.678,0,10.606l46.25,46.25   c1.464,1.464,3.384,2.197,5.303,2.197s3.839-0.732,5.303-2.197l108.283-108.283c6.892,2.718,14.196,4.087,21.504,4.087   c14.959,0,29.918-5.694,41.306-17.083l28.127-28.127c2.929-2.929,2.929-7.678,0-10.606c-7.09-7.09-15.565-11.971-24.562-14.647   l24.06-24.06c21.545,18.3,49.19,28.832,78.255,28.832c4.142,0,7.5-3.358,7.5-7.5s-3.358-7.5-7.5-7.5   c-38.1,0-73.434-20.649-92.211-53.888c-0.671-1.188-1.653-2.17-2.841-2.841c-33.239-18.777-53.888-54.11-53.888-92.211   c0-36.671,19.128-70.778,50.2-90.028c31.071,19.25,50.199,53.357,50.199,90.028c0,18.21-4.714,36.175-13.631,51.954   c-1.658,2.933-1.156,6.611,1.226,8.994c2.382,2.382,6.06,2.884,8.994,1.226c15.778-8.917,33.744-13.631,51.953-13.631   c36.67,0,70.777,19.126,90.027,50.198c-13.929,22.447-36.115,39.213-61.479,46.305c-3.989,1.116-6.319,5.254-5.204,9.243   c1.116,3.989,5.254,6.317,9.243,5.204c30.529-8.537,57.021-29.334,72.684-57.061c1.293-2.29,1.293-5.088,0-7.378   c-2.718-4.812-5.743-9.39-9.038-13.721c10.458-5.581,20.026-12.672,28.528-21.174c30.761-30.761,42.617-75.946,30.942-117.923   C491.027,103.732,489.049,101.753,486.517,101.048z M77.724,331.949l22.366-22.366c11.89,16.929,10.275,40.518-4.845,55.638   l-22.366,22.365C60.989,370.658,62.604,347.068,77.724,331.949z M219.541,365.972c-15.12,15.119-38.709,16.734-55.638,4.845   l22.366-22.366c15.119-15.12,38.708-16.735,55.638-4.845L219.541,365.972z M482.214,17.849c6.44,27.348,1.832,55.948-12.823,79.746   c-19.146-2.449-38.652-0.298-56.808,6.318c-0.597-3.038-1.299-6.067-2.137-9.079c-0.704-2.533-2.683-4.512-5.216-5.216   c-3.013-0.838-6.043-1.541-9.083-2.138c6.611-18.161,8.762-37.665,6.318-56.805C426.246,16.008,454.849,11.399,482.214,17.849z    M266.359,77.906c5.096-10.351,11.844-19.765,20.115-28.036c25.928-25.927,63.572-36.517,99.157-28.151   c4.995,21.248,3.31,43.551-4.779,63.752c-32.117-2.131-64.129,8.635-88.474,30.303C286.213,101.666,277.399,88.786,266.359,77.906z    M295.484,204.572c4.61-12.956,7.001-26.688,7.001-40.543c0-11.26-1.592-22.303-4.59-32.866   c25.934-25.931,63.579-36.521,99.163-28.157c8.36,35.574-2.234,73.217-28.17,99.154c-10.561-2.998-21.603-4.589-32.861-4.589   C322.173,197.571,308.44,199.962,295.484,204.572z M450.183,213.58c-8.27,8.27-17.684,15.018-28.036,20.115   c-10.88-11.04-23.76-19.853-37.87-26.016c21.672-24.345,32.441-56.354,30.314-88.467c20.193-8.097,42.496-9.783,63.753-4.778   C486.705,150.008,476.114,187.649,450.183,213.58z"/>
</g>















</svg>
