<svg id="Capa_1" enable-background="new 0 0 512 512" height="512" viewBox="0 0 512 512" width="512" xmlns="http://www.w3.org/2000/svg"><g><g><path d="m338.96 504.5c-91.426 0-165.54-73.966-165.54-165.208 0-47.289 12.947-93.62 37.15-134.275 13.699-23.01 27.033-51.616 35.964-85.695 3.445-13.143 5.892-25.793 7.576-37.791 5.946-42.369 41.993-74.031 84.862-74.031 42.838 0 78.91 31.61 84.85 73.95 1.704 12.146 4.19 24.963 7.701 38.285 8.922 33.856 22.177 62.295 35.797 85.199 24.193 40.683 37.18 87.017 37.18 134.326v.033c0 91.241-74.115 165.207-165.54 165.207z" fill="#9be69d"/><g><path d="m173.04 504.5c-91.425 0-165.54-73.966-165.54-165.208 0-47.289 12.947-93.62 37.15-134.275 13.699-23.01 27.033-51.616 35.964-85.695 3.445-13.143 5.892-25.793 7.576-37.791 5.946-42.369 41.993-74.031 84.863-74.031 42.838 0 78.91 31.61 84.85 73.95 1.704 12.146 4.19 24.963 7.701 38.285 8.922 33.856 22.177 62.295 35.797 85.199 24.193 40.683 37.18 87.017 37.18 134.326v.033c-.001 91.241-74.115 165.207-165.541 165.207z" fill="#bbf49b"/><path d="m301.4 204.934c-13.621-22.904-26.875-51.344-35.797-85.199-3.511-13.322-5.997-26.138-7.7-38.285-5.94-42.339-42.011-73.95-84.85-73.95-6.336 0-12.518.708-18.48 2.024 34.36 7.579 61.303 35.849 66.365 71.926 1.704 12.146 4.19 24.963 7.7 38.285 8.922 33.855 22.177 62.295 35.797 85.199 24.194 40.683 37.18 87.017 37.18 134.326v.033c0 85.005-64.333 155.004-147.057 164.177 6.069.673 12.234 1.031 18.483 1.031 91.425 0 165.54-73.966 165.54-165.208v-.033c-.001-47.309-12.987-93.643-37.181-134.326z" fill="#9be69d"/></g><path d="m467.32 204.934c-13.621-22.904-26.875-51.344-35.797-85.199-3.511-13.322-5.997-26.138-7.701-38.285-5.94-42.339-42.011-73.95-84.85-73.95-5.111 0-10.12.463-14.998 1.327 36.012 6.382 64.616 35.335 69.848 72.622 1.704 12.146 4.19 24.963 7.701 38.285 8.922 33.855 22.177 62.295 35.797 85.199 24.194 40.683 37.18 87.017 37.18 134.326v.033c0 86.194-66.146 156.959-150.54 164.525 4.942.443 9.942.682 15 .682 91.425 0 165.54-73.966 165.54-165.208v-.033c0-47.307-12.986-93.641-37.18-134.324z" fill="#6fd7a3"/><g><path d="m275.04 336c0 56.333-45.667 102-102 102s-102-45.667-102-102 45.667-122 102-122 102 65.667 102 122z" fill="#d77f4a"/><path d="m173.04 214c-5.096 0-10.104.545-15 1.564 49.221 10.249 87 69.199 87 120.436s-37.779 93.644-87 100.899c4.896.722 9.904 1.101 15 1.101 56.333 0 102-45.667 102-102s-45.667-122-102-122z" fill="#c86d36"/></g></g><path d="m173.04 206.5c-28.626 0-56.334 15.178-78.019 42.737-19.712 25.053-31.481 57.487-31.481 86.763 0 26.747 9.749 52.5 27.45 72.515 2.744 3.103 7.484 3.394 10.587.649s3.394-7.484.649-10.587c-15.274-17.27-23.686-39.494-23.686-62.577 0-63.426 51.697-114.5 94.5-114.5 52.347 0 94.5 62.638 94.5 114.5 0 52.107-42.393 94.5-94.5 94.5-16.04 0-31.88-4.089-45.809-11.824-3.62-2.012-8.188-.706-10.198 2.915-2.011 3.622-.706 8.187 2.915 10.198 16.151 8.97 34.51 13.711 53.092 13.711 60.379 0 109.5-49.122 109.5-109.5 0-29.276-11.769-61.71-31.481-86.763-21.685-27.559-49.393-42.737-78.019-42.737zm310.552 12.621c-1.844-3.708-6.347-5.219-10.056-3.373-3.708 1.846-5.218 6.348-3.372 10.056 17.556 35.275 26.836 74.508 26.836 113.486 0 86.961-70.896 157.71-158.04 157.71-23.628 0-46.909-5.293-68.055-15.357 45.368-31.17 75.175-83.358 75.175-142.383 0-48.323-13.221-96.098-38.233-138.159-15.545-26.141-27.317-54.16-34.991-83.277-3.23-12.26-5.763-24.848-7.525-37.416-.396-2.823-.922-5.616-1.568-8.371 9.512-33.671 40.171-57.037 75.207-57.037 18.89 0 37.118 6.836 51.33 19.251 14.199 12.388 23.466 29.52 26.094 48.244 1.857 13.195 4.506 26.366 7.873 39.145 6.673 25.327 16.353 49.963 28.77 73.224 1.972 3.694 6.554 5.004 10.148 3.084 3.653-1.951 5.035-6.494 3.084-10.148-11.869-22.235-21.12-45.781-27.497-69.982-3.218-12.212-5.749-24.8-7.524-37.411-3.128-22.293-14.168-42.7-31.082-57.456-16.943-14.8-38.677-22.951-61.196-22.951-35.541 0-67.302 20.163-82.966 50.894-5.373-10.54-12.715-20.053-21.756-27.946-16.952-14.799-38.685-22.948-61.195-22.948-22.521 0-44.261 8.161-61.213 22.98-16.91 14.782-27.946 35.206-31.076 57.509-1.741 12.404-4.232 24.83-7.404 36.932-7.677 29.292-19.504 57.473-35.153 83.76-24.996 41.984-38.207 89.742-38.207 138.111 0 95.232 77.625 172.708 173.04 172.708 30.02 0 58.276-7.674 82.91-21.154 25.34 13.841 53.941 21.154 83.01 21.154 95.415 0 173.04-77.478 173.04-172.74 0-41.256-9.823-82.799-28.408-120.139zm-310.552 277.879c-87.144 0-158.04-70.748-158.04-157.708 0-45.669 12.481-90.774 36.095-130.438 16.369-27.494 28.741-56.977 36.774-87.629 3.32-12.666 5.927-25.669 7.748-38.65 2.63-18.736 11.896-35.889 26.095-48.3 14.218-12.43 32.451-19.275 51.341-19.275 18.883 0 37.111 6.835 51.33 19.248 14.2 12.397 23.467 29.53 26.093 48.244 1.845 13.151 4.494 26.324 7.876 39.154 8.028 30.468 20.344 59.78 36.603 87.122 23.634 39.743 36.126 84.866 36.126 130.525-.001 86.959-70.897 157.707-158.041 157.707z"/></g></svg>