<svg id="Capa_1" enable-background="new 0 0 512.02 512.02" height="512" viewBox="0 0 512.02 512.02" width="512" xmlns="http://www.w3.org/2000/svg"><g><g><g><g><path d="m483.195 263.495c-2.071-2.37-6.13-5.376-9.264-5.08-4.962.468-12.375 4.485-20.918 6.873-4.703 1.315-10.105-3.097-15.252-1.487-23.82 7.449-49.953 16.969-55.813 18.506-37.238 9.751-75.979 16.459-114.468 11.259-71.851-9.704-113.206-57.936-154.424-108.776-.01-.009-.01-.009-.021-.018-11.489-14.168-22.965-28.548-35.1-42.34-19.65-22.332-37.157-14.804-49.766 11.782-8.92 18.806-9.75 51.514-.687 87.178 27.271 107.308 132.719 179.242 243.418 186.601 84.096 5.591 175.506-33.648 218.825-107.043 5.57-9.437 6.641-18.223 10.503-28.767 1.222-3.335 1.142-7.187-1.195-9.861z" fill="#fef0ae"/><path d="m28.169 184.213c12.609-26.585 30.116-34.113 49.766-11.782 12.136 13.792 23.611 28.173 35.1 42.341.01.009.01.009.021.018 41.218 50.839 82.573 99.071 154.424 108.776 38.489 5.2 77.229-1.508 114.468-11.259 7.126-1.868 44.234-15.544 70.702-22.943 8.544-2.388 15.978-4.121 20.94-4.59 3.133-.296 6.212.935 8.282 3.305l13.315 15.239c2.318-4.906 3.148-5.966 5.041-11.136 1.222-3.335-1.548-7.187-3.885-9.861l-13.149-18.826c-2.071-2.37-6.13-5.376-9.264-5.08-4.962.468-12.375 4.485-20.918 6.873-4.703 1.315-10.105-3.097-15.252-1.487-23.82 7.449-49.953 16.969-55.813 18.506-37.238 9.751-75.979 16.459-114.468 11.259-71.851-9.704-113.206-57.936-154.424-108.776-.01-.009-.01-.009-.021-.018-11.489-14.168-22.964-28.548-35.1-42.341-19.65-22.332-37.157-14.804-49.766 11.782-6.118 12.9-8.429 32.341-6.353 54.789 1.048-9.685 3.189-18.116 6.354-24.789z" fill="#fee97d"/></g><path d="m460.136 300.088c10.831 11.142 22.106 17.431 29.58 20.856 5.57-9.437 10.354-19.432 14.216-29.976 1.222-3.335.495-7.075-1.842-9.749l-20.218-23.139c-2.071-2.37-5.149-3.601-8.282-3.305-4.962.468-12.397 2.202-20.94 4.59-4.702 1.314-9.742 2.829-14.888 4.438 2.901 8.321 9.138 22.668 22.374 36.285z" fill="#00516a"/><path d="m481.873 258.079c-2.071-2.37-5.149-3.601-8.282-3.305-4.962.468-12.397 2.202-20.94 4.59-4.702 1.314-9.742 2.829-14.888 4.438 2.168 6.217 6.2 15.797 13.617 25.922.424-.12.853-.243 1.271-.36 8.544-2.388 15.978-4.121 20.94-4.59 3.133-.296 6.212.935 8.282 3.305l15.723 17.995c2.318-4.906 4.443-9.937 6.336-15.107 1.222-3.335.495-7.075-1.842-9.749z" fill="#004651"/></g><g><g><path d="m107.102 109.635c-.474-5.777-1.279-24.477 10.882-43.234 7.819-12.061 17.823-19.247 25.485-23.37 9.433-5.077 12.422-17.306 6.118-25.968-.071-.098-.144-.196-.217-.293-.234-.312-.473-.615-.715-.908-6.293-7.619-17.135-9.659-26.029-5.352-5.618 2.72-12.093 6.548-18.625 11.941-2.554 2.109-11.519 9.737-21.364 25.254-6.769 10.668-16.729 29.437-21.642 56.345 3.765 2.53 11.592 7.063 22.584 8.35 10.765 1.259 19.274-1.212 23.523-2.765z" fill="#00516a"/><path d="m149.37 16.77c-.234-.311-.471-.613-.712-.905-6.278-7.604-17.102-9.673-25.978-5.377-1.928.933-3.958 1.997-6.057 3.208.954.904 1.88 1.918 2.747 3.073.073.098.146.196.217.293 6.304 8.662 3.315 20.891-6.118 25.968-7.662 4.124-17.666 11.309-25.485 23.37-12.161 18.757-11.356 37.456-10.882 43.234-.729.267-1.593.56-2.563.858 2.712.833 5.73 1.518 9.041 1.906 10.764 1.26 19.274-1.211 23.523-2.764-.474-5.777-1.279-24.477 10.882-43.234 7.819-12.061 17.823-19.246 25.485-23.37 9.433-5.077 12.422-17.306 6.118-25.968-.072-.096-.144-.194-.218-.292z" fill="#004651"/><path d="m402.951 424.819c-.577-3.142-3.278-6.744-6.165-8.112-4.572-2.167-10.776-4.463-19.468-6.814-4.785-1.294-9.045-6.511-14.37-7.777-24.645-5.863-52.384-11.12-58.293-12.82-37.546-10.818-74.823-25.071-105.701-49.581-57.645-45.753-68.692-109.29-78.266-175.03-.004-.013-.004-.013-.009-.026-2.67-18.322-5.219-36.822-8.648-55.152-1.857-9.927-5.239-16.815-9.845-20.963-1.962-1.767-3.973-.908-6.356-1.704-2.407-.804-5.192-3.255-7.982-3.116-7.35.366-15.943 3.923-25.345 10.235-17.541 11.777-35.239 39.88-45.84 75.696-31.896 107.765 22.763 225.239 115.515 289.106 70.462 48.519 170.567 61.724 246.446 20.177 9.756-5.342 12.567-12.856 21.408-20.05 2.796-2.275 4.22-6.837 3.569-10.383z" fill="#fee97d"/><path d="m406.164 450.133-3.213-25.314c-.577-3.142-3.278-6.744-6.165-8.112-4.572-2.167-10.776-4.463-19.468-6.814-4.785-1.294-9.045-6.511-14.37-7.777-24.645-5.863-52.384-11.12-58.293-12.82-37.546-10.818-74.823-25.071-105.701-49.581-57.645-45.753-68.692-109.29-78.266-175.03-.004-.013-.004-.013-.009-.026-2.67-18.322-5.219-36.822-8.648-55.152-1.857-9.927-5.239-16.815-9.845-20.963-1.962-1.767-3.973-.908-6.356-1.704-2.407-.804-5.192-3.255-7.982-3.116-7.35.366-15.943 3.923-25.344 10.235-2.093 1.406-4.189 3.05-6.274 4.906 12.871-1.412 22.202 6.401 25.802 25.642 3.43 18.33 5.978 36.83 8.648 55.152.004.013.004.013.009.026 9.574 65.74 20.621 129.278 78.266 175.03 30.878 24.51 68.155 38.762 105.701 49.581 7.186 2.068 46.654 9.395 73.584 16.676 8.692 2.35 16.077 4.697 20.649 6.863 2.887 1.368 4.934 4.04 5.51 7.182l5.63 30.678c.651 3.546-.656 7.185-3.453 9.461-6.282 5.112-12.827 9.738-19.588 13.908 7.389-2.921 14.614-6.293 21.632-10.132 9.758-5.339 12.571-12.848 21.412-20.042 2.795-2.277 6.783-5.211 6.132-8.757z" fill="#f4da6e"/><path d="m83.959 135.387c3.176-11.321 6.863-21.449 10.521-30.147 2.313-5.517 4.843-10.999 7.521-16.292.065-.129.117-.262.174-.393-1.961-1.765-4.144-3.034-6.525-3.832-2.499-.837-5.165-1.12-7.802-.992h-.001c-2.551 5.129-4.974 10.4-7.197 15.702-1.305 3.103-2.613 6.381-3.904 9.818 2.32 3.922 4.109 8.976 5.284 15.256.678 3.62 1.313 7.249 1.929 10.88z" fill="#fef0ae"/></g><path d="m404.399 420.016c-.577-3.142-2.624-5.814-5.51-7.182-4.572-2.167-11.957-4.513-20.649-6.863-4.784-1.293-9.967-2.588-15.292-3.854-1.788 8.766-3.792 24.519.689 43.266 3.666 15.341 10.239 26.678 14.981 33.544 9.757-5.342 19.117-11.579 27.958-18.773 2.796-2.275 4.103-5.915 3.453-9.461z" fill="#00516a"/><path d="m376.576 475.155c-.096.078-.195.151-.292.229.809 1.283 1.594 2.472 2.331 3.54 9.758-5.339 19.119-11.576 27.96-18.77 2.796-2.275 4.103-5.915 3.453-9.461l-5.63-30.678c-.577-3.142-2.624-5.814-5.51-7.182-4.572-2.167-11.957-4.513-20.649-6.863-4.784-1.293-9.967-2.588-15.292-3.854-1.079 5.29-2.227 13.137-1.99 22.638 3.137 1.053 5.833 2.085 7.931 3.079 2.887 1.368 4.934 4.04 5.51 7.182l5.63 30.678c.651 3.547-.656 7.187-3.452 9.462z" fill="#004651"/></g></g><path d="m507.736 276.284-20.219-23.138c-3.641-4.17-9.103-6.356-14.637-5.844-18.608 1.722-56.906 15.639-75.231 21.914-8.176 2.799-15.236 5.217-17.601 5.837-30.681 8.033-71.091 16.553-111.565 11.083-62.972-8.512-101.296-48.067-134.952-88.242-1.966-11.052-3.698-22.454-5.422-34.291-.012-.083-.026-.168-.042-.253l-1.082-7.464c-2.264-15.654-4.604-31.84-7.583-47.759-.984-5.258-2.395-9.87-4.207-13.856 1.37-8.571 4.407-16.571 9.085-23.792 5.679-8.758 13.332-15.772 22.739-20.845 6.473-3.48 11.123-9.581 12.757-16.738 1.744-7.638-.351-15.785-5.339-21.817-8.454-10.225-22.881-13.235-35.078-7.321-7.196 3.483-13.97 7.824-20.144 12.913-7.955 6.583-15.878 15.926-22.911 27.019-8.652 13.63-15.229 28.81-19.577 45.157-19.106 13.747-36.682 42.946-47.258 78.68-18.623 62.918-9.595 132.209 25.421 195.108 2.015 3.62 6.584 4.921 10.201 2.905 3.619-2.015 4.92-6.582 2.905-10.201-33.036-59.348-41.611-124.536-24.142-183.556 9.761-32.979 26.172-60.414 42.829-71.597 6.439-4.323 12.302-7.123 17.286-8.318-1.144 2.509-2.257 5.033-3.319 7.566-13.62 32.386-27.639 83.456-17.08 142.831 7.809 43.909 29.157 86.147 61.736 122.147 31.284 34.568 70.34 60.812 112.948 75.896 28.338 10.031 57.944 15.067 88.408 15.067 10.394 0 20.891-.596 31.468-1.771 2.401 7.843 5.683 15.355 9.817 22.459-28.844 14.234-61.963 21.124-97.636 20.112-47.479-1.354-95.026-16.835-133.881-43.59-26.963-18.566-50.485-41.532-69.913-68.261-2.435-3.35-7.125-4.092-10.477-1.657-3.351 2.436-4.092 7.126-1.657 10.477 20.43 28.107 45.172 52.263 73.54 71.796 41.208 28.375 91.624 44.793 141.96 46.229 52.897 1.509 103.341-14.219 141.424-45.194 4.91-3.994 7.247-10.367 6.098-16.632l-5.63-30.679c-.801-4.362-3.246-8.222-6.737-10.827 50.83-25.602 88.13-65.679 105.928-114.274 2.173-5.906.933-12.529-3.23-17.279zm-432.056-197.603c3.547-9.571 7.985-18.596 13.292-26.956 6.113-9.642 13.147-17.987 19.796-23.488 5.242-4.32 11.004-8.014 17.132-10.979 5.959-2.89 12.943-1.5 16.93 3.322 2.128 2.573 3.089 5.629 2.324 8.978-.67 2.934-2.579 5.437-5.246 6.87-11.493 6.197-21.249 15.15-28.215 25.894-3.599 5.554-6.423 11.47-8.46 17.689-8.052-4.842-17.113-4.988-27.553-1.33zm167.58 347.484c-84.098-29.77-150.375-104.729-164.921-186.528-9.918-55.772 3.301-103.865 16.141-134.397 1.333-3.179 2.745-6.342 4.209-9.469 3.253 4.016 5.022 10.05 5.969 15.115 2.921 15.613 5.239 31.644 7.481 47.146l1.118 7.708c.013.09.028.18.044.269 5.09 34.931 10.231 66.299 21.469 96.316 12.654 33.8 32.929 62.158 59.521 83.265 34.554 27.427 76.021 41.616 108.29 50.914 2.92.84 9.859 2.296 19.463 4.312 9.459 1.985 21.008 4.41 32.353 7.008-1.377 10.31-1.269 20.834.327 31.067-38.689 4.046-76.146-.224-111.464-12.726zm158.582 28.172c-6.569 5.345-13.487 10.194-20.718 14.542-4.63-7.878-8.063-16.332-10.192-25.234-.001-.005-.002-.011-.004-.016-2.502-10.475-3.125-21.501-1.864-32.295 8.534 2.186 19.826 5.066 26.613 8.28.7.332 1.203.989 1.344 1.757l5.63 30.677c.161.875-.149 1.752-.809 2.289zm-16.062-54.042c-1.753-.509-3.611-1.03-5.585-1.564-17.186-4.646-39.083-9.241-55.071-12.597-8.588-1.802-16.005-3.358-18.394-4.045-19.357-5.578-42.137-12.967-64.438-24.034 18.922 3.97 38.264 6.002 57.514 6.002 13.643 0 27.244-1.015 40.603-3.068 4.094-.629 6.902-4.458 6.273-8.552-.629-4.095-4.46-6.899-8.553-6.274-47.026 7.228-97.145.827-141.279-18.007-21.445-18.864-37.215-42.194-48.033-71.09-3.546-9.471-6.456-19.155-8.955-29.102 31.041 33.811 69.779 65.355 126.61 73.037 43.085 5.821 85.357-3.055 117.376-11.438 2.901-.761 9.511-3.024 18.658-6.156 8.981-3.076 19.942-6.827 30.822-10.333 4.01 9.359 9.364 18.158 15.82 25.977-24.013 17.881-50.167 31.191-77.862 39.58-3.964 1.201-6.204 5.388-5.003 9.352 1.214 4.008 5.475 6.178 9.353 5.003 29.941-9.07 58.162-23.53 83.978-43.017 5.936 5.378 12.44 10.046 19.451 13.954-21.155 32.522-53.229 58.948-93.285 76.372zm111.105-111.905c-2.851 7.785-6.25 15.336-10.165 22.625-7.832-4.321-14.949-9.721-21.196-16.146-.007-.008-.015-.015-.022-.023-7.356-7.571-13.409-16.541-17.767-26.258 7.934-2.482 22.056-5.931 26.543-6.352.739-.069 1.449.212 1.942.777l20.228 23.148c.546.625.715 1.474.437 2.229z"/></g></svg>