<svg id="Capa_1" enable-background="new 0 0 514.58 514.58" height="512" viewBox="0 0 514.58 514.58" width="512" xmlns="http://www.w3.org/2000/svg"><g><g><path d="m140.912 171.721-30.928-14.716c-31.935-15.195-70.181-4.821-90.06 24.43-22.705 33.408-13.327 78.97 20.726 100.695l6.689 4.268c75.47 48.149 172.016 48.149 247.486 0l6.689-4.268c34.053-21.725 43.431-67.287 20.726-100.695-19.879-29.25-58.124-39.625-90.06-24.43l-30.928 14.716c-19.087 9.082-41.252 9.082-60.34 0z" fill="#e79098"/><path d="m326.518 240.481-6.689 4.268c-75.47 48.149-172.016 48.149-247.486 0l-6.689-4.268c-25.646-16.361-37.287-46.264-31.779-74.292-5.25 4.288-9.973 9.393-13.951 15.245-22.705 33.408-13.327 78.971 20.726 100.696l6.689 4.268c75.47 48.149 172.016 48.149 247.486 0l6.689-4.268c17.203-10.976 28.111-28.044 31.764-46.547-2.131 1.735-4.386 3.383-6.76 4.898z" fill="#e17983"/><path d="m228.097 325.237-30.928-14.716c-31.935-15.195-70.181-4.821-90.06 24.43-22.705 33.408-13.326 78.97 20.726 100.695l6.689 4.268c75.47 48.149 172.016 48.149 247.486 0l6.689-4.268c34.053-21.725 43.431-67.287 20.726-100.695-19.879-29.25-58.124-39.625-90.06-24.43l-30.928 14.716c-19.087 9.082-41.251 9.082-60.34 0z" fill="#e79098"/><path d="m184.087 406.239-6.689-4.268c-32.95-21.021-42.794-64.359-22.829-97.41-18.746 3.14-36.101 13.677-47.458 30.389-22.705 33.408-13.326 78.97 20.727 100.695l6.689 4.268c75.47 48.149 172.016 48.149 247.486 0l6.689-4.268c6.637-4.234 12.342-9.38 17.049-15.159-70.795 33.309-154.568 28.56-221.664-14.247z" fill="#e17983"/><path d="m313.332 59.799-30.928-14.716c-31.935-15.195-70.181-4.821-90.06 24.43-22.705 33.408-13.326 78.97 20.726 100.695l6.689 4.268c75.47 48.149 172.016 48.149 247.486 0l6.689-4.268c34.053-21.725 43.431-67.287 20.726-100.695-19.879-29.25-58.124-39.625-90.06-24.43l-30.928 14.716c-19.087 9.083-41.251 9.083-60.34 0z" fill="#e79098"/><path d="m495.609 132.159-6.689 4.268c-75.47 48.149-172.016 48.149-247.486 0l-6.689-4.268c-25.92-16.537-37.519-46.895-31.58-75.181-4.004 3.677-7.65 7.87-10.821 12.535-22.705 33.408-13.326 78.97 20.727 100.695l6.689 4.268c75.47 48.149 172.016 48.149 247.486 0l6.689-4.268c16.935-10.804 27.769-27.512 31.588-45.68-3.029 2.773-6.33 5.345-9.914 7.631z" fill="#e17983"/></g><g><path d="m370.881 298.83c-18.236-4.946-37.675-3.2-54.737 4.918l-30.928 14.716c-17.124 8.148-36.771 8.149-53.896 0l-30.928-14.716c-17.062-8.118-36.5-9.864-54.737-4.918-18.235 4.947-34.128 16.277-44.748 31.905-12.13 17.849-16.415 39.319-12.064 60.457 4.352 21.137 16.767 39.17 34.96 50.777l6.688 4.268c29.951 19.108 64.413 31.424 99.661 35.617 9.235 1.099 18.545 1.644 27.866 1.644 25.82 0 51.698-4.188 76.084-12.401 3.925-1.322 6.035-5.576 4.713-9.501-1.322-3.926-5.581-6.037-9.501-4.713-31.094 10.473-64.771 13.958-97.39 10.077-33.021-3.928-65.306-15.466-93.365-33.368l-6.688-4.268c-14.746-9.408-24.81-24.024-28.336-41.156s-.054-34.534 9.778-49.001c8.608-12.667 21.488-21.85 36.269-25.859 14.782-4.009 30.536-2.593 44.365 3.986l30.928 14.716c21.221 10.096 45.563 10.097 66.787 0l30.928-14.716c13.828-6.58 29.584-7.996 44.365-3.986 14.78 4.009 27.66 13.193 36.269 25.859 9.832 14.467 13.305 31.869 9.778 49.001-3.526 17.132-13.59 31.748-28.336 41.156l-6.688 4.268c-6.307 4.023-12.937 7.791-19.706 11.198-3.699 1.862-5.189 6.371-3.327 10.071 1.861 3.701 6.37 5.189 10.071 3.328 7.221-3.634 14.296-7.655 21.03-11.951l6.688-4.268c18.193-11.607 30.608-29.64 34.96-50.777 4.351-21.137.065-42.608-12.064-60.457-10.621-15.628-26.513-26.959-44.749-31.906z"/><path d="m325.875 344.523-23.044 10.965c-13.834 6.583-29.243 10.062-44.563 10.062s-30.73-3.479-44.564-10.062l-24.043-11.44c-3.742-1.778-8.214-.19-9.995 3.55-1.779 3.74-.19 8.215 3.55 9.995l24.043 11.44c15.836 7.535 33.475 11.517 51.01 11.517s35.174-3.982 51.009-11.517l23.044-10.965c3.74-1.78 5.329-6.254 3.55-9.995-1.782-3.741-6.256-5.329-9.997-3.55z"/><path d="m500.86 65.745c-10.621-15.627-26.514-26.958-44.749-31.905-18.237-4.946-37.675-3.2-54.737 4.918l-30.928 14.716c-17.124 8.148-36.769 8.149-53.896 0l-30.928-14.716c-17.062-8.118-36.5-9.864-54.737-4.918-18.235 4.947-34.128 16.277-44.748 31.905-17.214 25.33-18.384 57.564-3.051 84.125 2.07 3.588 6.659 4.817 10.244 2.746 3.588-2.071 4.817-6.658 2.746-10.245-12.431-21.535-11.485-47.665 2.467-68.194 8.608-12.667 21.488-21.85 36.269-25.859 14.783-4.009 30.536-2.594 44.365 3.986l30.928 14.716c21.224 10.099 45.565 10.098 66.787 0l30.928-14.716c13.827-6.58 29.583-7.995 44.365-3.986 14.78 4.009 27.661 13.193 36.27 25.859 9.832 14.466 13.304 31.869 9.777 49-3.526 17.132-13.589 31.749-28.335 41.156l-6.689 4.268c-30.024 19.155-64.637 30.936-100.094 34.069-4.126.364-7.176 4.005-6.811 8.131.345 3.901 3.618 6.84 7.462 6.84.222 0 .444-.01.669-.03 37.848-3.344 74.793-15.918 106.842-36.365l6.689-4.268c18.192-11.607 30.608-29.64 34.959-50.777 4.35-21.136.066-42.607-12.064-60.456z"/><path d="m292.488 104.042c15.836 7.535 33.475 11.517 51.01 11.517s35.174-3.982 51.009-11.517l23.044-10.965c3.74-1.78 5.329-6.254 3.55-9.995-1.78-3.741-6.255-5.329-9.995-3.55l-23.044 10.965c-13.834 6.583-29.243 10.062-44.563 10.062s-30.73-3.479-44.564-10.062l-24.043-11.44c-3.741-1.778-8.214-.19-9.995 3.55-1.779 3.74-.19 8.215 3.55 9.995z"/><path d="m95.922 312.087c1.479-3.869-.457-8.205-4.326-9.685-14.03-5.365-27.562-12.182-40.222-20.258l-6.689-4.268c-14.746-9.408-24.81-24.024-28.336-41.156s-.054-34.534 9.778-49.001c8.608-12.666 21.488-21.85 36.269-25.859 14.781-4.01 30.537-2.594 44.365 3.986l30.928 14.715c21.223 10.098 45.564 10.098 66.787 0l30.928-14.715c13.828-6.58 29.583-7.996 44.365-3.986 14.78 4.009 27.66 13.193 36.269 25.859 9.832 14.466 13.305 31.868 9.778 49s-13.589 31.749-28.335 41.156c-3.491 2.228-4.517 6.865-2.289 10.356 2.229 3.493 6.866 4.516 10.357 2.289 18.192-11.607 30.608-29.64 34.959-50.777 4.351-21.138.065-42.608-12.064-60.457-10.621-15.627-26.513-26.958-44.748-31.904-18.236-4.946-37.676-3.199-54.737 4.918l-30.928 14.715c-17.125 8.148-36.771 8.148-53.896 0l-30.928-14.715c-17.062-8.118-36.5-9.864-54.737-4.918-18.235 4.947-34.128 16.277-44.748 31.905-12.13 17.849-16.415 39.319-12.064 60.456 4.351 21.138 16.767 39.171 34.96 50.778l6.689 4.268c13.513 8.621 27.957 15.896 42.933 21.624.881.337 1.786.497 2.677.497 3.017-.001 5.863-1.836 7.005-4.823z"/><path d="m238.69 193.075-23.044 10.964c-3.573 1.701-7.341 3.225-11.196 4.53-3.924 1.328-6.027 5.585-4.7 9.509 1.059 3.126 3.977 5.097 7.104 5.097.797 0 1.608-.128 2.405-.398 4.412-1.493 8.729-3.24 12.833-5.193l23.044-10.964c3.74-1.78 5.329-6.254 3.55-9.995-1.781-3.74-6.256-5.329-9.996-3.55z"/><path d="m171.082 214.101c-15.32 0-30.73-3.479-44.564-10.062l-24.043-11.44c-3.737-1.78-8.215-.19-9.995 3.55-1.779 3.74-.19 8.215 3.55 9.995l24.043 11.44c15.835 7.534 33.474 11.517 51.01 11.517 1.32 0 2.71-.029 4.375-.092 4.14-.155 7.369-3.637 7.214-7.776-.156-4.139-3.644-7.381-7.776-7.213-1.475.055-2.686.081-3.814.081z"/></g></g></svg>