<svg height="512pt" viewBox="-28 0 512 512" width="512pt" xmlns="http://www.w3.org/2000/svg"><path d="m365.917969 115.070312c.003906-.160156.007812-.324218.007812-.484374 0-59.140626-47.945312-107.085938-107.085937-107.085938-46.074219 0-85.351563 29.101562-100.457032 69.925781-6.304687-3.640625-13.613281-5.734375-21.414062-5.734375-23.6875 0-42.894531 19.203125-42.894531 42.894532 0 .066406.003906.132812.003906.199218-48.335937 3.105469-86.578125 43.285156-86.578125 92.402344 0 51.144531 41.457031 92.601562 92.039062 92.601562 34.398438 0 64.574219-19.179687 80.363282-47.539062 11.617187 13.722656 28.957031 22.441406 48.339844 22.441406 18.65625 0 35.417968-8.066406 47.007812-20.902344 16.097656 27.511719 46.050781 46 80.574219 46 51.703125 0 93.164062-41.457031 93.164062-92.601562 0-47.925781-36.40625-87.34375-83.070312-92.117188zm0 0" fill="#aae79a"/><path d="m336.78125 297.863281c-12.214844-2.503906-23.53125-7.375-33.460938-14.105469l-58.261718 58.261719v-69.589843c-5.355469 1.472656-10.992188 2.257812-16.816406 2.257812-5.828126 0-11.460938-.800781-16.816407-2.273438v69.605469l-59.078125-59.078125c-9.765625 6.917969-20.910156 11.964844-32.921875 14.648438l65.234375 65.234375-6.671875 131.945312c3.652344 3.839844 5.601563 5.886719 9.25 9.730469h82.003907c3.652343-3.84375 5.601562-5.890625 9.25-9.730469l-6.671876-131.945312zm0 0" fill="#e2fc85"/><path d="m37.5 207.1875c0-49.117188 38.246094-89.296875 86.578125-92.402344 0-.066406-.003906-.132812-.003906-.199218 0-18.398438 11.585937-34.085938 27.859375-40.179688-4.660156-1.738281-9.695313-2.714844-14.964844-2.714844-23.691406 0-42.894531 19.203125-42.894531 42.894532 0 .066406.003906.132812.003906.199218-48.335937 3.105469-86.582031 43.285156-86.582031 92.402344 0 51.140625 41.460937 92.601562 92.039062 92.601562 5.105469 0 10.109375-.433593 14.992188-1.242187-43.519532-7.238281-77.027344-45.382813-77.027344-91.359375zm0 0" fill="#39c17b"/><path d="m166.96875 71.691406c7.800781 0 15.109375 2.09375 21.414062 5.730469 13.441407-36.324219 46.023438-63.347656 85.5-68.867187-4.917968-.691407-9.9375-1.054688-15.042968-1.054688-44.074219 0-81.910156 26.632812-98.335938 64.675781 2.109375-.316406 4.265625-.484375 6.464844-.484375zm0 0" fill="#39c17b"/><path d="m214.664062 362.824219-65.234374-65.234375c4.617187-1.03125 9.105468-2.417969 13.441406-4.125l-10.523438-10.519532c-9.761718 6.914063-20.910156 11.964844-32.917968 14.644532l65.234374 65.234375-6.675781 131.941406c3.652344 3.84375 5.601563 5.890625 9.253907 9.734375h30c-3.652344-3.84375-5.601563-5.894531-9.253907-9.734375zm0 0" fill="#6ad34d"/><path d="m248.824219 482h-15v-15h15zm-25 0h-15v-15h15zm0 0" fill="#fff"/><path d="m430.503906 139.90625c-15.140625-16.667969-35.265625-27.664062-57.238281-31.398438-3.171875-60.367187-53.285156-108.507812-114.425781-108.507812-45.011719 0-85.992188 26.742188-104.40625 67.316406-5.566406-2.058594-11.488282-3.125-17.464844-3.125-25.535156 0-46.695312 19.09375-49.957031 43.75-49.296875 6.449219-87.011719 48.828125-87.011719 99.246094 0 55.195312 44.652344 100.101562 99.539062 100.101562 32.667969 0 63.140626-16.246093 81.679688-42.980468 26.292969 23.386718 65.765625 23.886718 92.703125 1.171875 36.210937 50.210937 109.289063 56.195312 153.167969 12.5 38.539062-38.382813 38.683594-99.242188 3.414062-138.074219zm-74.679687 152.382812c-30.445313 0-58.839844-16.203124-74.101563-42.285156l-5.171875-8.84375-6.867187 7.601563c-22.457032 24.867187-62 24.699219-84.058594-1.359375l-7.003906-8.269532-5.273438 9.46875c-15.003906 26.949219-43.285156 43.6875-73.8125 43.6875-46.613281 0-84.539062-38.175781-84.539062-85.101562 0-44.75 34.949218-82.050781 79.5625-84.917969l7.019531-.449219v-7.035156c0-20.128906 16.203125-35.59375 35.390625-35.59375 6.199219 0 12.304688 1.636719 17.664062 4.730469l7.695313 4.445313 3.085937-8.339844c14.394532-38.894532 51.9375-65.027344 93.425782-65.027344 54.914062 0 99.585937 44.675781 99.585937 99.585938l-.027343 7.257812 6.757812.6875c43.515625 4.453125 76.332031 40.84375 76.332031 84.65625 0 46.921875-38.429687 85.101562-85.664062 85.101562zm0 0"/><path d="m258.839844 30v15c38.316406 0 69.53125 31.175781 69.585937 69.492188l15-.023438c-.066406-46.574219-38.011719-84.46875-84.585937-84.46875zm0 0"/><path d="m218.925781 300.621094h-15v23.292968l-26.613281-26.613281-10.609375 10.605469 52.222656 52.21875zm0 0"/><path d="m237.5625 300.605469v59.519531l51.394531-51.394531-10.605469-10.609375-25.789062 25.792968v-23.308593zm0 0"/><path d="m309.3125 314.730469-45.148438 45.148437 6.679688 132.054688-4.816406 5.066406h-75.566406l-4.820313-5.066406 6.679687-132.054688-45.566406-45.566406-10.605468 10.605469 40.855468 40.855469-6.667968 131.832031 13.6875 14.394531h88.441406l13.683594-14.394531-6.667969-131.832031 40.4375-40.433594zm0 0"/></svg>