<svg height="512pt" viewBox="0 -24 512.00014 512" width="512pt" xmlns="http://www.w3.org/2000/svg"><path d="m458.589844 413.511719c7.867187-.46875 15.65625-2.832031 22.738281-7.304688 22.050781-13.925781 29.253906-44.113281 16.410156-68.792969-2.496093-4.792968-5.554687-9.0625-9.039062-12.78125-2.242188-2.394531-2.191407-6.148437.117187-8.214843 16.808594-15.035157 20.863282-41.332031 8.410156-62.902344-12.457031-21.570313-37.253906-31.207031-58.683593-24.167969-2.941407.964844-6.21875-.867187-7.171875-4.007812-1.476563-4.875-3.644532-9.660156-6.546875-14.21875-14.953125-23.460938-44.695313-32.320313-67.78125-20.183594-7.414063 3.894531-13.355469 9.460938-17.695313 16.039062-1.339844 2.027344-3.867187 2.800782-6.203125 1.945313-12.328125-4.527344-26.222656-3.519531-37.726562 4.242187-17.734375 11.960938-23.371094 36.625-13.039063 56.964844 5.042969 9.917969 12.914063 17.273438 21.921875 21.554688 6.726563 3.199218 9.753907 11.515625 6.183594 17.820312-8.476563 14.964844-8.757813 34.558594.910156 51.300782 9.667969 16.746093 26.777344 26.300781 43.972657 26.441406 7.25.0625 12.9375 6.839844 12.34375 14.265625-.796876 9.941406 1.636718 20.4375 7.707031 29.761719 12.445312 19.117187 36.625 26.566406 55.851562 17.191406 12.472657-6.082032 20.292969-17.613282 22.535157-30.550782.425781-2.457031 2.359374-4.257812 4.785156-4.402343zm0 0" fill="#7fcd91"/><path d="m488.699219 324.632812c-2.242188-2.394531-2.191407-6.152343.117187-8.214843 16.808594-15.039063 20.863282-41.332031 8.410156-62.902344-9.742187-16.875-27.039062-26.441406-44.367187-26.441406 1.582031 2.011719 3.046875 4.152343 4.367187 6.441406 12.453126 21.570313 8.398438 47.863281-8.410156 62.902344-2.308594 2.0625-2.359375 5.820312-.113281 8.214843 3.480469 3.71875 6.542969 7.988282 9.035156 12.78125 12.84375 24.679688 5.644531 54.867188-16.410156 68.792969-7.078125 4.472657-14.871094 6.835938-22.738281 7.304688-2.421875.144531-4.359375 1.949219-4.785156 4.402343-2.242188 12.9375-10.0625 24.464844-22.535157 30.546876-4.800781 2.34375-9.910156 3.632812-15.070312 3.957031 12.652343 18.261719 36.234375 25.230469 55.070312 16.042969 12.46875-6.082032 20.289063-17.613282 22.535157-30.550782.425781-2.453125 2.359374-4.253906 4.785156-4.398437 7.867187-.46875 15.65625-2.832031 22.738281-7.304688 22.050781-13.925781 29.253906-44.113281 16.410156-68.792969-2.496093-4.792968-5.554687-9.0625-9.039062-12.78125zm0 0" fill="#52b96a"/><path d="m367.707031 401.511719c.59375-7.425781-5.09375-14.207031-12.339843-14.265625-.058594 0-.117188-.003906-.175782-.003906l-55.984375 6.195312c-3.632812.402344-5.527343-4.203125-2.660156-6.476562l21.46875-17.011719c-2.460937-2.75-4.695313-5.800781-6.625-9.144531s-3.457031-6.800782-4.605469-10.308594l-25.46875 10.085937c-3.398437 1.347657-6.441406-2.59375-4.277344-5.542969l33.359376-45.386718c.03125-.050782.054687-.101563.082031-.148438 3.574219-6.308594.542969-14.625-6.183594-17.824218-3.707031-1.761719-7.222656-4.054688-10.429687-6.828126l-16.351563 26.148438c-18.714844 29.921875-44.484375 54.792969-75.050781 72.441406l-18.386719 10.617188c-5.011719 2.894531-6.730469 9.300781-3.835937 14.3125l24.382812 42.230468c2.890625 5.011719 9.300781 6.726563 14.3125 3.835938l18.386719-10.617188c30.566406-17.648437 64.992187-27.527343 100.261719-28.773437l30.820312-1.089844c-.796875-4.160156-1.027344-8.351562-.699219-12.445312zm0 0" fill="#aedb81"/><path d="m367.707031 401.511719c.59375-7.425781-5.09375-14.207031-12.339843-14.265625-.058594 0-.117188-.003906-.171876-.003906l-27.328124 3.023437c.136718 1.230469.304687 2.464844.542968 3.691406l-30.820312 1.089844c-35.269532 1.246094-69.695313 11.125-100.261719 28.773437l-6.121094 3.535157 13.417969 23.246093c2.894531 5.011719 9.304688 6.726563 14.316406 3.835938l18.386719-10.617188c30.5625-17.648437 64.992187-27.527343 100.261719-28.773437l30.816406-1.089844c-.796875-4.160156-1.027344-8.351562-.699219-12.445312zm0 0" fill="#8ecb51"/><path d="m204.625 450.601562-24.382812-42.230468c-2.894532-5.011719-1.175782-11.421875 3.835937-14.3125l18.386719-10.617188c9.605468-5.546875 18.734375-11.804687 27.320312-18.710937 5.105469-27.222657 14.3125-53.621094 27.402344-78.257813l18.425781-34.6875c-5.101562-1.773437-9.867187-4.1875-14.175781-7.160156-7.8125-5.382812-18.914062-3.425781-23.597656 4.53125-.035156.066406-.078125.125-.113282.1875l-28.820312 65.703125c-1.871094 4.265625-8.160156 3.421875-8.835938-1.1875l-5.09375-34.519531c-4.605468.96875-9.390624 1.484375-14.308593 1.484375-4.914063 0-9.703125-.519531-14.304688-1.484375l-5.09375 34.519531c-.679687 4.609375-6.964843 5.453125-8.835937 1.1875l-28.824219-65.707031c-.035156-.058594-.074219-.121094-.113281-.183594-4.679688-7.957031-15.785156-9.914062-23.59375-4.53125-4.308594 2.972656-9.078125 5.386719-14.175782 7.160156l18.425782 34.691406c21.085937 39.699219 32.113281 83.964844 32.113281 128.917969v27.046875c0 7.371094 5.976563 13.347656 13.347656 13.347656h62.109375c.238282 0 .472656-.023437.707032-.039062-3.152344-.386719-6.09375-2.1875-7.804688-5.148438zm0 0" fill="#aedb81"/><path d="m295.417969 213.160156c11.503906-7.757812 25.398437-8.765625 37.722656-4.242187 2.335937.859375 4.867187.082031 6.203125-1.945313 3.570312-5.410156 8.246094-10.121094 13.910156-13.796875-1.945312-13.089843-8.847656-24.695312-18.890625-33.078125-2.4375-2.03125-3.191406-5.3125-1.808593-8.078125 4.492187-8.976562 6.847656-19.078125 6.425781-29.734375-1.320313-33.199218-30.03125-60.367187-65.433594-61.914062-6.878906-.304688-13.539063.351562-19.855469 1.828125-4.074218.949219-8.183594-1.5-8.992187-5.359375-5.882813-28.121094-32.304688-49.339844-64.03125-49.339844-31.726563 0-58.148438 21.21875-64.03125 49.339844-.808594 3.859375-4.917969 6.308594-8.988281 5.359375-6.316407-1.472657-12.980469-2.132813-19.855469-1.828125-35.40625 1.546875-64.117188 28.714844-65.433594 61.914062-.421875 10.65625 1.929687 20.757813 6.421875 29.734375 1.382812 2.765625.628906 6.046875-1.804688 8.078125-12.84375 10.714844-20.582031 26.6875-19.347656 44.316406 1.902344 27.179688 25.519532 49.113282 54.535156 50.664063 14.152344.757813 27.28125-3.246094 37.738282-10.453125 7.808594-5.382812 18.914062-3.425781 23.59375 4.53125 11.109375 18.878906 32.542968 31.667969 57.171875 31.667969 24.632812 0 46.0625-12.789063 57.171875-31.667969 4.683594-7.957031 15.785156-9.914062 23.597656-4.53125 4.796875 3.308594 10.164062 5.929688 15.929688 7.738281-1.207032-15.414062 5.289062-30.597656 18.050781-39.203125zm0 0" fill="#7fcd91"/><path d="m295.417969 213.160156c11.503906-7.757812 25.398437-8.765625 37.722656-4.242187 2.335937.859375 4.867187.082031 6.203125-1.945313 3.570312-5.410156 8.246094-10.121094 13.910156-13.796875-1.945312-13.089843-8.847656-24.695312-18.890625-33.078125-2.4375-2.03125-3.191406-5.3125-1.808593-8.078125 4.492187-8.976562 6.847656-19.078125 6.425781-29.734375-1.320313-33.199218-30.03125-60.367187-65.433594-61.914062-6.878906-.304688-13.539063.351562-19.855469 1.828125-4.074218.949219-8.183594-1.5-8.992187-5.359375-5.882813-28.121094-32.304688-49.339844-64.03125-49.339844-31.726563 0-58.148438 21.21875-64.03125 49.339844-.808594 3.859375-4.917969 6.308594-8.988281 5.359375-6.316407-1.472657-12.980469-2.132813-19.855469-1.828125-35.40625 1.546875-64.117188 28.714844-65.433594 61.914062-.421875 10.65625 1.929687 20.757813 6.421875 29.734375 1.382812 2.765625.628906 6.046875-1.804688 8.078125-12.84375 10.714844-20.582031 26.6875-19.347656 44.316406 1.902344 27.179688 25.519532 49.113282 54.535156 50.664063 14.152344.757813 27.28125-3.246094 37.738282-10.453125 7.808594-5.382812 18.914062-3.425781 23.59375 4.53125 11.109375 18.878906 32.542968 31.667969 57.171875 31.667969 24.632812 0 46.0625-12.789063 57.171875-31.667969 4.683594-7.957031 15.785156-9.914062 23.597656-4.53125 4.796875 3.308594 10.164062 5.929688 15.929688 7.738281-1.207032-15.414062 5.289062-30.597656 18.050781-39.203125zm0 0" fill="#7fcd91"/><path d="m204.625 450.601562-19.550781-33.863281v5.703125c0 7.371094-5.976563 13.347656-13.347657 13.347656h-35.460937v6.652344c0 7.371094 5.976563 13.34375 13.347656 13.34375h62.109375c.238282 0 .472656-.019531.707032-.035156-3.152344-.386719-6.09375-2.1875-7.804688-5.148438zm0 0" fill="#8ecb51"/><path d="m261.4375 244.625c-7.8125-5.382812-18.914062-3.425781-23.597656 4.53125-.035156.0625-.074219.125-.113282.1875l-28.820312 65.703125c-1.871094 4.265625-8.15625 3.421875-8.835938-1.1875l-.824218-5.570313c-9.152344 27.386719-13.957032 56.128907-14.15625 85.1875l17.378906-10.035156c9.601562-5.546875 18.730469-11.804687 27.316406-18.710937 5.109375-27.222657 14.316406-53.621094 27.402344-78.257813l18.425781-34.6875c-5.101562-1.777344-9.867187-4.1875-14.175781-7.160156zm0 0" fill="#8ecb51"/><path d="m281.503906 229.503906c-6.8125 3.179688-14.363281 5.148438-22.328125 5.574219-14.152343.757813-27.28125-3.242187-37.738281-10.453125-7.808594-5.382812-18.914062-3.425781-23.59375 4.53125-11.109375 18.878906-32.542969 31.667969-57.171875 31.667969-2.980469 0-5.910156-.191407-8.78125-.554688 11.949219 12.609375 29.371094 20.554688 48.78125 20.554688 24.628906 0 46.0625-12.789063 57.167969-31.667969 4.683594-7.957031 15.785156-9.914062 23.597656-4.53125 4.800781 3.308594 10.164062 5.929688 15.929688 7.738281-.625-7.980469.832031-15.886719 4.136718-22.859375zm0 0" fill="#52b96a"/><path d="m334.363281 160.097656c-2.4375-2.027344-3.191406-5.3125-1.804687-8.078125 4.488281-8.976562 6.847656-19.078125 6.421875-29.734375-1.230469-30.945312-26.265625-56.644531-58.335938-61.242187 10.84375 10.964843 17.707031 25.414062 18.335938 41.242187.425781 10.660156-1.929688 20.757813-6.421875 29.734375-1.382813 2.765625-.628906 6.050781 1.804687 8.082031 12.84375 10.710938 20.582031 26.683594 19.347657 44.3125-.601563 8.578126-3.367188 16.632813-7.78125 23.6875 8.917968-2.800781 18.460937-2.398437 27.210937.816407 2.335937.859375 4.867187.082031 6.203125-1.945313 3.570312-5.410156 8.246094-10.121094 13.910156-13.796875-1.945312-13.089843-8.847656-24.695312-18.890625-33.078125zm0 0" fill="#52b96a"/><path d="m495.246094 320.679688c15.390625-14.820313 20.761718-37.882813 13.667968-59.339844-1.300781-3.929688-5.542968-6.066406-9.476562-4.765625s-6.066406 5.542969-4.769531 9.476562c5.4375 16.4375 1.175781 34.015625-10.855469 44.777344-5.523438 4.941406-5.636719 13.542969-.585938 18.933594 20.382813 21.757812 16.6875 55.839843-5.902343 70.105469-5.820313 3.671874-12.273438 5.746093-19.183594 6.160156-5.882813.351562-10.703125 4.710937-11.726563 10.605468-1.9375 11.175782-8.65625 20.320313-18.433593 25.089844-15.933594 7.765625-35.828125 1.515625-46.28125-14.542968-2.890625-4.441407-4.855469-9.238282-5.859375-14.199219-.039063-.300781-.097656-.59375-.171875-.878907-.585938-3.28125-.753907-6.628906-.484375-9.992187.886718-11.074219-7.257813-22.03125-19.820313-22.367187-15.125-.148438-29.480469-8.835938-37.476562-22.6875-8.003907-13.863282-8.34375-30.65625-.894531-43.832032l.039062-.066406c5.757812-10.320312.953125-23.273438-9.515625-28.25-3.042969-1.449219-5.855469-3.265625-8.402344-5.410156-.210937-.210938-.441406-.40625-.683593-.59375-3.792969-3.351563-6.964844-7.453125-9.367188-12.175782-4.082031-8.03125-4.167969-14.742187-4.296875-15.550781-1.730469-26.042969 21.878906-43.996093 45.789063-35.21875 5.613281 2.058594 11.800781.066407 15.046874-4.855469 3.070313-4.648437 6.9375-8.492187 11.503907-11.492187.152343-.089844 1.644531-1.101563 3.421875-2.035156 23.65625-12.433594 55.011718 1.410156 63.664062 29.9375 2.144532 7.066406 9.644532 11.269531 16.691406 8.957031 11.636719-3.820312 24.539063-1.875 35.398438 5.335938 3.449219 2.289062 8.105469 1.351562 10.398438-2.097657 2.289062-3.453125 1.351562-8.105469-2.101563-10.398437-14.144531-9.394532-30.988281-12.144532-46.511719-7.664063-11.539062-34.894531-49.175781-52.046875-79.796875-39.539062-3.503906-10.484375-9.921875-19.972657-18.675781-27.40625 5.015625-10.292969 7.332031-21.296875 6.875-32.714844-1.773438-44.648437-47.125-78.132813-94.484375-67.09375-.011719.003906-.019531.003906-.03125.007813-6.871094-31.835938-36.777344-54.898438-71.285156-54.898438-34.507813 0-64.417969 23.0625-71.289063 54.898438-.007812-.003907-.019531-.003907-.03125-.007813-16.730468-3.898437-35.050781-2.492187-51.730468 5.261719-3.753907 1.746094-5.382813 6.207031-3.636719 9.964844 1.746093 3.753906 6.203125 5.382812 9.960937 3.636718 13.527344-6.289062 28.4375-7.414062 42-4.25 8 1.863282 16.332032-2.976562 18.035156-11.125 5.257813-25.132812 29.101563-43.375 56.691407-43.375 27.59375 0 51.433593 18.242188 56.691406 43.375 1.710937 8.167969 10.058594 12.984375 18.035156 11.125 38.238281-8.921875 74.6875 17.800782 76.089844 53.078125.363281 9.109375-1.535156 17.882813-5.636719 26.082031-2.929687 5.859376-1.40625 12.929688 3.707032 17.195313 7.671874 6.398437 13.027343 14.8125 15.386718 24.035156-4.109375 3.25-7.734375 7.0625-10.816406 11.425781-29.574219-9.808593-59.566406 8.925782-63.925781 39.894532-1.550781-.847656-3.058594-1.765625-4.503907-2.761719-10.925781-7.53125-26.550781-5.183594-33.835937 6.171875-.320313.433594-.636719.988281-.578125.886719-10.179688 17.160156-29.550781 27.8125-50.609375 27.8125-21.054687 0-40.425781-10.644531-50.605469-27.796875-.191406-.316406-.308594-.515625-.539062-.832032-7.261719-11.410156-22.925782-13.792968-33.882813-6.242187-9.179687 6.328125-20.601562 9.808594-33.082031 9.136719-25.402344-1.359375-45.804688-20.144532-47.449219-43.695313-1.015625-14.488281 5.0625-28.351562 16.667969-38.035156 5.113281-4.265625 6.640625-11.335937 3.707031-17.195313-8.761719-17.515624-7.480469-38.308593 4.421875-55.066406 2.398438-3.378906 1.605469-8.058594-1.773437-10.457031-3.378907-2.398437-8.058594-1.605469-10.457031 1.769531-14.824219 20.875-16.921876 47.246094-5.9375 69.792969-15.070313 12.792969-22.9375 31.070313-21.59375 50.238281 2.679687 38.289063 41.679687 65.523438 81.8125 55.738282l15.570312 29.3125c20.433594 38.476562 31.234375 81.839843 31.234375 125.402343v27.046875c0 11.496094 9.355469 20.847656 20.847656 20.847656h9.226563c4.140625 0 7.5-3.359374 7.5-7.5 0-4.140624-3.359375-7.5-7.5-7.5h-9.226563c-3.222656 0-5.847656-2.625-5.847656-5.847656v-27.046875c0-46.007812-11.40625-91.804687-32.988281-132.4375l-14.59375-27.472656c2.765625-1.375 5.433594-2.933594 7.976562-4.683594 4.121094-2.84375 10.253906-2.097656 12.796875 2.046875l28.609375 65.214844c1.96875 4.488281 6.289063 7.265625 11.066406 7.265625 6.09375 0 11.167969-4.335937 12.058594-10.371094l3.988282-27.054687c5.394531.5625 10.578124.5625 15.980468 0l3.988282 27.050781c.890624 6.03125 5.957031 10.375 12.058593 10.375 4.78125 0 9.097657-2.777344 11.070313-7.269531l28.601562-65.207032c2.546875-4.152343 8.679688-4.890624 12.804688-2.050781 2.535156 1.75 5.203125 3.3125 7.96875 4.691407l-14.585938 27.464843c-12.957031 24.390625-22.226562 50.472657-27.59375 77.5625-7.683594 6.027344-15.78125 11.535157-24.253906 16.425781l-18.390625 10.617188c-8.601563 4.96875-11.546875 15.953125-6.578125 24.558594l20.878906 36.167968h-.792968c-4.140626 0-7.5 3.359376-7.5 7.5 0 4.140626 3.359374 7.5 7.5 7.5 20.265624 0 17.652343.007813 18.324218-.015624 3.777344.332031 7.378906-.523438 10.527344-2.339844l18.390625-10.617188c29.390625-16.96875 62.855469-26.574218 96.773437-27.773437l24.808594-.875c7.269532 22.933593 28.121094 38.371093 50.839844 38.371093 22.109375 0 42.417969-15.128906 47.378906-39.179687 8.773438-.804687 16.992188-3.597656 24.453125-8.308594 30.074219-18.996093 35.492188-63.164062 9.914063-91.871093zm-339.945313-17.757813-10.269531-23.421875c4.105469 2.179688 8.433594 3.984375 12.933594 5.378906zm50.734375 0-2.660156-18.042969c4.496094-1.394531 8.828125-3.199218 12.933594-5.378906zm90.972656 37.613281c.199219 1.816406.484376 3.628906.851563 5.429688l-6.828125 2.703125zm20.46875 39.410156c1.378907 1.21875 2.804688 2.371094 4.277344 3.453126l-10.03125 1.109374zm-53.667968-89.953124 10.417968-19.613282c2.496094 5.761719 5.828126 10.933594 10.09375 15.597656l-13.164062 21.046876c-8.164062 13.054687-17.796875 25.148437-28.609375 36.066406 5.164063-18.390625 12.273437-36.175782 21.261719-53.097656zm73.515625 117.558593c-36.363281 1.285157-72.238281 11.582031-103.746094 29.773438l-18.390625 10.617187c-.59375.34375-1.171875.417969-1.625.394532-.097656-.015626-.199219-.019532-.296875-.03125-.890625-.132813-1.675781-.644532-2.148437-1.453126l-24.378907-42.230468c-.824219-1.421875-.335937-3.246094 1.089844-4.070313l18.386719-10.613281c9.75-5.628906 19.050781-12.003906 27.820312-19.027344.320313-.21875.617188-.464844.898438-.730468 19.199218-15.539063 35.820312-34.226563 48.9375-55.203126l12.085937-19.324218c1.65625 1.023437 3.363281 1.96875 5.121094 2.800781 2.953125 1.40625 4.136719 4.894531 2.941406 7.214844l-33.023437 44.929687c-5.53125 7.523438.078125 17.757813 8.929687 17.757813 1.386719 0 2.789063-.261719 4.148438-.800781l18.546875-7.34375c1.457031 3.066406 2.972656 5.6875 4.898437 8.488281l-15.632812 12.386719c-3.933594 3.117187-5.292969 8.328124-3.386719 12.96875 1.898438 4.617187 6.511719 7.390624 11.53125 6.835937l55.425781-6.132813c2.625.125 5.03125 2.929688 4.773438 6.15625-.15625 1.9375-.191407 3.886719-.132813 5.832032zm0 0"/></svg>