<svg height="512pt" viewBox="0 0 512.00009 512" width="512pt" xmlns="http://www.w3.org/2000/svg"><path d="m406.125 220.890625c-17.117188 3.339844-33.5625 4.882813-48.3125 4.8125-5.078125-13.679687-13.160156-26.5625-24.363281-37.683594l-11.089844-11c-10.671875-10.601562-22.933594-18.359375-35.933594-23.359375-.027343-14.601562 1.519531-30.851562 4.808594-47.753906 11.0625-56.789062 37.640625-99.402344 59.363281-95.160156 18.125 3.539062 27.148438 38.558594 23.210938 83.050781 4.027344-4.421875 8.253906-8.871094 12.671875-13.289063 43.585937-43.621093 89.082031-68.804687 101.621093-56.242187 12.550782 12.550781-12.609374 58.089844-56.195312 101.703125-4.246094 4.25-8.503906 8.308594-12.75 12.1875 44.015625-3.71875 78.546875 5.3125 82.054688 23.320312 4.238281 21.742188-38.339844 48.34375-95.085938 59.414063-17.117188 3.339844 56.746094-11.070313 0 0zm0 0" fill="#78d0a9"/><path d="m315.453125 350.765625-228.121094 143.433594c-45.355469 28.511719-98.003906-24-69.675781-69.480469l142.507812-228.789062c27.507813-44.171876 81.296876-59.628907 126.261719-42.269532 13 5 25.261719 12.761719 35.933594 23.359375l11.089844 11.003907c11.203125 11.117187 19.289062 24 24.363281 37.679687 16.605469 44.628906 1.230469 97.660156-42.359375 125.0625zm0 0" fill="#ff925b"/><path d="m511.019531 159.574219c-5.292969-27.289063-44.609375-31.476563-66.539062-32.160157 16.867187-17.542968 83.109375-87.566406 48.132812-112.363281-14.328125-10.15625-35.351562.292969-48.503906 7.507813-21.921875 12.023437-41.535156 28.421875-59.449219 45.726562-.777344-29.011718-16.910156-90.804687-57.644531-59.800781-36.035156 27.425781-47.796875 89.632813-50.207031 131.644531-19.441406-4.90625-40.082032-4.542968-59.359375.964844-9.515625 2.722656-18.6875 6.679688-27.191407 11.738281-7.148437 4.253907-13.328124 11.96875-20.484374 15.550781-6.882813 6.71875-13 14.085938-18.09375 22.261719l-142.511719 228.792969c-33.136719 53.183594 30.246093 116.710938 83.480469 83.222656l149.371093-93.917968 1.5-.941407 77.253907-48.574219c41.222656-25.914062 61.734374-76.503906 50.402343-123.878906 32.117188-1.695312 64.96875-9.078125 94.148438-22.78125 19.183593-9.007812 50.734375-27.171875 45.695312-52.992187-1.71875-8.867188 2.898438 14.855469 0 0-5.292969-27.289063 2.898438 14.855469 0 0zm-161.328125 132.035156c-6.808594 21-20.875 38.945313-39.554687 50.695313l-71.257813 44.792968-37.957031-37.957031c-9.125-9.101563-23.265625 5.027344-14.136719 14.136719l34.742188 34.738281-139.515625 87.71875c-35.660157 22.421875-78.144531-19.960937-55.871094-55.730469l18.152344-29.140625 26.601562 26.550781c9.117188 9.117188 23.242188-5.03125 14.125-14.144531l-29.878906-29.820312 113.511719-182.238281c2.351562-3.769532 4.929687-7.316407 7.71875-10.648438l56.261718 56.261719c9.140626 9.09375 23.261719-5.015625 14.144532-14.132813l-56.03125-56.03125c37.0625-28.878906 91.242187-25.632812 124.578125 7.457032l11.085937 10.996093c25.144532 24.964844 34.210938 62.78125 23.28125 96.496094-3.4375 10.605469 6.597656-20.351563 0 0-6.804687 21 6.597656-20.351563 0 0zm121.550782-104.90625c-30.96875 19.359375-70.601563 27.867187-106.746094 28.921875-1.984375-4.570312-4.289063-9.152344-7.027344-13.324219-.289062-.480469-.578125-.960937-.878906-1.421875-2.097656-3.59375-4.570313-6.773437-7.15625-10.003906-.316406-.398438-.636719-.792969-.960938-1.179688-.429687-.511718-.847656-1.03125-1.289062-1.539062-.210938-.261719-.441406-.523438-.671875-.78125-.007813-.011719-.007813-.011719-.019531-.019531-.519532-.671875-1.078126-1.304688-1.679688-1.898438-4.910156-5.378906-10.246094-10.398437-15.414062-15.527343-1.449219-1.296876-2.863282-2.632813-4.238282-4.007813-.128906-.121094-.257812-.238281-.398437-.351563-4.140625-3.800781-9.679688-6.507812-13.585938-10.414062-2.414062-1.570312-4.878906-3.050781-7.398437-4.4375l-.390625-.210938c-1.289063-.707031-2.597657-1.382812-3.917969-2.03125-.953125-.507812-1.960938-.964843-2.949219-1.410156 1.089844-34.949218 9.144531-72.628906 26.917969-103.074218 4.035156-6.902344 14.628906-25.554688 25.246094-23.433594 12.015625 2.40625 14.300781 27.371094 15.230468 36.53125.867188 8.523437.984376 17.121094.609376 25.679687-.304688 6.890625-2.816407 16.667969 5.273437 20.183594 11.46875 4.984375 32.523437-24.085937 40.429687-31.074219 12.835938-11.355468 26.511719-22.125 41.433594-30.625 5.863282-3.34375 21.832032-13.796875 29.359375-9.90625 2.527344 4.886719-2.601562 14.601563-4.429687 18.746094-5.609375 12.714844-13.800782 24.441406-22.242188 35.417969-9.492187 12.34375-19.964844 23.945312-31.027344 34.890625-6.449218 6.378906-24.089843 21.765625-6.441406 27.492187 5.84375 1.894531 14.292969-.542969 20.445313-.578125 6.269531-.039062 12.554687.183594 18.792969.871094 8.878906.976562 18.546874 2.523438 26.535156 6.78125 18.511718 9.871094.429687 24.335938-11.410156 31.734375-8.476563 5.300781 16.253906-10.15625 0 0-30.96875 19.359375 16.253906-10.15625 0 0zm0 0"/><path d="m264.464844 274.492188c-5.519532 0-10-4.472657-10-9.996094 0-5.519532 4.46875-9.996094 9.988281-9.996094h.011719c5.519531 0 9.996094 4.476562 9.996094 9.996094 0 5.523437-4.476563 9.996094-9.996094 9.996094zm0 0"/></svg>