<svg id="Capa_1" enable-background="new 0 0 512.009 512.009" height="512" viewBox="0 0 512.009 512.009" width="512" xmlns="http://www.w3.org/2000/svg"><g><g><g><g><path d="m130.894 97.337c20.337-26.177 27.448-59.052 22.216-89.818-31.703-.525-63.31 13.605-84.827 41.3-18.943 24.383-26.412 54.577-23.118 83.465.42 3.684 3.596 6.429 7.3 6.26 29.514-1.345 58.36-15.376 78.429-41.207z" fill="#bbf49b"/><path d="m153.11 7.519c-9.921-.164-19.833 1.107-29.428 3.78 4.051 29.661-3.281 60.93-22.787 86.038-14.686 18.903-34.074 31.478-54.984 37.395 1.225 2.378 3.735 3.941 6.554 3.812 29.515-1.346 58.361-15.376 78.429-41.207 20.337-26.177 27.448-59.052 22.216-89.818z" fill="#9be69d"/></g></g><g><path d="m125.158 504.017c-30.31 2.733-57.502-6.105-81.552-24.183-46.783-35.165-43.796-109.071-15.508-154.619 7.95-12.801 19.951-25.774 35.972-26.713 17.1-1.002 32.304 10.501 49.565 9.034 16.642-1.414 30.11-14.104 47.432-12.078 16.638 1.946 30.527 14.232 40.14 27.188 27.684 37.314 35.286 93.194 8.879 133.233-18.731 28.399-51.505 45.125-84.928 48.138z" fill="#ff646f"/><g><path d="m201.207 322.647c-9.613-12.956-23.501-25.242-40.14-27.188-6.798-.795-13.002.68-19.038 2.846 11.802 4.759 21.763 14.349 29.177 24.342 27.684 37.314 35.287 93.194 8.879 133.233-17.901 27.142-48.633 43.612-80.497 47.647 8.261 1.096 16.784 1.282 25.57.49 33.423-3.013 66.197-19.739 84.927-48.137 26.408-40.039 18.806-95.919-8.878-133.233z" fill="#fb4455"/></g></g><g><path d="m450.337 436.193c-25.725 16.261-53.953 20.804-83.602 15.691-57.674-9.945-88.738-77.073-84.349-130.51 1.234-15.018 5.994-32.038 19.821-40.183 14.759-8.694 33.536-5.396 48.227-14.576 14.163-8.852 20.358-26.289 36.696-32.389 15.693-5.86 33.658-1.264 48.123 5.879 41.66 20.572 73.921 66.827 68.691 114.505-3.708 33.814-25.241 63.651-53.607 81.583z" fill="#ff646f"/><path d="m435.254 240.103c-14.045-6.936-31.39-11.468-46.751-6.361 5.858 1.543 11.533 3.784 16.751 6.361 41.66 20.572 73.921 66.827 68.691 114.505-3.709 33.816-25.242 63.653-53.608 81.585-14.661 9.268-30.137 14.724-46.224 16.761 26.955 3.199 52.642-1.854 76.224-16.761 28.366-17.931 49.899-47.768 53.608-81.585 5.231-47.678-27.031-93.933-68.691-114.505z" fill="#fb4455"/></g></g><path d="m493.535 283.202c-13.314-21.203-32.833-38.897-54.96-49.824-13.871-6.849-34.511-13.482-54.068-6.18-11.05 4.126-18.1 12.428-24.319 19.752-2.073 2.441-4.094 4.812-6.193 6.982-9.326-37.185-23.896-72.586-43.553-105.698-46.199-77.795-109.064-123.036-153.666-147.288-2.282-.869-1.555-.922-5.388-.941-27.594 0-54.13 10.256-74.906 28.995-3.075 2.774-3.32 7.517-.546 10.592 2.774 3.077 7.517 3.321 10.593.546 14.376-12.967 31.922-21.229 50.56-24.042l-45.051 58.793c-2.52 3.288-1.896 7.995 1.392 10.515 3.264 2.501 7.98 1.916 10.515-1.392l43.122-56.274c.041.72.092 1.44.131 2.16-.589 22.756-8.268 44.873-22.227 62.839-17.818 22.936-44.185 36.875-72.399 38.295-2.527-22.941 2.361-46.359 13.783-65.983 2.084-3.58.871-8.171-2.709-10.255s-8.171-.872-10.254 2.709c-13.104 22.513-18.673 49.374-15.679 75.632.867 7.602 7.531 13.247 15.094 12.902 32.777-1.495 63.397-17.567 84.01-44.098 4.331-5.575 8.127-11.502 11.384-17.693-.567 33.785-3.35 67.52-8.358 100.898-5.823 38.825-14.681 77.308-26.407 114.865-.145.015-.29.041-.435.054-7.313.624-14.646-1.705-22.408-4.167-8.451-2.681-17.196-5.456-26.96-4.881-15.698.92-30.188 11.378-41.905 30.243-15.303 24.64-23.145 55.829-21.515 85.57 1.834 33.474 15.645 61.53 38.889 79.001 26.411 19.852 55.614 28.463 86.731 25.657 37.656-3.395 71.494-22.639 90.515-51.478 13.503-20.473 19.4-45.515 17.056-72.419-2.174-24.943-11.469-49.594-26.172-69.412-9.218-12.424-24.558-27.744-45.292-30.169-11.713-1.368-21.776 2.8-30.653 6.48-.186.077-.369.152-.554.229 10.485-35.187 18.51-71.121 23.944-107.349 7.804-52.016 10.329-104.882 7.543-157.478.065-2.882.032-5.771-.104-8.665 41.644 24.684 95.138 66.816 135.43 134.667 19.865 33.462 34.331 69.357 43.222 107.128-4.937 1.857-10.428 2.786-16.148 3.748-8.743 1.471-17.785 2.991-26.217 7.958-13.548 7.981-21.67 23.898-23.489 46.031-1.979 24.083 2.751 50.096 13.317 73.249 11.549 25.307 28.747 44.607 49.737 55.813 3.654 1.951 8.196.57 10.148-3.084 1.951-3.654.57-8.197-3.084-10.148-40.187-21.456-58.418-75.059-55.17-114.602.979-11.898 4.574-27.514 16.153-34.335 6.042-3.559 13.353-4.789 21.092-6.09 5.572-.937 11.26-1.899 16.838-3.748 1.313 6.751 2.454 13.557 3.417 20.417-6.122 1.848-11.678 2.219-15.723 2.109-4.11-.088-7.586 3.159-7.694 7.3-.137 5.25 4.305 7.717 9.006 7.717 20.133 0 39.293-9.563 51.402-25.698 2.486-3.313 1.815-8.014-1.498-10.5s-8.014-1.815-10.5 1.498c-3.062 4.08-6.75 7.655-10.853 10.596-1.059-6.936-2.293-13.819-3.698-20.645 5.443-4.118 9.698-9.095 13.819-13.948 5.523-6.505 10.741-12.649 18.133-15.409 15.298-5.714 32.995 1.042 42.18 5.577 19.672 9.715 37.038 25.466 48.897 44.352 12.546 19.978 17.96 41.628 15.659 62.611-3.274 29.843-22.026 58.278-50.161 76.063-21.027 13.292-44.67 18.602-70.254 15.782-4.126-.456-7.823 2.517-8.276 6.634s2.517 7.823 6.634 8.276c28.104 3.096 55.88-2.822 79.912-18.013 31.959-20.202 53.288-52.765 57.056-87.106 2.672-24.378-3.506-49.352-17.868-72.223zm-356.506 25.144c7.885-3.268 15.335-6.355 23.167-5.438 16.223 1.898 28.884 15.982 34.987 24.208 13.073 17.621 21.34 39.56 23.275 61.777 2.048 23.501-3.012 45.237-14.634 62.858-16.53 25.062-46.189 41.808-79.341 44.797-27.352 2.465-53.045-5.175-76.371-22.708-42.204-31.724-41.128-100.415-13.644-144.668 6.299-10.142 16.624-22.396 30.04-23.183 7.014-.412 14.066 1.831 21.547 4.204 7.142 2.266 14.485 4.59 22.479 4.929-2.02 6.029-4.114 12.031-6.283 18.005-6.169-1.02-11.209-3.067-14.746-4.893-3.679-1.9-8.204-.458-10.104 3.224-1.9 3.68-.457 8.205 3.224 10.104 18.43 9.513 40.541 9.532 58.989 0 3.68-1.901 5.122-6.426 3.221-10.106-1.9-3.681-6.426-5.122-10.105-3.221-4.57 2.361-9.493 3.982-14.511 4.837 2.384-6.715 4.673-13.466 6.873-20.247 4.143-1.265 8.08-2.88 11.937-4.479z"/></g></svg>