<svg id="Capa_1" enable-background="new 0 0 512 512" height="512" viewBox="0 0 512 512" width="512" xmlns="http://www.w3.org/2000/svg"><g><g><g><path d="m231.258 254.441h49.452v-35.835c0-10.07-8.163-18.234-18.234-18.234h-12.985c-10.07 0-18.234 8.163-18.234 18.234v35.835z" fill="#ecbba3"/><ellipse cx="255.984" cy="366.584" fill="#d77f4a" rx="66.809" ry="137.916"/><path d="m255.984 228.667c-5.157 0-10.178 1.208-15 3.492 29.675 14.054 51.809 68.902 51.809 134.424s-22.134 120.37-51.809 134.424c4.822 2.284 9.843 3.492 15 3.492 36.897 0 66.809-61.747 66.809-137.916-.001-76.168-29.912-137.916-66.809-137.916z" fill="#c86d36"/></g><g><g><path d="m193.488 159.507-31.702-31.702 22.972-22.972c6.456-6.456 16.922-6.456 23.378 0l8.324 8.324c6.456 6.456 6.456 16.922 0 23.378z" fill="#ecbba3"/><ellipse cx="105.746" cy="215.547" fill="#d77f4a" rx="125.035" ry="60.569" transform="matrix(.707 -.707 .707 .707 -121.442 137.906)"/><path d="m194.159 127.134c-9.687-9.687-25.263-11.979-43.631-7.961 5.298 1.6 9.902 4.231 13.631 7.961 23.654 23.654 3.245 82.412-45.584 131.241-28.833 28.833-61.125 47.751-87.61 53.545 28.306 8.548 76.48-12.415 117.61-53.545 48.829-48.829 69.238-107.588 45.584-131.241z" fill="#c86d36"/></g></g><g><g><path d="m318.48 159.507 31.702-31.702-22.972-22.972c-6.456-6.456-16.922-6.456-23.378 0l-8.324 8.324c-6.456 6.456-6.456 16.922 0 23.378z" fill="#ecbba3"/><ellipse cx="406.221" cy="215.547" fill="#d77f4a" rx="60.569" ry="125.035" transform="matrix(.707 -.707 .707 .707 -33.435 350.374)"/><path d="m449.05 172.718c-48.829-48.829-107.588-69.238-131.241-45.584-1.573 1.573-2.945 3.306-4.133 5.177 28.713-.774 69.693 19.727 105.375 55.408 45.582 45.582 66.391 99.811 49.718 126.064 10.58-.285 19.498-3.454 25.867-9.823 23.651-23.654 3.243-82.413-45.586-131.242z" fill="#c86d36"/></g></g></g><path d="m433.676 230.277c-4.071.763-6.753 4.682-5.989 8.753 1.85 9.867 5.997 17.177 12.327 21.724 3.748 2.693 7.195 3.629 9.965 4.381 2.071.562 3.708 1.007 5.58 2.151 3.714 2.27 6.522 6.132 8.588 11.808 1.432 3.936 5.802 5.87 9.611 4.484 3.893-1.416 5.9-5.719 4.484-9.611-3.227-8.871-8.227-15.425-14.861-19.479-3.698-2.261-6.899-3.13-9.472-3.828-2.167-.588-3.599-.977-5.144-2.087-3.09-2.22-5.222-6.36-6.337-12.306-.761-4.073-4.686-6.754-8.752-5.99zm-281.885-85.917c-3.855-1.522-8.21.375-9.728 4.228-2.218 5.629-5.094 9.292-8.547 10.889-1.728.798-3.206.909-5.445 1.077-2.658.2-5.967.449-10.025 1.97-7.282 2.729-13.43 8.221-18.273 16.321-2.125 3.555-.967 8.16 2.589 10.286 3.497 2.091 8.138 1.003 10.286-2.589 3.056-5.11 6.643-8.466 10.662-9.973 2.055-.77 3.746-.896 5.887-1.058 2.861-.215 6.423-.483 10.613-2.42 7.075-3.271 12.529-9.664 16.209-19.004 1.518-3.854-.374-8.208-4.228-9.727zm-4.373 51.922c-4.108-.385-7.777 2.652-8.157 6.778-.557 6.023-2.294 10.345-5.164 12.844-1.436 1.249-2.824 1.77-4.927 2.557-2.496.936-5.604 2.099-9.074 4.694-6.229 4.655-10.596 11.646-12.982 20.778-1.222 4.677 2.396 9.397 7.262 9.397 3.33 0 6.37-2.234 7.252-5.606 1.526-5.842 3.963-9.949 7.449-12.556 1.757-1.312 3.345-1.907 5.355-2.661 2.688-1.006 6.033-2.26 9.515-5.29 5.878-5.118 9.327-12.781 10.25-22.778.381-4.124-2.654-7.776-6.779-8.157zm-69.127 33.995c-4.062-.765-7.99 1.917-8.753 5.989-1.115 5.945-3.247 10.086-6.337 12.306-1.545 1.11-2.977 1.499-5.144 2.087-2.572.698-5.773 1.567-9.472 3.828-6.635 4.055-11.635 10.608-14.861 19.479-1.416 3.893.592 8.195 4.484 9.611 3.798 1.382 8.179-.548 9.611-4.484 2.065-5.676 4.874-9.538 8.588-11.808 1.872-1.145 3.509-1.589 5.58-2.151 2.77-.752 6.217-1.688 9.965-4.381 6.33-4.547 10.478-11.856 12.327-21.724.765-4.07-1.916-7.989-5.988-8.752zm176.756 171.801c-6.137 8.969-8.561 17.716-7.204 25.997.8 4.888 2.721 8.239 4.264 10.932 1.208 2.108 2.162 3.773 2.755 6.232 1.153 4.775.29 10.299-2.563 16.415-1.751 3.754-.128 8.216 3.626 9.968 3.678 1.716 8.195.173 9.968-3.626 4.326-9.273 5.521-18.114 3.552-26.276-1.096-4.54-2.885-7.662-4.322-10.17-1.272-2.222-2.114-3.689-2.476-5.899-.712-4.345.896-9.426 4.78-15.102 2.339-3.419 1.464-8.086-1.954-10.425-3.419-2.34-8.087-1.464-10.426 1.954zm154.559-212.947c3.556-2.126 4.714-6.731 2.589-10.286-4.844-8.101-10.991-13.592-18.273-16.32-4.059-1.521-7.367-1.771-10.025-1.971-2.239-.168-3.718-.279-5.445-1.077-3.453-1.597-6.329-5.26-8.547-10.889-1.519-3.854-5.872-5.745-9.728-4.228-3.854 1.519-5.746 5.873-4.228 9.728 3.68 9.34 9.134 15.733 16.209 19.004 4.19 1.937 7.752 2.205 10.613 2.42 2.141.161 3.832.288 5.887 1.059 4.02 1.506 7.606 4.861 10.662 9.972 2.147 3.59 6.78 4.684 10.286 2.588zm56.001-9.752c-2.743-3.103-7.483-3.397-10.587-.653-3.104 2.743-3.396 7.483-.653 10.587 37.964 42.956 53.321 90.986 34.964 109.344-9.161 9.164-26.81 10.111-48.415 2.607-23.74-8.246-49.388-25.36-72.219-48.192-22.832-22.831-39.946-48.479-48.192-72.219-7.505-21.607-6.555-39.254 2.606-48.415 17.868-17.866 64.905-3.375 107.084 32.991 3.136 2.703 7.872 2.354 10.578-.783 2.704-3.138 2.354-7.873-.783-10.578-23.007-19.835-48.062-34.261-70.553-40.618-9.584-2.71-18.519-3.89-26.585-3.587l-10.339-10.34c-9.011-8.996-23.427-9.318-32.85-1.02-6.256-4.6-13.061-8.226-20.318-10.792-5.126-1.814-10.439-3.069-15.861-3.78v-76.431c0-4.143-3.357-7.5-7.5-7.5s-7.5 3.357-7.5 7.5v76.43c-5.422.71-10.735 1.965-15.861 3.779-7.257 2.567-14.062 6.194-20.318 10.793-9.423-8.299-23.839-7.976-32.854 1.025l-10.359 10.36c-31.096-1.107-73.794 19.846-111.477 57.527-52.552 52.551-72.575 114.858-45.585 141.85 8.125 8.124 19.446 11.988 32.742 11.988 30.873 0 72.374-20.842 109.106-57.573 37.681-37.682 58.635-80.377 57.528-111.473l10.366-10.366c8.904-8.918 9.317-23.137 1.278-32.563 4.55-3.106 9.423-5.603 14.574-7.425 3.521-1.245 7.154-2.164 10.859-2.766v93.811c-13.727.533-24.73 11.86-24.73 25.715v16.454c-25.098 23.095-42.078 72.71-42.078 131.52 0 17.689 1.562 34.956 4.644 51.322.767 4.071 4.689 6.755 8.758 5.982 4.07-.766 6.749-4.688 5.982-8.758-2.909-15.453-4.384-31.786-4.384-48.547 0-35.729 6.683-69.201 18.817-94.252 11.134-22.982 25.892-36.164 40.491-36.164s29.357 13.182 40.491 36.164c12.135 25.051 18.817 58.523 18.817 94.252s-6.683 69.201-18.817 94.252c-11.133 22.981-25.891 36.163-40.49 36.163-17.409 0-34.632-18.44-46.072-49.328-1.439-3.886-5.756-5.87-9.638-4.429-3.885 1.438-5.867 5.754-4.429 9.638 13.915 37.571 35.835 59.119 60.139 59.119 41.668 0 74.309-63.874 74.309-145.416 0-58.81-16.98-108.425-42.078-131.52v-16.454c0-13.855-11.004-25.182-24.73-25.715v-93.811c3.706.603 7.339 1.521 10.859 2.767 5.152 1.822 10.024 4.319 14.575 7.424-8.039 9.425-7.626 23.645 1.282 32.568l10.361 10.361c-1.107 31.096 19.847 73.792 57.528 111.474 36.735 36.734 78.232 57.575 109.106 57.573 13.292-.001 24.619-3.866 32.742-11.989 24.747-24.747 10.308-79.371-34.331-129.883zm-274.144 1.474c-8.246 23.74-25.36 49.388-48.192 72.219-22.831 22.832-48.479 39.946-72.219 48.192-21.608 7.505-39.255 6.554-48.415-2.606-9.162-9.163-10.112-26.81-2.607-48.417 8.245-23.74 25.359-49.388 48.191-72.218 22.831-22.832 48.479-39.946 72.219-48.192 9.652-3.353 18.513-5.018 26.181-5.018 9.498 0 17.167 2.556 22.235 7.625 9.162 9.161 10.112 26.807 2.607 48.415zm19.697-49.617-3.321 3.321c-1.965-4.808-4.74-9.091-8.377-12.728-3.636-3.636-7.918-6.411-12.727-8.376l3.316-3.317c3.527-3.522 9.261-3.522 12.778-.004l8.33 8.329c3.52 3.521 3.518 9.254.001 12.775zm62.054 87.374v6.336c-5.514-2.471-11.28-3.779-17.23-3.779s-11.717 1.308-17.23 3.779v-6.336c0-5.922 4.818-10.74 10.74-10.74h12.98c5.922 0 10.74 4.818 10.74 10.74zm30.914-84.052-3.317-3.317c-3.521-3.526-3.522-9.259-.004-12.777l8.33-8.33c3.518-3.52 9.25-3.517 12.773-.001l3.319 3.32c-4.854 1.989-9.13 4.782-12.726 8.377-3.635 3.637-6.41 7.919-8.375 12.728zm87.743 88.597c-3.471-2.596-6.578-3.759-9.074-4.694-2.103-.787-3.491-1.308-4.927-2.558-2.87-2.498-4.607-6.819-5.164-12.843-.38-4.125-4.03-7.179-8.157-6.778-4.125.381-7.16 4.033-6.778 8.157.923 9.997 4.372 17.66 10.25 22.777 3.481 3.031 6.827 4.285 9.515 5.291 2.011.754 3.599 1.349 5.355 2.661 3.486 2.606 5.923 6.714 7.449 12.556 1.057 4.045 5.231 6.386 9.152 5.361 4.008-1.048 6.408-5.146 5.361-9.152-2.386-9.131-6.753-16.122-12.982-20.778zm-153.858 96.495c-3.184-2.647-7.914-2.211-10.562.976-6.945 8.358-10.174 16.842-9.595 25.213.343 4.939 1.942 8.455 3.228 11.279 1.007 2.212 1.802 3.959 2.163 6.462.702 4.864-.671 10.283-4.081 16.106-2.094 3.574-.893 8.168 2.682 10.262 3.515 2.059 8.147.929 10.262-2.682 5.171-8.828 7.184-17.519 5.983-25.831-.668-4.623-2.158-7.898-3.355-10.529-1.061-2.331-1.762-3.871-1.916-6.104-.305-4.392 1.771-9.3 6.167-14.591 2.647-3.185 2.211-7.913-.976-10.561zm37.271-43.794c-3.799-1.651-8.216.091-9.868 3.89-4.332 9.968-5.06 19.016-2.162 26.889 1.709 4.648 4.228 7.577 6.251 9.93 1.584 1.843 2.836 3.297 3.883 5.601 2.062 4.534 2.254 9.966.585 16.604-1.01 4.018 1.428 8.093 5.444 9.103 3.914.984 8.081-1.383 9.103-5.444 2.496-9.925 1.998-18.832-1.478-26.473-1.933-4.251-4.279-6.979-6.164-9.171-1.67-1.941-2.773-3.225-3.546-5.327-1.521-4.131-.9-9.424 1.842-15.732 1.651-3.8-.091-8.218-3.89-9.87z"/></g></svg>