<svg height="480pt" viewBox="-65 0 479 480" width="480pt" xmlns="http://www.w3.org/2000/svg"><path d="m294.636719 55.921875-2.273438-15.84375-36.917969 5.28125 28.070313-32.085937-12.03125-10.546876-25.984375 29.699219v-32.425781h-16v50.710938l-8.390625 9.585937-23.609375-23.609375v-36.6875h-16v20.6875l-18.34375-18.34375-11.3125 11.3125 18.34375 18.34375h-28.6875v16h44.6875l27.3125 27.3125v68.6875h16v-68.992188l9.785156-11.183593zm0 0" fill="#77c974"/><path d="m71.253906 19-17.753906 22.199219v-41.199219h-16v47.351562l-27-21.597656-10 12.492188 37 29.59375v76.160156h16v-77.191406l30.246094-37.808594zm0 0" fill="#77c974"/><path d="m253.5 120v163l-72-23v-44l11.28125-11.28125c3.019531-3.007812 4.71875-7.09375 4.71875-11.359375v-73.359375zm0 0" fill="#7ed39c"/><path d="m225.5 260v125.335938l-116-68v-197.335938h56v73.359375c0 4.265625 1.699219 8.351563 4.71875 11.359375zm0 0" fill="#77c974"/><path d="m341.5 304v80c.011719 23.34375-9.253906 45.734375-25.761719 62.238281-16.503906 16.507813-38.894531 25.773438-62.238281 25.761719h-78.960938c0-6.320312 2.960938-164 2.960938-164l103.28125-103.28125c3.019531-3.007812 4.71875-7.09375 4.71875-11.359375v-73.359375h56zm0 0" fill="#90dd73"/><path d="m237.5 377.921875v94.078125h-128c-23.34375.011719-45.734375-9.253906-62.238281-25.761719-16.507813-16.503906-25.773438-38.894531-25.761719-62.238281v-264h56v81.359375c0 4.265625 1.699219 8.351563 4.71875 11.359375l148.242188 148.242188c4.488281 4.503906 7.019531 10.597656 7.039062 16.960937zm0 0" fill="#389a6b"/><path d="m37.5 112h-16c-4.417969 0-8 3.582031-8 8v264c.058594 52.996094 43.003906 95.941406 96 96h144c52.996094-.058594 95.941406-43.003906 96-96v-264c0-4.417969-3.582031-8-8-8h-56c-4.417969 0-8 3.582031-8 8v73.367188c0 2.125-.839844 4.164062-2.34375 5.664062l-13.65625 13.65625v-92.6875c0-4.417969-3.582031-8-8-8h-24v-36.992188l9.785156-11.199218 55.351563-7.90625-2.273438-15.839844-36.917969 5.28125 28.070313-32.085938-12-10.546874-26.015625 29.714843v-32.425781h-16v50.710938l-8.390625 9.601562-23.609375-23.625v-36.6875h-16v20.6875l-18.34375-18.34375-11.3125 11.3125 18.34375 18.34375h-28.6875v16h44.6875l27.3125 27.3125v36.6875h-16c-4.417969 0-8 3.582031-8 8v73.367188c0 2.125-.839844 4.164062-2.34375 5.664062l-5.65625 5.65625-5.65625-5.65625c-1.503906-1.5-2.34375-3.539062-2.34375-5.664062v-73.367188c0-4.417969-3.582031-8-8-8h-56c-4.417969 0-8 3.582031-8 8v100.6875l-13.65625-13.65625c-1.503906-1.5-2.34375-3.539062-2.34375-5.664062v-81.367188c0-4.417969-3.582031-8-8-8h-24v-45.191406l30.246094-37.808594-12.492188-10-17.753906 22.199219v-41.199219h-16v47.351562l-27-21.597656-10 12.492188 37 29.59375zm248.96875 98.34375c4.519531-4.492188 7.050781-10.605469 7.03125-16.976562v-65.367188h40v256c-.046875 44.164062-35.835938 79.953125-80 80h-8v-86.054688c.023438-8.496093-3.351562-16.644531-9.375-22.632812l-47.3125-47.3125zm-88 0c4.519531-4.492188 7.050781-10.605469 7.03125-16.976562v-65.367188h40v100.6875l-20 20-32.6875-32.6875zm-80.96875-82.34375h40v65.367188c-.019531 6.371093 2.511719 12.484374 7.03125 16.976562l49.65625 49.65625-36.6875 36.6875-60-60zm-40.96875 90.34375 148.28125 148.28125c3.011719 2.996094 4.699219 7.070312 4.6875 11.320312v86.054688h-120c-44.164062-.046875-79.953125-35.835938-80-80v-256h40v73.367188c-.019531 6.371093 2.511719 12.484374 7.03125 16.976562zm0 0"/></svg>