<svg height="512pt" viewBox="-34 0 512 512.00025" width="512pt" xmlns="http://www.w3.org/2000/svg"><path d="m388.199219 431.503906c-33.574219 16.511719-63.324219 12.453125-87.046875-7.417968 16.679687-19.894532 24.972656-48.109376 24.972656-82.125 0-44.238282-42.359375-121.921876-72.90625-201.402344 55.5 66.035156 147.160156 124.9375 168.140625 167.53125 25.679687 52.15625 17.386719 98.570312-33.160156 123.414062zm0 0" fill="#e8e7e9"/><path d="m326.125 341.960938c0 34.011718-8.292969 62.230468-24.972656 82.125-17.234375 20.601562-43.4375 32.292968-78.652344 32.292968-35.21875 0-61.421875-11.691406-78.65625-32.292968-16.675781-19.898438-24.972656-48.113282-24.972656-82.125 0-44.238282 42.359375-121.921876 72.90625-201.402344 17.246094-44.835938 30.722656-90.257813 30.722656-130.558594 0 40.300781 13.476562 85.722656 30.71875 130.558594 30.546875 79.480468 72.90625 157.164062 72.90625 201.402344zm0 0" fill="#f9f9f9"/><path d="m118.871094 341.960938c0 34.011718 8.296875 62.230468 24.972656 82.125-23.71875 19.871093-53.472656 23.929687-87.046875 7.417968-50.542969-24.84375-58.839844-71.257812-33.160156-123.414062 20.980469-42.59375 112.640625-101.496094 168.140625-167.53125-30.546875 79.480468-72.90625 157.164062-72.90625 201.402344zm0 0" fill="#e8e7e9"/><path d="m430.238281 305.558594.011719.039062.238281.472656c-.082031-.160156-.160156-.332031-.25-.511718zm0 0"/><path d="m430.25 305.597656c-.09375-.1875-.183594-.378906-.273438-.566406-.078124-.160156-.148437-.3125-.226562-.460938-.113281-.210937-.191406-.382812-.222656-.449218-.039063-.082032-.070313-.152344-.109375-.230469-.019531-.03125-.03125-.0625-.039063-.089844-.039062-.0625-.070312-.132812-.101562-.191406-15.929688-32.210937-49.070313-56.769531-75.4375-79.800781-32.050782-27.988282-64.863282-55.730469-92.429688-88.308594-.011718-.011719-.011718-.011719-.011718-.019531-9.808594-25.730469-18.628907-52.019531-24.179688-79.03125-2.128906-10.371094-3.769531-20.859375-4.601562-31.417969-.648438-8.3125 2.019531-25.03125-10.589844-25.03125-12.238282 0-9.910156 15.378906-10.480469 23.488281-.738281 10.492188-2.289063 20.902344-4.347656 31.203125-5.511719 27.636719-14.519531 54.527344-24.550781 80.816406-29.128907 34.410157-64.058594 63.421876-97.847657 93.042969-29.851562 26.160157-62.589843 52.609375-76.882812 90.898438-13.878907 37.21875-10.929688 78.160156 20.230469 105.46875 31.269531 27.402343 78.480468 37.300781 114.242187 12.890625 14.738281 14.390625 34.027344 23.589844 56.859375 27.179687l-14.910156 14.929688c-8.929688 8.960937 4.96875 23.332031 14.109375 14.160156l13.597656-13.628906v21.910156c0 12.839844 19.960937 12.871094 19.960937 0v-21.898437l13.601563 13.628906c9 9.027344 23.128906-5.089844 14.109375-14.160156l-14.921875-14.941407c22.839844-3.589843 42.140625-12.789062 56.882813-27.179687 37.097656 25.332031 87.449218 13.710937 118.238281-16.578125 32.140625-31.609375 28.429687-77.652344 10.332031-115.632813zm-368.921875 117.351563-.25-.121094c-19.757813-9.75-36.300781-25.828125-40.480469-48.199219-4.398437-23.5 3.8125-51.019531 17.050782-70.46875 14.492187-21.289062 35.351562-38.5625 54.480468-55.449218 23.429688-20.671876 47.308594-40.851563 69.851563-62.519532-13.292969 31.097656-27.453125 61.917969-39 93.71875-8.710938 23.980469-16.300781 49.109375-13.960938 74.917969.027344.691406.078125 1.371094.128907 2.050781 0 4.871094.859374 10.039063 1.660156 14.820313 0 .078125.019531.160156.039062.238281.699219 4.960938 1.78125 9.902344 3.042969 14.742188v.019531c1.207031 4.621093 2.636719 9.199219 4.359375 13.648437 1.480469 7.429688 7.117188 15.773438 11.289062 21.992188-19.929687 12.828125-42.839843 13.050781-68.210937.609375zm239.929687-17.238281-.089843.148437c-14.03125 27.96875-46.757813 40.808594-76.488281 40.808594h-.011719c-1.757813.042969-3.53125.042969-5.289063 0-.058594.011719-.128906.03125-.191406.050781.050781-.019531.109375-.03125.160156-.050781-33.367187-.609375-64.097656-14.777344-79.097656-45.878907-14.570312-30.199218-14.160156-64.691406-4.542969-96.121093 23.601563-77.117188 66.023438-147.078125 86.320313-225.519531 16.171875 62.480468 45.109375 120.570312 69.511718 180.019531 19.148438 46.671875 36.859376 98.710937 9.71875 146.542969zm121.570313-28.0625c-.019531.101562-.050781.191406-.070313.289062-.070312.273438-.128906.511719-.179687.722656-.019531.078125-.03125.148438-.050781.210938 0 .019531-.007813.039062-.019532.058594-11.21875 42.640624-70.75 67.371093-108 43.410156.710938-1.050782 1.390626-2.121094 2.050782-3.191406 1.199218-1.828126 2.289062-3.777344 3.289062-5.71875.449219-.820313.890625-1.660157 1.300782-2.5 2.101562-3.949219 3.871093-8.191407 5.339843-12.402344v-.007813c.160157-.421875.308594-.839843.449219-1.261719 3.179688-7.980468 5.070312-16.839843 6.28125-25.320312 0-.019531.007812-.039062.007812-.058594.023438-.039062.03125-.089844.03125-.140625v-.039062c.519532-3.160157.871094-6.359375 1.210938-9.550781 0-.039063.007812-.089844.007812-.128907.230469-2.390625.460938-4.789062.5625-7.191406.039063-.4375.058594-.878906.078126-1.320313v-.007812c.042968-.660156.070312-1.332031.101562-2v-.101562c1.238281-24.777344-5.761719-48.417969-14.140625-71.488282-11.550781-31.8125-25.710937-62.621094-39-93.71875 33.410156 32.109375 70.390625 60.417969 103.050781 93.296875 24.988282 25.160157 46.570313 61.082031 37.699219 98.160157zm0 0"/><path d="m186.285156 420.757812c-1.804687 0-3.632812-.492187-5.277344-1.523437-35.675781-22.339844-27.753906-76.296875-27.398437-78.582031.847656-5.464844 5.949219-9.203125 11.394531-8.351563 5.441406.847657 9.167969 5.957031 8.328125 11.414063-.109375.75-6.136719 43.273437 18.246094 58.542968 4.675781 2.929688 6.097656 9.101563 3.179687 13.789063-1.890624 3.042969-5.144531 4.710937-8.472656 4.710937zm0 0"/><path d="m172.078125 310.378906c-5.511719 0-9.984375-4.480468-9.984375-10.007812 0-5.523438 4.464844-10.003906 9.972656-10.003906h.011719c5.511719 0 9.980469 4.480468 9.980469 10.003906 0 5.527344-4.46875 10.007812-9.980469 10.007812zm0 0"/></svg>