<svg height="512pt" viewBox="0 0 512 512.00098" width="512pt" xmlns="http://www.w3.org/2000/svg"><g fill="#ffcb7c"><path d="m424.339844 424.464844c-81.828125 81.875-202.234375 99.542968-294.050782 50.855468-19.390624-10.265624-37.503906-23.503906-53.710937-39.722656-17.917969-17.925781-32.1875-38.179687-42.855469-59.910156-44.683594-91.042969-26.015625-208.003906 53.984375-288.050781 80.214844-80.261719 197.5-98.835938 288.597657-53.683594 21.457031 10.640625 41.453124 24.808594 59.171874 42.539063 16.875 16.882812 30.53125 35.84375 40.972657 56.160156 47.070312 91.558594 29.011719 210.644531-52.109375 291.8125zm0 0"/><path d="m478.949219 130.269531c-.820313.820313-1.648438 1.613281-2.5 2.382813-10.441407-20.316406-24.097657-39.273438-40.96875-56.160156-17.71875-17.726563-37.71875-31.898438-59.175781-42.539063.988281-1.125 2.011718-2.21875 3.089843-3.296875 27.492188-27.507812 72.0625-27.507812 99.554688 0 27.492187 27.507812 27.492187 72.105469 0 99.613281zm0 0"/><path d="m130.289062 475.320312c-27.398437 18.703126-65.070312 15.886719-89.371093-8.429687-24.839844-24.851563-27.238281-63.648437-7.195313-91.199219 10.667969 21.726563 24.941406 41.984375 42.855469 59.910156 16.207031 16.214844 34.320313 29.453126 53.710937 39.71875zm0 0"/></g><path d="m488.589844 134.65625c22.042968-24.171875 27.25-60.492188 12.695312-89.84375-14.464844-29.179688-45.828125-47-78.261718-44.558594-18.21875 1.371094-35.597657 9.050782-48.898438 21.582032-77.167969-35.375-169.085938-26.472657-240.976562 17.328124-67.980469 41.417969-116.753907 111.738282-129.699219 190.492188-8.0625 49.03125-2.0625 99.96875 18.808593 145.183594v.007812c-14.703124 23.84375-15.828124 54.46875-2.910156 79.3125 12.445313 23.9375 36.636719 40.328125 63.476563 42.976563 16.589843 1.636719 33.523437-1.984375 47.96875-10.316407 78.292969 39.027344 173.722656 31.324219 247.792969-13.679687 68.941406-41.886719 118.28125-113.542969 130.472656-193.535156 7.453125-48.925781.785156-100.140625-20.46875-144.949219 13.550781-14.859375 0 0 0 0zm-59.417969-114.621094c22.117187 0 42.875 12.460938 53.3125 31.980469 10.675781 19.96875 9.066406 45.066406-4.09375 63.5-4.261719-7.226563-8.976563-14.1875-13.992187-20.90625-.089844-.128906-.191407-.261719-.300782-.390625-.757812-1.027344-1.523437-2.078125-2.339844-3.0625-.921874-1.191406-1.84375-2.394531-2.820312-3.542969-2.632812-3.292969-5.378906-6.519531-8.242188-9.617187-3.574218-4.273438-7.652343-8.417969-11.792968-12.148438-1.046875-1.019531-2.109375-2.011718-3.179688-2.992187-.050781-.058594-.109375-.109375-.167968-.160157-4.597657-4.269531-9.390626-8.382812-14.363282-12.207031-.101562-.089843-.199218-.160156-.300781-.230469-8.40625-6.644531-17.382813-12.75-26.703125-18.042968-.261719-.160156-.519531-.3125-.78125-.460938 10.304688-7.605468 22.714844-11.71875 35.765625-11.71875zm-381.183594 439.773438c-16.324219-16.320313-21.941406-41.238282-14.191406-63.003906 17.445313 29.226562 41.242187 54.652343 69.378906 73.8125l1.679688 1.140624c1.441406.972657 2.902343 1.921876 4.371093 2.863282-21.089843 6.804687-44.894531 1.550781-61.238281-14.8125-10.238281-10.238282 16.34375 16.363281 0 0zm440.621094-179.039063c-7.722656 45.226563-28.152344 87.683594-58.097656 122.367188-30.261719 35.054687-69.621094 62.074219-113.640625 76.625-46.289063 15.296875-96.992188 16.714843-143.722656 2.445312-47.164063-14.398437-88.546876-44.972656-116.035157-85.957031-27.984375-41.730469-40.328125-92.515625-36.449219-142.476562 3.644532-47.027344 21.011719-92.445313 49.167969-130.226563 27.738281-37.226563 65.382813-67.085937 108.304688-84.863281 46.386719-19.210938 98.496093-24.132813 147.433593-12.4375 48.351563 11.558594 91.785157 39.574218 121.929688 79.179687 30 39.417969 45.082031 88.609375 44.5 137.996094-.148438 12.515625-1.28125 25.015625-3.390625 37.347656-8.789063 51.46875 8.484375-49.664062 0 0zm0 0"/><path d="m91.296875 397.222656c-3.019531 0-6-1.363281-7.96875-3.953125-43.191406-56.832031-51.925781-123.144531-25.265625-191.765625 19.855469-51.105468 51.988281-85.0625 53.34375-86.484375 3.820312-3.996093 10.148438-4.132812 14.140625-.3125 3.992187 3.816407 4.132813 10.148438.320313 14.140625-.378907.398438-31.078126 32.984375-49.386719 80.488282-10.589844 27.476562-15.027344 54.550781-13.191407 80.46875 2.289063 32.226562 14.386719 62.960937 35.960938 91.351562 3.34375 4.398438 2.492188 10.675781-1.90625 14.023438-1.808594 1.375-3.9375 2.039062-6.046875 2.042968zm0 0"/><path d="m120.019531 427.621094c-5.523437 0-10.007812-4.480469-10.007812-10.007813 0-5.523437 4.472656-10.003906 9.996093-10.003906h.011719c5.523438 0 10 4.480469 10 10.003906 0 5.527344-4.476562 10.007813-10 10.007813zm0 0"/><path d="m145.019531 402.605469c-5.519531 0-10.003906-4.480469-10.003906-10.007813s4.472656-10.007812 9.996094-10.007812h.011719c5.523437 0 10 4.480468 10 10.007812s-4.476563 10.007813-10.003907 10.007813zm0 0"/><path d="m125.019531 372.582031c-5.523437 0-10.007812-4.480469-10.007812-10.003906 0-5.527344 4.472656-10.007813 10-10.007813h.007812c5.523438 0 10 4.480469 10 10.007813 0 5.523437-4.476562 10.003906-10 10.003906zm0 0"/><path d="m107.015625 341.5625c-5.523437 0-10.003906-4.480469-10.003906-10.007812 0-5.527344 4.472656-10.007813 9.996093-10.007813h.007813c5.527344 0 10.003906 4.480469 10.003906 10.007813 0 5.527343-4.480469 10.007812-10.003906 10.007812zm0 0"/></svg>