<svg height="464pt" viewBox="0 0 464.09204 464" width="464pt" xmlns="http://www.w3.org/2000/svg"><path d="m327.847656 294.546875c28.925782-32.070313 65.265625-56.574219 105.839844-71.367187l22.402344-8.152344c-22.128906-14.730469-50.570313-16.089844-74-3.535156-27.585938 15.078124-52.597656 34.445312-74.105469 57.375 25.015625-61.542969 72.667969-111.15625 133.152344-138.632813l8.121093-3.6875c-12.953124-15.433594-45.402343-9.039063-62.617187 1.433594-37.945313 21.621093-69.121094 53.382812-90.03125 91.726562-8.300781 14.234375-15.382813 29.140625-21.167969 44.566407l-18.738281 49.953124 6.402344-57.359374c2.179687-19.566407 6.414062-38.851563 12.640625-57.527344l7.199218-21.664063c19.085938-56.835937 55.824219-106.089843 104.863282-140.585937-16.652344-3.339844-33.933594.726562-47.351563 11.136718-41.863281 32.304688-69.898437 65.351563-87.878906 119.335938l-7.203125 21.65625c-3.742188 11.300781-6.835938 22.804688-9.261719 34.457031l-.457031-15.03125c-1.558594-51.324219 11.335938-102.050781 37.207031-146.402343l31.617188-54.183594-2.726563.71875c-17.734375 4.726562-33.863281 14.148437-46.691406 27.273437-7.3125 7.496094-13.453125 16.058594-18.207031 25.390625-23.320313 45.832032-34.734375 96.792969-33.183594 148.195313l1.3125 43.246093c-5.679687-16.917968-12.589844-33.398437-20.679687-49.304687-16.558594-32.308594-42.867188-58.585937-75.199219-75.101563 23.359375 37.46875 42.945312 77.164063 58.472656 118.503907-12.226563-22.242188-28.601563-41.933594-48.234375-58.019531l-12.902344-10.582032c-15.761718-13.179687-35.21875-21.15625-55.695312-22.832031-15.335938-2.28125-30.910156 2.15625-42.738282 12.183594 28.695313 4.796875 55.636719 17.003906 78.160157 35.417969l12.878906 10.535156c22.390625 18.335937 39.636719 42.171875 50.042969 69.175781l14.695312 38.214844c-33.472656-39.640625-79.578125-66.546875-130.5625-76.183594 56.710938 41.191406 105.628906 92.152344 144.464844 150.496094l35.617188 53.390625v.042968c.113281.167969.273437.3125.390624.480469.121094.167969.25.40625.402344.597657l.085938.097656c.144531.167968.3125.3125.457031.480468.144531.167969.398437.503907.632813.734376.230468.230468.261718.214843.382812.335937.359375.335937.734375.640625 1.128906.945313.261719.207031.503906.445312.800782.640624l.09375.054688c.113281.078125.234374.136719.34375.207031.445312.273438.90625.523438 1.375.746094.28125.140625.53125.335937.800781.453125.0625.027344.128906.046875.191406.066406l.289063.117188c.28125.113281.578124.183594.871093.289062.296875.105469.503907.144532.761719.214844l.320312.089844c.296876.070312.582032.191406.878907.246094h.066406c.820313.152343 1.65625.230468 2.496094.242187.15625 0 .324219.046875.484375.046875h.121094c1.019531-.007812 2.035156-.113281 3.03125-.3125.25-.046875.480468-.152344.722656-.207031.214844-.054688.429687-.085938.648437-.152344.214844-.0625.359375-.136719.542969-.191406.183594-.054688.558594-.144531.800781-.257813.765625-.3125 1.503907-.683594 2.214844-1.109375.070313-.039062.152344-.066406.222656-.113281.074219-.046875.335938-.246094.511719-.359375.082031-.046875.164062-.085937.25-.121094l25.0625-17.359375c48.726562-33.808594 106.644531-51.867187 165.953125-51.742187-44.035156-22.320313-96.003906-22.617188-140.289063-.800781-6 3-12.175781 6.398437-18.496093 10.121093l20.167969-40.339843c10.59375-21.167969 23.988281-40.816407 39.824218-58.414063zm0 0" fill="#389a6b"/><path d="m6.695312 175.652344c27.3125 4.566406 52.960938 16.191406 74.402344 33.71875l12.871094 10.535156c21.3125 17.457031 37.726562 40.148438 47.632812 65.855469l1.101563 2.855469c-30.976563-26.167969-68.171875-43.921876-108-51.550782-3.675781-.707031-7.351563 1.234375-8.847656 4.667969-1.492188 3.433594-.402344 7.445313 2.625 9.652344 55.949219 40.628906 104.21875 90.894531 142.550781 148.441406l36.066406 53.984375c.160156.269531.558594.855469.75 1.101562.191406.25.320313.386719.496094.5625.117188.132813.238281.261719.367188.382813.265624.332031.542968.652344.839843.960937l.671875.613282c.53125.496094 1.082032.945312 1.679688 1.425781.289062.253906.59375.496094.90625.71875.167968.128906.800781.511719.96875.625.605468.378906 1.230468.726563 1.871094 1.039063.28125.175781 1.03125.578124 1.335937.710937l.742187.296875 1.328126.449219 1.539062.449219.726562.199218c.277344.085938.554688.152344.839844.207032 1.003906.171874 2.015625.277343 3.03125.3125.480469.070312.964844.105468 1.449219.113281h.28125c1.503906-.015625 3.003906-.179688 4.476563-.480469.378906-.070312.753906-.171875 1.113281-.304688.558593-.125 1.109375-.285156 1.648437-.480468.3125-.078125 1.070313-.320313 1.359375-.441406.941407-.355469 1.847657-.800782 2.703125-1.328126.320313-.148437.628906-.3125.929688-.496093.230468-.132813.441406-.277344.574218-.375.203126-.109375.398438-.230469.585938-.359375l25.070312-17.359375c47.34375-32.875 103.621094-50.457031 161.257813-50.375 3.746094.039062 7.019531-2.523438 7.878906-6.167969.855469-3.648438-.929687-7.402344-4.304687-9.035156-45.089844-22.703125-98.070313-23.617188-143.917969-2.488282l8.878906-17.757812c29.253907-58.472656 79.800781-103.511719 141.25-125.847656l22.398438-8.152344c2.84375-1.035156 4.863281-3.585938 5.214843-6.59375.351563-3.007812-1.027343-5.953125-3.558593-7.613281-24.574219-16.417969-56.210938-17.902344-82.214844-3.867188-15.050781 8.21875-29.375 17.691407-42.824219 28.320313 26.15625-41.796875 64.078125-74.9375 109.007813-95.253906l8.117187-3.695313c2.277344-1.035156 3.9375-3.078125 4.492188-5.515625.550781-2.4375-.066406-4.996094-1.675782-6.910156-16.167968-19.253906-52.710937-12.519532-72.902343-.253906-39.070313 22.332031-71.191407 55.050781-92.800781 94.527343-6.773438 11.632813-12.757813 23.710938-17.917969 36.144531 2.269531-16.976562 6.136719-33.703124 11.542969-49.953124l7.199218-21.65625c18.546875-55.214844 54.246094-103.066407 101.894532-136.566407 2.625-1.835937 3.90625-5.054687 3.253906-8.1875-.652344-3.132812-3.105469-5.578125-6.242188-6.214843-18.933594-3.804688-38.585937.808593-53.851562 12.640624-45.980469 35.496094-72.054688 70.152344-89.070313 118.726563.640625-4.167969 1.359375-8.328125 2.191407-12.460937 5.753906-28.832032 16.257812-56.503907 31.082031-81.890626l31.605469-54.183593c1.632812-2.796875 1.414062-6.304688-.550782-8.878907-1.960937-2.574218-5.285156-3.714843-8.417968-2.878906l-2.71875.71875c-19.125 5.085938-36.523438 15.246094-50.351563 29.40625-7.886719 8.074219-14.5 17.296875-19.609375 27.363282-23.730469 46.605468-35.453125 98.394531-34.101562 150.679687-1.34375-2.839844-2.746094-5.671875-4.183594-8.53125-17.257813-33.863281-44.808594-61.382813-78.6875-78.605469-3.203125-1.65625-7.121094-.96875-9.5625 1.683594s-2.808594 6.613281-.894532 9.667969c12.042969 19.300781 23.074219 39.21875 33.039063 59.671875-3.519531-3.320313-7.199219-6.527344-10.953125-9.601563l-12.878906-10.535156c-16.871094-14.089844-37.660156-22.660156-59.558594-24.550781-17.621094-2.632813-35.519531 2.460937-49.105469 13.984375-2.378906 2.011719-3.375 5.226562-2.542969 8.234375.828126 3.007812 3.332032 5.257812 6.40625 5.765625zm42.871094-12.167969c19.054688 1.453125 37.171875 8.839844 51.808594 21.117187l12.875 10.578126c18.859375 15.417968 34.574219 34.320312 46.285156 55.679687 2.027344 3.671875 6.542969 5.15625 10.351563 3.402344 3.808593-1.753907 5.617187-6.148438 4.144531-10.074219-11.75-31.273438-25.785156-61.640625-41.992188-90.855469 18.449219 14.523438 33.5 32.902344 44.105469 53.847657 7.917969 15.566406 14.6875 31.691406 20.246094 48.246093 1.269531 3.757813 5.097656 6.015625 8.996094 5.316407 3.902343-.703126 6.699219-4.152344 6.582031-8.117188l-1.3125-43.253906c-1.519531-50.054688 9.597656-99.6875 32.320312-144.3125 4.378907-8.617188 10.042969-16.519532 16.800782-23.433594 7.441406-7.628906 16.132812-13.929688 25.695312-18.636719l-20.535156 35.199219c-26.625 45.65625-39.894531 97.867188-38.296875 150.695312l.457031 15.023438c.125 4.046875 3.257813 7.363281 7.289063 7.71875 4.035156.355469 7.699219-2.355469 8.535156-6.316406 2.371094-11.347656 5.386719-22.554688 9.023437-33.5625l7.199219-21.664063c16.085938-48.246093 40-80.640625 85.183594-115.535156 5.441406-4.195313 11.671875-7.246094 18.320313-8.96875-40.785157 34.261719-71.335938 79.105469-88.296876 129.601563l-7.199218 21.664062c-6.40625 19.199219-10.773438 39.019531-13.023438 59.136719l-6.402344 57.359375c-.441406 4.007812 2.167969 7.722656 6.089844 8.660156 3.925782.941406 7.933594-1.1875 9.351563-4.964844l18.734375-49.953125c5.636718-15 12.523437-29.496093 20.585937-43.34375 20.214844-37.226562 50.464844-68.035156 87.3125-88.925781 12.246094-7.316406 26.546875-10.441406 40.726563-8.898438-47.765625 23.125-87.53125 60-114.191406 105.890626-6.375 10.933593-11.96875 22.304687-16.742188 34.03125-1.449219 3.570312-.144531 7.664062 3.097656 9.742187 3.246094 2.078125 7.511719 1.546875 10.148438-1.261719 20.921875-22.316406 45.265625-41.160156 72.113281-55.816406 15.210937-8.257812 33.144531-9.894531 49.597656-4.527344l-4.613281 1.671875c-65.292969 23.75-119 71.621094-150.074219 133.765625l-20.160156 40.335938c-1.574219 3.167968-.886719 6.996094 1.699219 9.410156 2.582031 2.417969 6.449218 2.847656 9.5 1.0625 6.539062-3.839844 12.425781-7.070312 18.019531-9.871094 30.171875-14.894531 64.523437-19.058594 97.382813-11.800781-47.101563 6.191406-92.042969 23.558594-131.0625 50.65625l-24.632813 17.054687c-.167969.089844-.34375.191407-.496094.289063l-.304687.222656-.152344.089844c-.230469.113281-.449219.246094-.65625.398437l-.953125.3125-.878906.25c-.414063.085938-.839844.136719-1.265625.152344-.191406 0-.390625 0-.527344 0-.484375-.011718-.96875-.054687-1.445312-.136718l-.464844 2.726562-1.816406 4.886719 1.472656-7.886719-2.878906 7.480469 1.285156-4.800781 1.367187-2.640626c-.167969-.09375-1.398437-.71875-1.597656-.796874l-1.214844-.953126-.722656-.800781-.117187-.136719-35.953126-53.886718c-31.621093-47.496094-69.875-90.222656-113.601562-126.878906 33.714844 13.125 63.597656 34.5 86.914062 62.167968 2.511719 2.992188 6.816407 3.730469 10.183594 1.75 3.367188-1.980468 4.808594-6.101562 3.414063-9.75l-14.695313-38.21875c-10.902344-28.300781-28.972656-53.28125-52.441406-72.496094l-12.878906-10.535156c-17.960938-14.683594-38.664063-25.652344-60.902344-32.261718 6.261719-1.804688 12.835938-2.253907 19.285156-1.320313zm0 0"/></svg>