<svg id="Capa_1" enable-background="new 0 0 512 512" height="512" viewBox="0 0 512 512" width="512" xmlns="http://www.w3.org/2000/svg"><g><g><g><g><g><g><path d="m197.982 163.826c-13.77 0-24.933 11.163-24.933 24.933v192.042c0 18.874-10.292 35.378-25.551 44.229 11.996 11.911 23.978 23.837 35.941 35.782 23.986-18.476 39.476-47.462 39.476-80.011v-192.042c.001-13.77-11.162-24.933-24.933-24.933z" fill="#d5887a"/></g><g><path d="m222.916 230.273v-41.514c0-13.77-11.163-24.933-24.933-24.933s-24.933 11.163-24.933 24.933v41.514z" fill="#c86f5c"/></g><g><path d="m245.139 207.79h-111.308c-10.067 0-18.228-8.161-18.228-18.228v-14.752c0-34.566 28.022-62.588 62.588-62.588h22.587c34.566 0 62.588 28.022 62.588 62.588v14.752c.001 10.067-8.16 18.228-18.227 18.228z" fill="#ba5d4f"/><path d="m200.779 112.222h-6.003v95.569h50.363c10.067 0 18.228-8.161 18.228-18.228v-14.753c0-34.567-28.022-62.588-62.588-62.588z" fill="#a34f41"/></g></g></g><g><g><g><g><path d="m168.926 486.204c-13.77 0-24.933-11.163-24.933-24.933s11.163-24.933 24.933-24.933c28.179 0 51.105-22.925 51.105-51.105v-292.042c0-13.77 11.163-24.933 24.933-24.933s24.933 11.163 24.933 24.933v292.042c.001 55.676-45.295 100.971-100.971 100.971z" fill="#fee7c9"/></g><g><path d="m269.898 134.705v-41.515c0-13.77-11.163-24.933-24.933-24.933s-24.934 11.163-24.934 24.933v41.514h49.867z" fill="#ffd496"/></g><path d="m305.376 112.222h-122.697c-11.097 0-20.093-8.996-20.093-20.093v-15.636c0-38.104 30.889-68.993 68.993-68.993h24.899c38.104 0 68.993 30.889 68.993 68.993v15.636c-.002 11.097-8.998 20.093-20.095 20.093z" fill="#c86f5c"/><path d="m325.465 76.491v15.642c0 11.091-8.996 20.087-20.087 20.087h-33.047c11.101 0 20.098-8.996 20.098-20.087v-15.642c0-36.733-28.709-66.767-64.919-68.872 1.346-.075 2.703-.118 4.071-.118h24.895c38.1 0 68.989 30.889 68.989 68.99z" fill="#ba5d4f"/></g></g><g><g><g><path d="m207.315 504.5c-13.77 0-24.933-11.163-24.933-24.933s11.163-24.933 24.933-24.933c28.179 0 51.105-22.925 51.105-51.105v-162.659c0-13.77 11.163-24.933 24.933-24.933s24.933 11.163 24.933 24.933v162.658c0 55.676-45.295 100.972-100.971 100.972z" fill="#ffd496"/></g><g><path d="m308.286 282.384v-41.514c0-13.77-11.163-24.933-24.933-24.933s-24.933 11.163-24.933 24.933v41.514z" fill="#fcb44d"/></g><path d="m343.764 259.902h-122.697c-11.097 0-20.093-8.996-20.093-20.093v-15.636c0-38.104 30.889-68.993 68.993-68.993h24.899c38.104 0 68.993 30.889 68.993 68.993v15.636c-.001 11.097-8.997 20.093-20.095 20.093z" fill="#c86f5c"/><path d="m363.853 224.171v15.642c0 11.091-8.996 20.087-20.087 20.087h-33.047c11.101 0 20.098-8.996 20.098-20.087v-15.642c0-36.733-28.709-66.767-64.919-68.872 1.346-.075 2.703-.118 4.071-.118h24.895c38.101 0 68.989 30.889 68.989 68.99z" fill="#ba5d4f"/></g></g><g><g><g><path d="m300.415 504.5c55.676 0 100.971-45.296 100.971-100.971v-38.659c0-13.77-11.163-24.933-24.933-24.933s-24.933 11.163-24.933 24.933v38.658c0 28.179-22.925 51.105-51.105 51.105h-105.1v49.867z" fill="#fee7c9"/></g><g><path d="m401.387 406.384v-41.514c0-13.77-11.163-24.933-24.933-24.933s-24.934 11.163-24.934 24.933v41.514z" fill="#ffd496"/></g><path d="m436.865 383.902h-122.698c-11.097 0-20.093-8.996-20.093-20.093v-15.636c0-38.104 30.889-68.993 68.993-68.993h24.899c38.104 0 68.993 30.889 68.993 68.993v15.636c-.001 11.097-8.997 20.093-20.094 20.093z" fill="#c86f5c"/><path d="m456.954 348.171v15.642c0 11.091-8.996 20.087-20.087 20.087h-33.047c11.101 0 20.098-8.996 20.098-20.087v-15.642c0-36.733-28.709-66.767-64.919-68.872 1.346-.075 2.703-.118 4.071-.118h24.895c38.1 0 68.989 30.889 68.989 68.99z" fill="#ba5d4f"/></g></g><g><g><g><path d="m199.406 504.5c13.77 0 24.933-11.163 24.933-24.933s-11.163-24.933-24.933-24.933c-28.179 0-51.105-22.925-51.105-51.105v-82.659c0-13.77-11.163-24.933-24.933-24.933s-24.934 11.163-24.934 24.933v82.658c0 55.676 45.296 100.972 100.972 100.972z" fill="#d5887a"/></g><g><path d="m98.434 362.384v-41.514c0-13.77 11.163-24.933 24.933-24.933s24.933 11.163 24.933 24.933v41.514z" fill="#c86f5c"/></g><path d="m176.479 340.071h-104.349c-9.438 0-17.089-7.651-17.089-17.089v-13.298c0-32.405 26.27-58.675 58.675-58.675h21.175c32.405 0 58.675 26.27 58.675 58.675v13.298c.002 9.439-7.649 17.089-17.087 17.089z" fill="#ba5d4f"/><path d="m193.564 309.684v13.303c0 9.432-7.651 17.083-17.083 17.083h-28.105c9.441 0 17.092-7.651 17.092-17.083v-13.303c0-31.24-24.416-56.783-55.211-58.573 1.145-.064 2.299-.1 3.462-.1h21.172c32.403 0 58.673 26.27 58.673 58.673z" fill="#a34f41"/></g></g></g></g></g><g><path d="m393.609 271.907c-4.121-.304-7.725 2.803-8.027 6.933-.302 4.131 2.802 7.725 6.933 8.027 31.931 2.334 56.943 29.263 56.943 61.305v15.636c0 6.944-5.649 12.594-12.593 12.594h-15.448v-44.861c0-4.142-3.358-7.5-7.5-7.5s-7.5 3.358-7.5 7.5v44.861h-16.41v-11.259c0-4.142-3.358-7.5-7.5-7.5s-7.5 3.358-7.5 7.5v11.259h-23.174v-23.027c0-4.142-3.358-7.5-7.5-7.5s-7.5 3.358-7.5 7.5v23.027h-22.665c-6.944 0-12.593-5.649-12.593-12.594v-15.636c0-15.444 5.75-30.208 16.19-41.572 10.378-11.296 24.472-18.275 39.684-19.652 4.125-.373 7.167-4.02 6.793-8.145-.373-4.125-4.021-7.165-8.145-6.794-14.81 1.341-28.754 6.96-40.307 16.06v-20.667h27.974c15.215 0 27.593-12.378 27.593-27.594v-15.636c0-13.034-3.352-25.919-9.694-37.264-2.021-3.616-6.591-4.909-10.206-2.887-3.615 2.021-4.908 6.59-2.887 10.206 5.094 9.113 7.787 19.468 7.787 29.945v15.636c0 6.944-5.649 12.594-12.593 12.594h-52.911v-27.522c0-4.142-3.358-7.5-7.5-7.5s-7.5 3.358-7.5 7.5v27.522h-4.986v-11.259c0-4.142-3.358-7.5-7.5-7.5s-7.5 3.358-7.5 7.5v11.259h-34.8c-6.944 0-12.593-5.649-12.593-12.594v-15.636c0-33.907 27.585-61.493 61.493-61.493h24.899c10.923 0 21.665 2.915 31.062 8.43 3.572 2.095 8.168.9 10.265-2.673 2.096-3.573.899-8.168-2.673-10.265-11.698-6.864-25.064-10.492-38.654-10.492h-17.468v-27.958h27.979c15.215 0 27.593-12.378 27.593-27.593v-15.635c-.001-42.179-34.315-76.493-76.493-76.493h-24.899c-42.178 0-76.493 34.314-76.493 76.493v15.636c0 5.577 1.668 10.768 4.524 15.113-29.654 8.166-51.506 35.355-51.506 67.569v14.752c0 14.187 11.542 25.728 25.729 25.728h31.718v35.777c-9.172-4.817-19.598-7.557-30.657-7.557h-21.175c-36.489 0-66.175 29.686-66.175 66.175v13.297c0 13.558 11.03 24.588 24.588 24.588h18.804v10.169c0 4.142 3.358 7.5 7.5 7.5s7.5-3.358 7.5-7.5v-10.169h10.87v24.85c0 4.142 3.358 7.5 7.5 7.5s7.5-3.358 7.5-7.5v-24.85h8.996v55.958c0 7.398 1.392 14.474 3.905 20.997.094.289.206.573.337.853 8.681 21.521 29.771 36.755 54.364 36.755 9.613 0 17.433 7.821 17.433 17.434s-7.821 17.432-17.434 17.432c-51.54 0-93.471-41.931-93.471-93.471v-9.499c0-4.142-3.358-7.5-7.5-7.5s-7.5 3.358-7.5 7.5v9.499c0 58.877 47.152 106.948 105.677 108.436.232.022.466.036.704.036h103.101c59.811 0 108.471-48.66 108.471-108.471v-12.127h27.978c15.215 0 27.593-12.378 27.593-27.594v-15.636c-.001-39.862-31.122-73.361-70.85-76.266zm-77.819 131.623v-12.128h28.23v12.127c0 21.867-16.181 40.021-37.198 43.13 5.883-13.553 8.968-28.256 8.968-43.129zm-15-99.743c-9.211 12.895-14.216 28.341-14.216 44.386v15.636c0 10.364 5.746 19.407 14.216 24.123v15.599c0 15.215-3.731 30.225-10.813 43.604h-43.562c11.963-10.736 19.505-26.304 19.505-43.604v-136.129h8.996v25.019c0 4.142 3.358 7.5 7.5 7.5s7.5-3.358 7.5-7.5v-25.019h10.875v36.385zm-73.259 81.446v-117.831h23.389v136.128c0 24.041-19.563 43.6-43.61 43.6-.023 0-.045.003-.068.003 0 0-7.411 0-7.837 0-6.846 0-13.327-1.59-19.098-4.414 26.885-5.314 47.224-29.066 47.224-57.486zm34.866-237.176c-12.807 1.264-24.694 5.701-34.867 12.51v-40.845h34.867zm-92.312-71.564c0-33.908 27.585-61.493 61.493-61.493h24.899c33.907 0 61.493 27.585 61.493 61.493v15.636c0 6.944-5.649 12.593-12.593 12.593h-72.897v-11.259c0-4.142-3.358-7.5-7.5-7.5s-7.5 3.358-7.5 7.5v11.258h-10.371v-27.521c0-4.142-3.358-7.5-7.5-7.5s-7.5 3.358-7.5 7.5v27.521h-9.429c-6.944 0-12.594-5.649-12.594-12.593v-15.635zm-46.982 113.07v-14.753c0-30.376 24.712-55.088 55.088-55.088h34.339v54.013c-6.732 7.657-11.958 16.661-15.219 26.556h-11.815v-11.258c0-4.142-3.358-7.5-7.5-7.5s-7.5 3.358-7.5 7.5v11.258h-10.371v-27.522c0-4.142-3.358-7.5-7.5-7.5s-7.5 3.358-7.5 7.5v27.522h-11.294c-5.915 0-10.728-4.813-10.728-10.728zm57.446 25.728h13.457c-.339 2.916-.532 5.876-.532 8.882v15.636c0 12.236 8.009 22.632 19.057 26.236v119.189c0 24.043-19.561 43.604-43.604 43.604-1.591 0-3.175.128-4.74.358-1.131-1.548-2.169-3.167-3.091-4.859 12.272-11.059 19.455-26.91 19.455-43.534v-33.573c11.628-1.946 20.519-12.074 20.519-24.245v-13.297c0-18.797-7.891-35.775-20.519-47.834v-46.563zm-118.007 107.692v-13.297c0-28.218 22.957-51.175 51.175-51.175h21.175c28.218 0 51.175 22.957 51.175 51.175v13.297c0 5.287-4.302 9.588-9.589 9.588h-10.311v-11.428c0-4.142-3.358-7.5-7.5-7.5s-7.5 3.358-7.5 7.5v11.428h-9.778v-27.691c0-4.142-3.358-7.5-7.5-7.5s-7.5 3.358-7.5 7.5v27.691h-54.259c-5.287 0-9.588-4.301-9.588-9.588zm103.007 24.588v33.23c0 9.918-3.451 19.464-9.529 27.107-.144-1.441-.22-2.902-.22-4.38v-55.958h9.749zm228.338 55.958c0 51.54-41.931 93.471-93.471 93.471h-73.682c1.927-3.011 3.37-6.357 4.22-9.933h21.466c4.142 0 7.5-3.358 7.5-7.5s-3.358-7.5-7.5-7.5h-21.466c-.85-3.576-2.293-6.923-4.22-9.934h73.682c32.314 0 58.604-26.29 58.604-58.604v-12.127h8.996v13.019c0 4.142 3.358 7.5 7.5 7.5s7.5-3.358 7.5-7.5v-13.019h10.871z"/><path d="m294.074 472.067h-11.659c-4.142 0-7.5 3.358-7.5 7.5s3.358 7.5 7.5 7.5h11.659c4.142 0 7.5-3.358 7.5-7.5s-3.358-7.5-7.5-7.5z"/></g></g></svg>