<?xml version="1.0" encoding="iso-8859-1"?>
<!-- Generator: Adobe Illustrator 19.0.0, SVG Export Plug-In . SVG Version: 6.00 Build 0)  -->
<svg xmlns="http://www.w3.org/2000/svg" xmlns:xlink="http://www.w3.org/1999/xlink" version="1.1" id="Layer_1" x="0px" y="0px" viewBox="0 0 500.494 500.494" style="enable-background:new 0 0 500.494 500.494;" xml:space="preserve" width="512" height="512">
<g>
	<g>
		<path style="fill:#FF933B;" d="M449.959,278.354c0,6.03-0.25,12-0.74,17.91c-9.1,110.16-101.39,196.73-213.9,196.73    c-118.54,0-214.64-96.1-214.64-214.64c0-106.42,77.45-194.73,179.06-211.69c-0.08-0.97-0.13-1.95-0.13-2.95    c0-19.72,15.99-35.71,35.71-35.71c19.72,0,35.71,15.99,35.71,35.71c0,1-0.05,1.98-0.13,2.95c2.14,0.36,4.26,0.74,6.37,1.17    C375.729,87.344,449.959,174.174,449.959,278.354z"/>
		<path style="fill:#ED761D;" d="M449.959,278.354c0,6.03-0.25,12-0.74,17.91c-32.56-3.94-192.85-87.01-178.19-206.25    c1.03-8.42,3.16-15.78,6.24-22.18C375.729,87.344,449.959,174.174,449.959,278.354z"/>
		<path style="fill:#ED761D;" d="M235.319,492.995c-118.54,0-214.64-96.1-214.64-214.64c0-106.42,77.45-194.73,179.06-211.69    c-0.08-0.97-0.13-1.95-0.13-2.95c0-19.72,15.99-35.71,35.71-35.71c-9.61,0-17.4,15.99-17.4,35.71c0,1,0.03,1.98,0.07,2.95    c-49.5,16.96-87.24,105.27-87.24,211.69C130.749,396.895,177.569,492.995,235.319,492.995z"/>
		<path style="fill:#70D65B;" d="M479.819,252.504c-59.59-8.93-116.94-36.32-162.81-82.19c-45.88-45.88-73.26-103.23-82.19-162.81    c59.59,8.92,116.94,36.31,162.81,82.18C443.509,135.564,470.889,192.914,479.819,252.504z"/>
		<path style="fill:#58B741;" d="M479.819,252.504c-59.59-8.93-116.94-36.32-162.81-82.19c-45.88-45.88-73.26-103.23-82.19-162.81    L479.819,252.504z"/>
	</g>
	<g>
		<path d="M487.236,251.389c-3.986-26.607-11.523-52.518-22.402-77.012c-1.682-3.786-6.115-5.491-9.899-3.81    c-3.786,1.681-5.491,6.113-3.81,9.899c8.93,20.104,15.489,41.215,19.549,62.892c-56.386-10.53-107.501-37.483-148.365-78.347    c-37.587-37.587-63.391-83.844-75.485-134.899l61.848,61.848v34.401c0,4.142,3.358,7.5,7.5,7.5s7.5-3.358,7.5-7.5v-19.401    l32.708,32.708v34.4c0,4.142,3.358,7.5,7.5,7.5s7.5-3.358,7.5-7.5v-19.4l28.918,28.918c1.464,1.465,3.384,2.197,5.303,2.197    s3.839-0.732,5.303-2.197c2.929-2.929,2.929-7.677,0-10.606l-28.919-28.918h21.966c4.142,0,7.5-3.358,7.5-7.5s-3.358-7.5-7.5-7.5    h-36.966l-32.708-32.708h21.966c4.142,0,7.5-3.358,7.5-7.5s-3.358-7.5-7.5-7.5h-36.966L257.43,19.504    c51.055,12.094,97.313,37.898,134.899,75.485c17.763,17.763,33.063,37.702,45.475,59.263c2.066,3.59,6.653,4.824,10.242,2.758    c3.59-2.067,4.825-6.652,2.758-10.242c-13.069-22.702-29.174-43.692-47.869-62.386C357.32,38.767,299.57,9.617,235.93,0.083    c-2.353-0.352-4.733,0.432-6.415,2.114c-1.682,1.682-2.466,4.062-2.114,6.414c0.618,4.123,1.322,8.22,2.103,12.292    c-20.013,2.703-35.726,19.152-37.273,39.505c-48.792,9.611-93.278,35.611-125.83,73.681    c-34.323,40.143-53.226,91.377-53.226,144.267c0,66.537,29.463,129.014,80.836,171.41c1.398,1.154,3.088,1.716,4.77,1.716    c2.161,0,4.306-0.93,5.789-2.726c2.636-3.195,2.184-7.922-1.011-10.558c-47.908-39.537-75.384-97.797-75.384-159.842    c0-49.317,17.625-97.09,49.627-134.519c31.653-37.021,75.396-61.8,123.168-69.774c3.848-0.642,6.561-4.127,6.24-8.015    c-0.07-0.852-0.104-1.615-0.104-2.333c0-14.681,11.274-26.773,25.618-28.086c12.933,52.947,39.91,100.92,78.978,139.988    c36.359,36.359,80.431,62.243,129.046,76.085c1.129,8.795,1.707,17.737,1.707,26.653c0,114.218-92.922,207.14-207.14,207.14    c-37.875,0-74.926-10.314-107.146-29.828c-3.545-2.146-8.155-1.013-10.3,2.53c-2.146,3.543-1.013,8.155,2.53,10.301    c34.564,20.933,74.301,31.998,114.917,31.998c59.338,0,115.124-23.107,157.08-65.064c41.955-41.956,65.06-97.74,65.06-157.076    c0-7.567-0.393-15.153-1.155-22.667c7.38,1.68,14.85,3.098,22.407,4.23c0.371,0.055,0.742,0.083,1.112,0.083    c1.974,0,3.886-0.78,5.303-2.197C486.804,256.121,487.588,253.741,487.236,251.389z"/>
		<path d="M60.79,356.791c-4.879,4.523-1.596,13.005,5.09,13.005c3.818,0,7.078-2.975,7.463-6.765    C74.023,356.339,65.743,352.2,60.79,356.791z"/>
		<path d="M92.6,373.947c3.473,0,6.552-2.486,7.311-5.861c0.702-3.121-0.711-6.432-3.458-8.074    c-2.803-1.676-6.464-1.316-8.889,0.874C82.581,365.385,85.905,373.947,92.6,373.947z"/>
		<path d="M77.87,393.517c3.803,0,7.097-2.975,7.464-6.765c0.628-6.493-7.123-10.669-12.192-6.549    c-2.442,1.985-3.391,5.379-2.325,8.342C71.875,391.486,74.741,393.517,77.87,393.517z"/>
		<path d="M395.21,252.752c-5.503,4.268-2.375,13.415,4.61,13.415c3.567,0,6.7-2.625,7.367-6.114    C408.46,253.386,400.543,248.615,395.21,252.752z"/>
		<path d="M424.52,277.157c3.804,0,7.101-2.971,7.464-6.765c0.615-6.438-6.988-10.622-12.101-6.622    c-2.502,1.957-3.493,5.431-2.416,8.416C418.53,275.131,421.38,277.157,424.52,277.157z"/>
		<path d="M400.429,278.901c-2.37,1.953-3.314,5.227-2.355,8.143c0.998,3.036,3.915,5.152,7.117,5.152c3.55,0,6.642-2.582,7.35-6.04    C413.924,279.397,405.732,274.531,400.429,278.901z"/>
		<path d="M136.42,154.576c3.331,0,6.328-2.296,7.222-5.499c0.847-3.036-0.368-6.351-2.94-8.155    c-2.665-1.869-6.372-1.75-8.922,0.265c-2.503,1.978-3.485,5.409-2.418,8.417C130.405,152.545,133.299,154.576,136.42,154.576z"/>
		<path d="M150.488,121.114c-2.681,1.891-3.816,5.362-2.805,8.48c0.984,3.033,3.926,5.152,7.116,5.152    c3.401,0,6.442-2.386,7.272-5.682C163.736,122.456,156.033,117.205,150.488,121.114z"/>
		<path d="M155.731,152.925c1.049,2.947,3.93,4.971,7.059,4.971c3.453,0,6.519-2.452,7.302-5.805    c1.583-6.774-6.489-11.831-11.943-7.581C155.639,146.466,154.667,149.936,155.731,152.925z"/>
	</g>
</g>















</svg>
