<svg height="480pt" viewBox="-15 0 480 480.00008" width="480pt" xmlns="http://www.w3.org/2000/svg"><g fill="#58af7a"><path d="m156.25 236.625-10.398438-4.167969c-7.585937-3.039062-11.929687-11.050781-10.328124-19.066406 1.835937-9.179687 10.769531-15.132813 19.949218-13.292969l2.167969.429688c2.863281.578125 5.832031-.164063 8.09375-2.011719 2.257813-1.851563 3.566406-4.621094 3.5625-7.539063 0-3-1.382813-5.832031-3.746094-7.675781-2.367187-1.84375-5.449219-2.5-8.355469-1.773437-7.847656 1.960937-16.152343.726562-23.089843-3.429688l-3.847657-2.3125c-9.78125-5.871094-15.769531-16.441406-15.769531-27.847656v-4.167969c.003907-12.300781 6.953125-23.546875 17.953125-29.050781 11.328125-5.664062 24.917969-4.222656 34.808594 3.6875l10.273438 8.21875c2.554687 2.046875 5.738281 3.164062 9.015624 3.160156h.796876c4.445312.007813 8.644531-2.035156 11.378906-5.539062 2.738281-3.503906 3.703125-8.074219 2.613281-12.382813-1.019531-4.085937-3.773437-7.519531-7.542969-9.398437l-19.199218-9.601563c-7.003907-3.488281-11.429688-10.640625-11.433594-18.464843 0-5.980469 2.59375-11.667969 7.109375-15.585938 4.519531-3.917969 10.515625-5.683594 16.4375-4.835938l19.078125 2.71875-8.222656-12.359374c-2.558594-3.839844-3.921876-8.351563-3.921876-12.96875 0-12.902344 10.457032-23.363282 23.359376-23.367188h14.160156c12.902344.003906 23.363281 10.464844 23.363281 23.367188 0 4.617187-1.363281 9.128906-3.921875 12.96875l-8.238281 12.375 19.078125-2.71875c5.914062-.839844 11.90625.925781 16.417968 4.839843 4.511719 3.914063 7.105469 9.59375 7.109376 15.566407.003906 7.820312-4.414063 14.96875-11.40625 18.464843l-19.199219 9.601563c-3.769531 1.878906-6.527344 5.3125-7.546875 9.398437-1.085938 4.308594-.121094 8.878907 2.613281 12.382813s6.9375 5.546875 11.378906 5.539062h.800781c3.273438 0 6.453126-1.113281 9.007813-3.160156l10.304687-8.226562c9.894532-7.910157 23.484376-9.351563 34.816407-3.6875 11 5.503906 17.949219 16.75 17.953125 29.050781v4.167969c-.007813 11.40625-5.992188 21.972656-15.769532 27.847656l-3.847656 2.3125c-6.9375 4.15625-15.242187 5.390625-23.089844 3.429687-2.910156-.730469-5.992187-.078125-8.355468 1.769531-2.367188 1.847657-3.75 4.679688-3.746094 7.679688-.003906 2.917969 1.304688 5.683594 3.5625 7.535156 2.253906 1.847656 5.222656 2.589844 8.085938 2.015625l2.175781-.429687c9.179687-1.839844 18.109375 4.113281 19.941406 13.292968 1.609375 8.011719-2.730469 16.03125-10.320313 19.066407l-14.773437 5.902343c-21.757813 8.707032-41.339844 22.074219-57.378906 39.160157l-4.574219 4.878906h-6.089844c-16.992187-20.230469-38.722656-35.953125-63.253906-45.765625zm0 0"/><path d="m298.488281 393.601562 11.203125 14.992188c3.476563 4.644531 8.925782 7.398438 14.726563 7.4375 5.71875.042969 11.132812-2.550781 14.683593-7.03125 3.550782-4.480469 4.839844-10.347656 3.492188-15.902344-.640625-2.644531.375-5.410156 2.570312-7.015625 2.195313-1.601562 5.140626-1.722656 7.460938-.304687l5.464844 3.335937 10.480468 9.65625c6.496094 6.003907 15.980469 7.484375 24 3.742188 5.871094-2.730469 10.222657-7.929688 11.878907-14.1875 1.65625-6.257813.441406-12.929688-3.3125-18.203125l-2.816407-4c-3.960937-5.546875-2.996093-13.210938 2.21875-17.601563 2.847657-2.410156 6.59375-3.480469 10.285157-2.945312l13.082031 1.875c5.335938.765625 10.703125-1.164063 14.332031-5.152344 3.625-3.988281 5.039063-9.511719 3.773438-14.753906l-1.890625-7.773438-4.34375-17.921875c-1.269532-5.238281-5.054688-9.507812-10.105469-11.394531s-10.707031-1.144531-15.101563 1.980469l-10.769531 7.664062c-3.039062 2.160156-6.859375 2.917969-10.496093 2.085938-6.621094-1.523438-10.96875-7.867188-10.007813-14.589844l.6875-4.800781c.914063-6.402344-1.0625-12.875-5.398437-17.675781-4.332032-4.796876-10.570313-7.421876-17.03125-7.164063-8.824219.351563-16.5625 6-19.59375 14.296875l-4.917969 13.351562-3.335938 5.46875c-1.417969 2.320313-4.089843 3.554688-6.773437 3.136719-2.683594-.421875-4.851563-2.414062-5.492188-5.054687-1.347656-5.554688-5.179687-10.179688-10.390625-12.535156-5.207031-2.355469-11.210937-2.183594-16.273437.472656-5.136719 2.691406-8.722656 7.628906-9.6875 13.351562l-3.59375 21.292969c-3.179688 18.878906-14.34375 35.464844-30.628906 45.523437l-3.015626 1.863282 1.886719 7.773437c20.792969.164063 40.3125 10.042969 52.75 26.707031zm0 0"/><path d="m151.953125 393.601562-11.199219 14.992188c-3.476562 4.644531-8.925781 7.398438-14.726562 7.4375-5.71875.039062-11.132813-2.554688-14.683594-7.035156-3.550781-4.480469-4.839844-10.34375-3.492188-15.898438.640626-2.644531-.375-5.410156-2.570312-7.015625-2.199219-1.601562-5.144531-1.722656-7.464844-.304687l-5.460937 3.335937-10.472657 9.65625c-6.5 6-15.980468 7.480469-24 3.742188-5.871093-2.730469-10.222656-7.929688-11.878906-14.1875-1.65625-6.257813-.441406-12.929688 3.308594-18.203125l2.816406-4c3.96875-5.546875 3.003906-13.207032-2.207031-17.601563-2.863281-2.40625-6.621094-3.46875-10.320313-2.917969l-13.078124 1.871094c-5.335938.765625-10.707032-1.160156-14.332032-5.148437s-5.035156-9.519531-3.765625-14.757813l1.878907-7.773437 4.34375-17.921875c1.277343-5.234375 5.066406-9.496094 10.113281-11.378906 5.050781-1.882813 10.707031-1.136719 15.097656 1.988281l10.765625 7.664062c3.046875 2.160157 6.867188 2.917969 10.503906 2.085938 6.617188-1.527344 10.964844-7.867188 10-14.589844l-.6875-4.800781c-.917968-6.40625 1.054688-12.894532 5.394532-17.699219 4.335937-4.804687 10.585937-7.433594 17.054687-7.171875 8.824219.351562 16.5625 6 19.589844 14.296875l4.890625 13.382813 3.335937 5.472656c1.410157 2.324218 4.085938 3.566406 6.773438 3.144531 2.6875-.417969 4.855469-2.421875 5.488281-5.066406 1.347656-5.558594 5.175781-10.183594 10.386719-12.542969 5.207031-2.363281 11.214843-2.191406 16.277343.464844 5.136719 2.691406 8.722657 7.632812 9.6875 13.351562l3.59375 21.296875c3.179688 18.875 14.347657 35.464844 30.640626 45.519531l3.007812 1.863282-1.878906 7.777344c-20.78125.160156-40.289063 10.027343-52.730469 26.671874zm0 0"/></g><path d="m241.832031 351.664062-9.085937 4.96875-.800782.269532v-68.671875l.382813-13.367188c.019531-.503906-.015625-1.007812-.09375-1.503906-9.859375-61.453125-10.144531-124.058594-.847656-185.597656l.566406-3.90625-15.824219-2.398438-.582031 3.894531c-9.503906 62.921876-9.25 126.933594.75 189.777344l-.34375 12.871094v68.894531l-12.503906-4.167969-5.121094-3.292968c-39.015625-25.238282-85.972656-35.191406-131.871094-27.953125l2.488281 15.800781c42.015626-6.601562 84.988282 2.511719 120.703126 25.597656l5.96875 3.855469c.5625.367187 1.171874.660156 1.808593.875l18.527344 6.160156v106.230469h16v-106.230469l18.527344-6.175781-.679688-2.042969c44.476563-24.285156 94.808594-35.789062 145.417969-33.230469l.800781-16c-53.675781-2.71875-107.054687 9.515626-154.1875 35.34375zm0 0" fill="#77c974"/><path d="m27.65625 355.417969 13.097656-1.882813c2.003906-.28125 3.984375.65625 5.039063 2.382813 1.054687 1.730469.976562 3.917969-.191407 5.570312l-2.824218 3.960938c-8.910156 12.429687-6.957032 29.589843 4.515625 39.703125 11.472656 10.113281 28.742187 9.894531 39.957031-.503906l9.894531-9.128907 2.34375-1.429687c-.957031 7.5625 1.378907 15.179687 6.421875 20.902344 5.039063 5.722656 12.296875 9.003906 19.921875 9.007812h.195313c8.292968-.082031 16.078125-4.015625 21.070312-10.640625l11.257813-14.960937c10.988281-14.589844 28.132812-23.25 46.398437-23.429688 2.320313-.042969 4.507813-1.105469 5.976563-2.90625l5.238281 1.746094v106.191406h16v-106.230469l7.199219-2.402343c1.46875 2.195312 3.921875 3.523437 6.5625 3.554687 18.265625.183594 35.410156 8.839844 46.398437 23.429687l11.199219 14.992188c4.988281 6.625 12.765625 10.5625 21.058594 10.65625h.191406c7.632813 0 14.898437-3.285156 19.941406-9.011719 5.042969-5.730469 7.378907-13.351562 6.410157-20.925781l2.34375 1.433594 9.886718 9.121094c11.214844 10.417968 28.496094 10.644531 39.980469.527343 11.480469-10.121093 13.429687-27.296875 4.5-39.726562l-2.816406-3.960938c-1.175781-1.652343-1.253907-3.847656-.199219-5.578125 1.054688-1.730468 3.042969-2.664062 5.046875-2.375l13.082031 1.878906c7.964844 1.144532 15.976563-1.734374 21.390625-7.6875 5.414063-5.953124 7.519531-14.203124 5.625-22.023437l-6.230469-25.671875c-1.894531-7.816406-7.542968-14.183594-15.074218-16.996094-7.535156-2.816406-15.972656-1.710937-22.527344 2.949219l-10.785156 7.648437c-1.179688.835938-2.660156 1.128907-4.070313.796876-2.554687-.605469-4.230469-3.054688-3.871093-5.65625l.6875-4.796876c2.164062-15.101562-7.429688-29.402343-22.222657-33.121093-14.796875-3.722657-30.011719 4.335937-35.25 18.664062l-4.617187 12.640625-1.429688 2.34375c-2.617187-7.203125-8.21875-12.925781-15.367187-15.699218-7.144531-2.769532-15.140625-2.316407-21.929688 1.242187-7.34375 3.867187-12.46875 10.929687-13.863281 19.113281l-3.59375 21.296875c-2.808594 16.605469-12.632812 31.195313-26.960938 40.046875l-3.007812 1.855469c-.59375.390625-1.132812.863281-1.597656 1.398437l-5.28125 2.890626-.800782.261718v-68.878906h-.710937c.054687-.054688.128906-.070312.183594-.128906l4.578125-4.871094c15.253906-16.214844 33.859375-28.910156 54.519531-37.207031l14.765625-5.914063c11.96875-4.792968 18.3125-17.914062 14.636719-30.269531-3.671875-12.359375-16.152344-19.882813-28.796875-17.359375l-2.167969.4375c-.511719.09375-1.039063-.035156-1.445313-.359375-.40625-.332031-.640624-.828125-.632812-1.351563 0-.535156.246094-1.042968.667969-1.371093.421875-.332031.972656-.449219 1.492187-.316407 9.902344 2.496094 20.394532.933594 29.144532-4.335937l3.847656-2.304687c12.160156-7.347657 19.605468-20.503907 19.648437-34.710938v-4.167969c0-15.558593-8.921875-29.742187-22.945312-36.480469-14.023438-6.738281-30.667969-4.84375-42.816407 4.878907l-10.261718 8.207031c-1.136719.914062-2.546875 1.414062-4 1.417969h-.800782c-3.007812.046875-5.640624-2.003907-6.332031-4.929688-.6875-2.925781.75-5.9375 3.460938-7.238281l19.199219-9.601562c12.566406-6.273438 18.722656-20.738282 14.535156-34.140626-4.1875-13.40625-17.480469-21.796874-31.382813-19.800781l-1.539062.214844c5.261719-9.734375 5.007812-21.519531-.667969-31.019531-5.675781-9.496094-15.9375-15.3007815-27.003906-15.277344h-19.261719c-1.730469 0-3.417969.5625-4.800781 1.601562-8.800782 2.925782-15.855469 9.59375-19.269532 18.214844-3.414062 8.625-2.839843 18.316406 1.574219 26.472656l-1.542969-.21875c-13.890624-1.96875-27.15625 6.417969-31.339843 19.808594-4.183594 13.386719 1.953125 27.832032 14.488281 34.121094l19.203125 9.601562c2.707031 1.300782 4.148437 4.3125 3.457031 7.238282-.691406 2.925781-3.324218 4.976562-6.332031 4.929687h-.796875c-1.453125-.007812-2.863281-.503906-4-1.410156l-10.273438-8.214844c-12.148437-9.722656-28.792968-11.621093-42.816406-4.878906-14.023437 6.738281-22.945312 20.917969-22.945312 36.476563v4.167968c.042968 14.210938 7.492187 27.371094 19.65625 34.714844l3.847656 2.304688c8.746094 5.269531 19.234375 6.832031 29.136719 4.335937.523437-.136719 1.082031-.019531 1.503906.320313.414063.328124.652344.828124.652344 1.359374 0 .527344-.238281 1.027344-.652344 1.359376-.398437.328124-.921875.460937-1.429687.359374l-2.183594-.441406c-12.644532-2.519531-25.125 5.003906-28.796875 17.363282-3.675781 12.355468 2.667969 25.476562 14.636719 30.269531l10.398437 4.167969c23.296875 9.34375 43.9375 24.28125 60.089844 43.496093.71875.828125 1.597656 1.503907 2.582031 1.984375v67.367188l-1.960938-.648438c-.613281-1.613281-1.738281-2.984375-3.199218-3.902344l-3.015625-1.855468c-14.328125-8.851563-24.148438-23.441406-26.953125-40.046875l-3.589844-21.296875c-1.398438-8.179688-6.523438-15.246094-13.863281-19.113282-6.792969-3.558593-14.789063-4.011718-21.9375-1.242187-7.144531 2.769531-12.75 8.492187-15.367188 15.699219l-1.425781-2.34375-4.625-12.640625c-5.234375-14.328125-20.453125-22.386719-35.246094-18.664063-14.796875 3.71875-24.390625 18.019532-22.222656 33.121094l.695312 4.796875c.28125 2.007813-.65625 3.988281-2.382812 5.039063-1.726562 1.054687-3.917969.980468-5.570312-.1875l-10.769532-7.664063c-6.554687-4.65625-14.992187-5.757813-22.523437-2.945313-7.53125 2.816407-13.175781 9.179688-15.074219 16.992188l-6.222656 25.695312c-1.894532 7.816407.210937 16.066407 5.621094 22.019532 5.410156 5.953125 13.421874 8.835937 21.386718 7.691406zm257.730469-42.3125 3.589843-21.304688c.5625-3.253906 2.601563-6.058593 5.519532-7.601562 2.886718-1.519531 6.3125-1.621094 9.28125-.277344 2.972656 1.339844 5.15625 3.980469 5.921875 7.148437 1.402343 5.789063 6.148437 10.160157 12.03125 11.078126 5.882812.921874 11.738281-1.792969 14.839843-6.875l3.335938-5.472657c.273438-.453125.503906-.929687.6875-1.425781l4.886719-13.375c2.421875-6.636719 9.46875-10.367188 16.320312-8.648438 6.851563 1.722657 11.292969 8.34375 10.289063 15.335938l-.695313 4.800781c-1.195312 8.339844 2.691407 16.59375 9.886719 20.980469 7.191406 4.386719 16.308594 4.066406 23.175781-.8125l10.769531-7.664062c2.230469-1.59375 5.109376-1.96875 7.675782-1.007813 2.566406.964844 4.488281 3.140625 5.125 5.808594l6.230468 25.6875c.644532 2.660156-.074218 5.464843-1.914062 7.492187-1.84375 2.023438-4.566406 3.007813-7.277344 2.621094l-13.113281-1.890625c-8.339844-1.195313-16.589844 2.691406-20.976563 9.882813-4.386718 7.195312-4.066406 16.308593.816407 23.175781l2.816406 4c4.109375 5.753906 3.195313 13.6875-2.109375 18.359375-5.308594 4.675781-13.289062 4.578125-18.480469-.226563l-10.480469-9.695312c-.390624-.351563-.808593-.667969-1.257812-.941407l-5.472656-3.335937c-5.082032-3.101563-11.535156-2.832031-16.34375.679687-4.808594 3.507813-7.027344 9.570313-5.621094 15.359376.773438 3.160156.042969 6.5-1.984375 9.046874-1.972656 2.613282-5.089844 4.105469-8.363281 4-3.296875-.035156-6.390625-1.597656-8.375-4.230468l-11.199219-14.992188c-11.035156-14.621094-27.050781-24.683594-45.007813-28.289062 41.96875-20.78125 88.558594-30.476563 135.335938-28.160156l.800781-16c-40.210937-2.039063-80.40625 4.304687-118.03125 18.632812 3.578125-6.859375 6.0625-14.238281 7.367188-21.863281zm-126.160157-83.90625-10.402343-4.167969c-3.980469-1.59375-6.277344-5.789062-5.464844-10 .808594-4.214844 4.496094-7.261719 8.785156-7.261719.589844.003907 1.175781.0625 1.753907.175781l2.191406.4375c7.144531 1.441407 14.441406-1.632812 18.402344-7.75 3.957031-6.117187 3.777343-14.035156-.460938-19.964843-4.238281-5.925781-11.671875-8.660157-18.742188-6.890625-5.8125 1.46875-11.972656.539062-17.09375-2.578125l-3.847656-2.304688c-7.355468-4.441406-11.863281-12.398437-11.890625-20.992187v-4.167969c.003907-9.40625 5.398438-17.980469 13.878907-22.054687 8.476562-4.074219 18.542968-2.929688 25.890624 2.945312l10.269532 8.222656c3.980468 3.171875 8.917968 4.902344 14.007812 4.914063h.800782c10.425781.042969 19.503906-7.109375 21.898437-17.257813 2.394531-10.144531-2.527344-20.601562-11.875-25.222656l-19.199219-9.601562c-5.535156-2.773438-8.246094-9.152344-6.398437-15.0625 1.847656-5.910157 7.707031-9.609376 13.839843-8.738282l19.070313 2.730469c3.125.445313 6.214844-.984375 7.898437-3.652344 1.683594-2.667969 1.640626-6.074219-.105468-8.699219l-8.230469-12.363281c-3.148437-4.714843-3.441406-10.78125-.765625-15.78125 2.675781-4.996093 7.886719-8.117187 13.554688-8.113281h14.160156c5.671875 0 10.878906 3.117188 13.554687 8.117188 2.679688 4.996093 2.386719 11.058593-.753906 15.777343l-8.269531 12.386719c-1.746094 2.625-1.789063 6.027344-.109375 8.695312 1.679687 2.667969 4.769531 4.097657 7.890625 3.65625l19.082031-2.730468c6.128906-.867188 11.984375 2.835937 13.828125 8.742187 1.84375 5.910157-.863281 12.285157-6.398438 15.058594l-19.199218 9.601563c-9.34375 4.621093-14.269532 15.078124-11.875 25.222656 2.394531 10.148437 11.472656 17.300781 21.898437 17.257812h.800781c5.09375-.007812 10.03125-1.742187 14.007813-4.921875l10.273437-8.214843c7.34375-5.878907 17.410157-7.023438 25.890626-2.949219 8.476562 4.078125 13.871093 12.652343 13.867187 22.0625v4.167969c-.023437 8.589843-4.527344 16.546874-11.878906 20.992187l-3.839844 2.300781c-5.113281 3.085938-11.25 3.996094-17.039063 2.539063-7.070312-1.769531-14.503906.964843-18.742187 6.890625-4.238281 5.929687-4.417969 13.847656-.460937 19.964844 3.960937 6.117187 11.257812 9.191406 18.402343 7.75l2.167969-.4375c4.53125-.894532 8.996094 1.808593 10.3125 6.234374 1.3125 4.425782-.957031 9.128907-5.242188 10.851563l-14.765624 5.914063c-19.828126 7.96875-37.972657 19.617187-53.472657 34.328124-8.652343-58.859374-8.546875-118.671874.3125-177.496093l.558594-3.90625-15.824219-2.398438-.582031 3.894531c-8.992187 59.796876-9.175781 120.589844-.546875 180.441407-15.972656-15.78125-34.9375-28.222657-55.773438-36.59375zm-143.03125 100.273437 6.230469-25.695312c.640625-2.667969 2.558594-4.839844 5.125-5.800782 2.566407-.964843 5.441407-.589843 7.675781 1l10.757813 7.65625c6.867187 4.886719 15.980469 5.210938 23.175781.824219 7.195313-4.386719 11.085938-12.636719 9.890625-20.976562l-.6875-4.800781c-.589843-4.054688.660157-8.164063 3.414063-11.199219 2.726562-3.066407 6.695312-4.734375 10.792968-4.542969 5.589844.207031 10.492188 3.792969 12.390626 9.054688l4.898437 13.375c.179687.496093.410156.972656.679687 1.425781l3.335938 5.464843c3.09375 5.085938 8.953125 7.808594 14.835938 6.890626 5.886718-.917969 10.636718-5.292969 12.035156-11.085938.765625-3.167969 2.949218-5.808594 5.917968-7.152344 2.972657-1.339844 6.398438-1.238281 9.28125.28125 2.917969 1.542969 4.953126 4.351563 5.511719 7.601563l3.59375 21.304687c1.363281 7.941406 4.007813 15.605469 7.839844 22.695313-33.332031-14.980469-70.296875-19.953125-106.402344-14.320313l2.488281 15.800782c40.917969-6.386719 82.769532 2.128906 117.9375 24-16.515624 4.203124-31.105468 13.914062-41.359374 27.527343l-11.199219 15c-2.003907 2.640625-5.128907 4.191407-8.441407 4.199219h-.082031c-3.238281.003906-6.300781-1.480469-8.304687-4.027344-2-2.546875-2.722656-5.871094-1.957032-9.019531 1.414063-5.789063-.804687-11.859375-5.617187-15.371094-4.8125-3.515625-11.269531-3.777343-16.351563-.671875l-5.472656 3.339844c-.445312.273438-.867187.589844-1.253906.941406l-10.480469 9.664063c-5.191406 4.789062-13.160156 4.878906-18.460937.210937-5.300782-4.664062-6.222656-12.582031-2.132813-18.339844l2.824219-4c4.890625-6.863281 5.214844-15.984374.828125-23.179687-4.390625-7.195313-12.644531-11.078125-20.988281-9.875l-13.078125 1.878906c-2.703125.382813-5.421875-.59375-7.261719-2.609375-1.835938-2.019531-2.5625-4.8125-1.929688-7.46875zm0 0"/></svg>