<svg height="511pt" viewBox="-75 0 511 511.99973" width="511pt" xmlns="http://www.w3.org/2000/svg"><path d="m92.613281 144.890625c8.140625 9.589844 15.640625 19.007813 21.691407 26.820313-2.578126 1.117187-5.128907 2.378906-7.640626 3.777343-7.507812 4.191407-14.140624 9.320313-19.839843 15.160157-21.910157-27.828126-71.777344-72.589844-71.777344-72.589844-10.261719-8.847656-4.09375-41.988282 28.886719-20.667969 8.300781 5.367187 17.820312 13.980469 27.382812 23.859375 6.570313-8.089844 13.738282-18.582031 19.828125-27.992188 9.351563 4.941407 19.289063 9.371094 29.902344 12.3125-6.332031 13.070313-17.960937 27.628907-28.433594 39.320313zm0 0" fill="#ff9d6c"/><path d="m280.554688 481.46875c-65.800782 37.890625-147.230469 20.101562-181.871094-39.757812-15.097656-26.070313-18.820313-55.832032-12.769532-84.25 4.539063-21.292969.441407-43.339844-10.917968-61.882813-.382813-.617187-.75-1.25-1.121094-1.878906-19.738281-34.089844-13.351562-76.101563 12.949219-103.050781 5.699219-5.839844 12.332031-10.96875 19.839843-15.160157 2.511719-1.398437 5.0625-2.660156 7.640626-3.777343 39.332031-17.132813 86.429687-2.679688 108.761718 34.699218.820313 1.378906 1.597656 2.769532 2.339844 4.179688 10.140625 19.308594 26.949219 34.460937 47.597656 41.679687 26.519532 9.269531 49.402344 27.011719 63.980469 52.210938 34.640625 59.847656 9.378906 139.089843-56.429687 176.988281zm0 0" fill="#e2f1a1"/><path d="m260.546875 39.878906c-56.941406 67.96875-102.332031 75.960938-139.5 65.691406-10.613281-2.941406-20.550781-7.371093-29.902344-12.3125-6.949219-3.667968-13.558593-7.628906-19.878906-11.476562 93.46875-133.140625 189.28125-41.902344 189.28125-41.902344zm0 0" fill="#78d0a9"/><path d="m345.886719 300.238281c-12.304688-21.296875-30.695313-38.53125-52.589844-49.636719-11.34375-5.753906-23.75-8.773437-34.304687-16.085937-10.113282-7.007813-17.847657-16.300781-23.957032-26.914063-23.773437-41.316406-70.769531-63.480468-117.339844-47.484374-4.011718-5.113282-7.972656-10.023438-11.847656-14.71875 8.667969-10.214844 15.511719-19.589844 20.433594-28.011719 35.28125 7.199219 69.15625-5.46875 97.089844-26.726563 14.179687-10.792968 26.902344-23.433594 38.65625-36.804687 7.441406-8.464844 12.050781-15.582031 2.621094-23.765625-39.746094-34.5-97.554688-40.179688-142.425782-12.632813-15.425781 9.46875-28.945312 21.824219-40.851562 35.40625-6.242188 7.117188-13.714844 14.980469-18.242188 23.359375-6.027344 11.164063 5.757813 16.132813 13.769532 20.773438-2.292969 3.398437-4.480469 6.539062-6.5625 9.394531-13.269532-12.691406-34.859376-32.453125-54.96875-23.960937-14.101563 5.953124-18.746094 24.808593-11.445313 37.753906 5.640625 10.003906 18.054687 18.109375 26.199219 25.875 15.070312 14.367187 30.0625 29.003906 43.605468 44.847656-13.964843 17.351562-21.523437 39.464844-21.257812 61.742188.128906 11.121093 2.195312 22.226562 6.097656 32.636718 4.011719 10.6875 10.945313 19.863282 14.796875 30.597656 8.921875 24.855469-1.039062 48.394532-.015625 73.6875.984375 24.257813 8.855469 47.992188 22.851563 67.835938 56.535156 80.148438 178.652343 66.738281 235.296875-5.699219 33.546875-42.894531 42.195312-103.3125 14.390625-151.46875-15.394531-26.640625 17 29.445313 0 0zm-171.371094-280.347656c32.59375-3.316406 59.441406 12.390625 71.878906 21.40625-20.917969 23.691406-46.453125 47.300781-77.847656 55.398437-29.535156 7.621094-57.253906-2.789062-82.683594-17.664062 27.402344-36.050781 57.191407-55.941406 88.652344-59.140625 32.59375-3.320313-31.460937 3.199219 0 0zm-152.777344 91.011719c-.046875-.050782-.078125-.078125-.128906-.117188-1.808594-1.78125-1.550781-7.308594.300781-8.996094 2.457032-2.238281 6.332032-.792968 9.019532.226563 8.820312 3.351563 16.542968 10.4375 23.347656 16.765625 5.898437 5.484375 13.21875 16.960938 22.464844 11.167969 7.421874-4.65625 13.15625-16.363281 17.929687-23.496094 3.835937 1.835937 7.757813 3.53125 11.726563 5.054687-6.390626 9.886719-15.925782 18.113282-21.871094 28.070313-6.230469 10.433594 8.609375 21.800781 14.515625 29.246094-3.878907 2.375-7.609375 4.972656-11.148438 7.839843-24.046875-27.816406-64.285156-64.078124-66.15625-65.761718-.046875-.050782 1.871094 1.683594 0 0zm317.011719 282.8125c-16.210938 60.515625-77.324219 102.363281-139.191406 98.644531-58.082032-3.492187-106.652344-48.863281-106.3125-108.769531.097656-16.996094 5.648437-33.167969 4.234375-50.265625-1.421875-17.199219-8.152344-31.183594-16.128907-46.113281-13.726562-25.695313-11.199218-58.039063 6.152344-81.390626 19.207032-25.851562 53.636719-36.925781 84.304688-27.390624 13.699218 4.261718 26.101562 12.367187 35.417968 23.308593 9.75 11.449219 15.113282 25.609375 25.613282 36.625 11.59375 12.164063 25.289062 19.320313 40.703125 25.367188 15.164062 5.949219 29.039062 14.859375 40.265625 26.730469 25.957031 27.464843 34.640625 66.984374 24.941406 103.253906-4.421875 16.511718 7.753906-29.003906 0 0zm0 0"/><path d="m186.125 240.464844c-8.742188 0-13.070312-12.664063-20.136719-17.03125-6.09375-3.765625-13.296875-5.355469-20.390625-5.570313-4.066406-.121093-7.859375.660157-11.851562.976563-9.445313.742187-17.765625-10.078125-8.824219-17.460938 9.644531-7.96875 31.941406-3.363281 42.191406.503906 8.625 3.257813 16.367188 8.566407 22.265625 15.683594 5.449219 6.582032 11.910156 22.898438-3.253906 22.898438zm0 0"/><path d="m203.664062 265.027344c-12.878906 0-12.980468-20.046875-.011718-20.046875h.011718c12.878907 0 12.964844 20.046875 0 20.046875zm0 0"/></svg>