<svg id="Capa_1" enable-background="new 0 0 510.436 510.436" height="512" viewBox="0 0 510.436 510.436" width="512" xmlns="http://www.w3.org/2000/svg"><g><g><circle cx="462.72" cy="161.587" fill="#d3b5a8" r="41.649"/><path d="m438.307 159.158c0-17.959 11.381-33.269 27.312-39.116-.955-.065-1.928-.105-2.9-.105-23.002 0-41.649 18.647-41.649 41.649s18.647 41.649 41.649 41.649c5.043 0 9.876-.897 14.35-2.539-21.653-1.484-38.762-19.507-38.762-41.538z" fill="#c9a291"/><circle cx="422.734" cy="234.908" fill="#d3b5a8" r="41.649"/><path d="m399.583 234.908c0-19.822 13.86-36.413 32.408-40.621-2.976-.675-6.078-1.028-9.258-1.028-23.002 0-41.649 18.647-41.649 41.649s18.647 41.649 41.649 41.649c3.18 0 6.282-.352 9.258-1.027-18.548-4.209-32.408-20.801-32.408-40.622z" fill="#c9a291"/><circle cx="374.202" cy="301.119" fill="#d3b5a8" r="40.319"/><path d="m352.514 301.119c0-19.06 13.24-35.033 31.014-39.239-2.991-.708-6.118-1.08-9.325-1.08-22.267 0-40.319 18.052-40.319 40.319 0 22.268 18.051 40.319 40.319 40.319 3.208 0 6.334-.371 9.325-1.079-17.775-4.206-31.014-20.18-31.014-39.24z" fill="#c9a291"/><circle cx="318.891" cy="355.143" fill="#d3b5a8" r="37.091"/><path d="m298.246 355.143c0-17.657 12.342-32.437 28.868-36.179-2.646-.599-5.395-.912-8.223-.912-20.485 0-37.091 16.606-37.091 37.091s16.606 37.091 37.091 37.091c2.827 0 5.577-.31 8.223-.909-16.525-3.743-28.868-18.525-28.868-36.182z" fill="#c9a291"/><circle cx="262.232" cy="403.41" fill="#d3b5a8" r="37.091"/><path d="m242.357 401.769c0-16.269 10.493-30.089 25.066-35.089-1.693-.236-3.433-.36-5.191-.36-20.484 0-37.091 16.606-37.091 37.091s16.606 37.091 37.091 37.091c4.215 0 8.277-.707 12.053-2.003-18.032-2.521-31.928-18.004-31.928-36.73z" fill="#c9a291"/><circle cx="185.833" cy="367.319" fill="#d3b5a8" r="34.362"/><path d="m167.491 364.726c0-14.23 8.643-26.447 20.972-31.665-.871-.066-1.742-.104-2.63-.104-18.978 0-34.362 15.385-34.362 34.362s15.385 34.362 34.362 34.362c4.747 0 9.27-.963 13.383-2.704-17.744-1.348-31.725-16.161-31.725-34.251z" fill="#c9a291"/><circle cx="47.061" cy="325.775" fill="#d3b5a8" r="39.56"/><path d="m27.7 323.046c0-16.445 10.043-30.554 24.323-36.524-1.624-.203-3.283-.308-4.963-.308-21.849 0-39.561 17.712-39.561 39.561s17.712 39.56 39.561 39.56c5.404 0 10.553-1.087 15.245-3.048-19.507-2.44-34.605-19.072-34.605-39.241z" fill="#c9a291"/><circle cx="352.608" cy="456.124" fill="#d3b5a8" r="31.554"/><path d="m335.714 453.62c0-13.07 7.87-24.172 19.195-28.962-.786-.059-1.501-.21-2.302-.21-17.427 0-31.554 14.127-31.554 31.553 0 17.427 14.127 31.554 31.554 31.554 4.356 0 8.507-.76 12.282-2.357-16.314-1.217-29.175-14.953-29.175-31.578z" fill="#c9a291"/><circle cx="96.631" cy="459.786" fill="#d3b5a8" r="26.073"/><path d="m86.621 459.786c0-11.596 7.581-21.427 18.049-24.814-2.531-.819-5.236-1.259-8.039-1.259-14.4 0-26.073 11.673-26.073 26.073s11.673 26.073 26.073 26.073c2.803 0 5.487-.432 8.018-1.251-10.469-3.387-18.028-13.225-18.028-24.822z" fill="#c9a291"/><circle cx="203.553" cy="427.861" fill="#d3b5a8" r="26.092"/><path d="m192.094 426.072c0-10.728 6.484-19.944 15.738-23.954-1.391-.229-2.824-.349-4.279-.349-14.41 0-26.092 11.682-26.092 26.092s11.682 26.092 26.092 26.092c3.682 0 7.195-.766 10.371-2.143-12.377-2.04-21.83-12.784-21.83-25.738z" fill="#c9a291"/><circle cx="242.639" cy="323.046" fill="#d3b5a8" r="37.091"/><path d="m222.53 320.967c0-15.948 10.067-29.542 24.192-34.783-1.342-.147-2.703-.229-4.084-.229-20.484 0-37.091 16.606-37.091 37.091s16.606 37.091 37.091 37.091c4.536 0 8.881-.818 12.899-2.308-18.562-2.034-33.007-17.759-33.007-36.862z" fill="#c9a291"/><circle cx="296.712" cy="266.538" fill="#d3b5a8" r="40.319"/><path d="m275.344 265.221c0-18.009 11.805-33.268 28.101-38.442-2.192-.369-4.436-.56-6.734-.56-22.267 0-40.319 18.052-40.319 40.319s18.051 40.319 40.319 40.319c4.258 0 8.373-.657 12.226-1.88-19.057-3.209-33.593-19.786-33.593-39.756z" fill="#c9a291"/><circle cx="346.243" cy="200.807" fill="#d3b5a8" r="41.649"/><path d="m324.723 197.664c0-17.208 10.447-31.978 25.335-38.327-1.254-.114-2.531-.179-3.815-.179-23.002 0-41.649 18.647-41.649 41.649s18.647 41.649 41.649 41.649c5.794 0 11.31-1.186 16.323-3.323-21.217-1.924-37.843-19.75-37.843-41.469z" fill="#c9a291"/><circle cx="385.657" cy="126.875" fill="#d3b5a8" r="41.649"/><path d="m362.566 126.875c0-19.811 13.847-36.395 32.38-40.614-2.985-.679-6.098-1.034-9.289-1.034-23.002 0-41.649 18.647-41.649 41.649s18.647 41.649 41.649 41.649c3.191 0 6.304-.355 9.289-1.035-18.533-4.221-32.38-20.805-32.38-40.615z" fill="#c9a291"/></g><g><path d="m495.692 152.693c1.076 4 5.189 6.371 9.19 5.294 4-1.076 6.37-5.191 5.294-9.191-5.758-21.408-25.272-36.359-47.457-36.359-6.647 0-12.986 1.333-18.774 3.735 4.071-10.75 7.841-21.647 11.296-32.687l18.3-58.484c1.236-3.953-.966-8.161-4.919-9.397-3.95-1.239-8.161.964-9.397 4.918l-18.3 58.484c-3.053 9.756-6.377 19.388-9.926 28.911-7.435-17.716-24.957-30.191-45.341-30.191-27.101 0-49.148 22.048-49.148 49.148 0 9.075 2.482 17.577 6.788 24.88-25.733 1.53-46.202 22.941-46.202 49.052 0 6.383 1.236 12.479 3.461 18.08-1.269-.102-2.548-.168-3.844-.168-26.367 0-47.819 21.452-47.819 47.819 0 4.377.603 8.614 1.709 12.644-2.586-.469-5.245-.726-7.964-.726-24.587 0-44.591 20.003-44.591 44.591 0 1.449.075 2.88.211 4.294-3.928-1.223-8.101-1.883-12.426-1.883-23.083 0-41.862 18.779-41.862 41.862 0 18.4 11.937 34.053 28.47 39.653-3.06 1.679-6.137 3.332-9.234 4.958-3.667 1.926-5.079 6.46-3.153 10.127 1.342 2.554 3.948 4.014 6.646 4.014 1.137 0 2.29-.266 3.371-.812-.066.859-.111 1.725-.111 2.601 0 18.522 15.069 33.592 33.592 33.592 14.657 0 27.143-9.439 31.72-22.555 7.493 5.707 16.835 9.104 26.959 9.104 24.588 0 44.591-20.003 44.591-44.591 0-1.845-.126-3.66-.345-5.448 3.943 1.145 8.105 1.771 12.413 1.771 24.588 0 44.591-20.003 44.591-44.591 0-2.587-.237-5.118-.664-7.586 3.65.896 7.46 1.381 11.383 1.381 26.367 0 47.818-21.452 47.818-47.819 0-6.075-1.151-11.883-3.226-17.234 1.301.104 2.612.172 3.939.172 27.102 0 49.149-22.048 49.149-49.148 0-8.821-2.348-17.099-6.433-24.263 16.275-.918 31.278-9.977 39.623-24.128 2.104-3.568.918-8.166-2.65-10.27-3.567-2.102-8.165-.917-10.27 2.651-6.125 10.386-17.403 16.838-29.433 16.838-18.829 0-34.148-15.319-34.148-34.149s15.319-34.149 34.148-34.149c15.417 0 28.975 10.385 32.975 25.255zm-277.654 244.864c-.141-.068-.287-.128-.429-.194.164-.107.331-.211.495-.318-.025.169-.043.341-.066.512zm170.566-221.63c4.61-.274 9.049-1.189 13.233-2.653-2.628 5.011-5.314 9.991-8.093 14.921-1.158-4.356-2.903-8.473-5.14-12.268zm-47.135 73.793c1.572.152 3.163.236 4.774.236 2.568 0 5.09-.2 7.553-.581-3.109 4.154-6.278 8.271-9.508 12.35-.42-4.184-1.387-8.207-2.819-12.005zm-54.257 74.023c.004-.233.018-.463.018-.697 0-3.399-.395-6.706-1.119-9.889 3.412.776 6.957 1.199 10.601 1.199.091 0 .18-.006.27-.007-3.222 3.172-6.477 6.305-9.77 9.394zm-59.863 48.866c.22-1.734.346-3.497.346-5.29 0-.768-.024-1.53-.065-2.288 2.419.867 4.934 1.526 7.524 1.965-2.583 1.896-5.189 3.761-7.805 5.613zm46.956-17.306c.006 1.79.128 3.553.341 5.288-1.717-.499-3.474-.901-5.269-1.192 1.65-1.356 3.292-2.722 4.928-4.096zm52.29-49.881c.183 2.03.483 4.025.913 5.975-1.899-.375-3.84-.628-5.817-.752 1.643-1.731 3.28-3.469 4.904-5.223zm48.256-59.471c.592 2.567 1.381 5.057 2.359 7.454-.996-.062-1.997-.104-3.008-.104-1.631 0-3.242.083-4.831.243 1.847-2.52 3.677-5.048 5.48-7.593zm41.514-68.054c.977 2.77 2.198 5.424 3.633 7.942-2.905.16-5.74.583-8.491 1.229 1.649-3.041 3.265-6.1 4.858-9.171zm-30.708-85.171c18.829 0 34.148 15.319 34.148 34.148s-15.319 34.149-34.148 34.149-34.148-15.319-34.148-34.149 15.319-34.148 34.148-34.148zm-39.414 73.932c18.829 0 34.148 15.319 34.148 34.148s-15.319 34.149-34.148 34.149-34.148-15.319-34.148-34.149 15.319-34.148 34.148-34.148zm-49.531 67.061c18.096 0 32.818 14.723 32.818 32.819s-14.723 32.818-32.818 32.818c-18.097 0-32.819-14.722-32.819-32.818s14.722-32.819 32.819-32.819zm-54.073 59.736c16.316 0 29.591 13.274 29.591 29.591s-13.274 29.591-29.591 29.591-29.591-13.274-29.591-29.591 13.274-29.591 29.591-29.591zm-83.668 73.864c0-14.812 12.05-26.862 26.862-26.862s26.862 12.05 26.862 26.862-12.05 26.862-26.862 26.862-26.862-12.05-26.862-26.862zm44.582 79.133c-10.251 0-18.592-8.34-18.592-18.592s8.34-18.592 18.592-18.592 18.592 8.34 18.592 18.592-8.341 18.592-18.592 18.592zm58.679-13.451c-16.316 0-29.59-13.274-29.59-29.591s13.274-29.591 29.59-29.591 29.591 13.274 29.591 29.591-13.274 29.591-29.591 29.591zm56.66-48.267c-16.316 0-29.591-13.274-29.591-29.591s13.274-29.591 29.591-29.591 29.591 13.274 29.591 29.591-13.275 29.591-29.591 29.591zm55.31-50.796c-18.096 0-32.818-14.723-32.818-32.819s14.723-32.819 32.818-32.819 32.818 14.723 32.818 32.819-14.722 32.819-32.818 32.819zm48.531-64.882c-18.829 0-34.148-15.319-34.148-34.148s15.319-34.149 34.148-34.149c18.83 0 34.149 15.319 34.149 34.149s-15.319 34.148-34.149 34.148z"/><path d="m455.507 147.801c-4.143 0-7.5 3.358-7.5 7.5v6.286c0 4.142 3.357 7.5 7.5 7.5s7.5-3.358 7.5-7.5v-6.286c0-4.142-3.358-7.5-7.5-7.5z"/><path d="m415.521 221.122c-4.143 0-7.5 3.358-7.5 7.5v6.286c0 4.142 3.357 7.5 7.5 7.5s7.5-3.358 7.5-7.5v-6.286c0-4.142-3.358-7.5-7.5-7.5z"/><path d="m367.22 287.534c-4.143 0-7.5 3.358-7.5 7.5v6.084c0 4.142 3.357 7.5 7.5 7.5s7.5-3.358 7.5-7.5v-6.084c0-4.142-3.358-7.5-7.5-7.5z"/><path d="m312.468 342.045c-4.143 0-7.5 3.358-7.5 7.5v5.598c0 4.142 3.357 7.5 7.5 7.5s7.5-3.358 7.5-7.5v-5.598c0-4.142-3.358-7.5-7.5-7.5z"/><path d="m255.809 390.312c-4.142 0-7.5 3.358-7.5 7.5v5.598c0 4.142 3.358 7.5 7.5 7.5s7.5-3.358 7.5-7.5v-5.598c.001-4.142-3.358-7.5-7.5-7.5z"/><path d="m187.382 362.134c0-4.142-3.358-7.5-7.5-7.5s-7.5 3.358-7.5 7.5v5.186c0 4.142 3.358 7.5 7.5 7.5s7.5-3.358 7.5-7.5z"/><path d="m90.108 344.789c1.676-3.788-.037-8.217-3.825-9.893-3.786-1.675-8.217.036-9.893 3.825-5.136 11.611-16.648 19.113-29.33 19.113-17.678.001-32.06-14.381-32.06-32.059s14.382-32.061 32.061-32.061c12.682 0 24.194 7.502 29.33 19.113 1.676 3.789 6.105 5.502 9.893 3.825 3.788-1.675 5.501-6.104 3.825-9.893-7.536-17.037-24.433-28.045-43.047-28.045-25.951 0-47.062 21.111-47.062 47.061s21.111 47.061 47.061 47.061c18.614-.001 35.511-11.01 43.047-28.047z"/><path d="m40.209 312.304c-4.142 0-7.5 3.358-7.5 7.5v5.97c0 4.142 3.358 7.5 7.5 7.5s7.5-3.358 7.5-7.5v-5.97c0-4.142-3.357-7.5-7.5-7.5z"/><path d="m352.607 417.07c-21.534 0-39.054 17.52-39.054 39.054s17.52 39.054 39.054 39.054 39.054-17.52 39.054-39.054-17.519-39.054-39.054-39.054zm0 63.108c-13.264 0-24.054-10.791-24.054-24.054s10.79-24.054 24.054-24.054 24.054 10.791 24.054 24.054-10.79 24.054-24.054 24.054z"/><path d="m347.143 443.862c-4.143 0-7.5 3.358-7.5 7.5v4.762c0 4.142 3.357 7.5 7.5 7.5s7.5-3.358 7.5-7.5v-4.762c0-4.142-3.358-7.5-7.5-7.5z"/><path d="m96.631 426.214c-18.512 0-33.573 15.061-33.573 33.573s15.061 33.573 33.573 33.573 33.573-15.061 33.573-33.573-15.06-33.573-33.573-33.573zm0 52.145c-10.241 0-18.573-8.332-18.573-18.573s8.332-18.573 18.573-18.573 18.573 8.332 18.573 18.573-8.331 18.573-18.573 18.573z"/><path d="m236.215 330.546c4.142 0 7.5-3.358 7.5-7.5v-5.598c0-4.142-3.358-7.5-7.5-7.5s-7.5 3.358-7.5 7.5v5.598c0 4.142 3.358 7.5 7.5 7.5z"/><path d="m289.729 274.038c4.143 0 7.5-3.358 7.5-7.5v-6.085c0-4.142-3.357-7.5-7.5-7.5s-7.5 3.358-7.5 7.5v6.085c0 4.142 3.358 7.5 7.5 7.5z"/><path d="m339.03 208.307c4.143 0 7.5-3.358 7.5-7.5v-6.285c0-4.142-3.357-7.5-7.5-7.5s-7.5 3.358-7.5 7.5v6.285c0 4.142 3.358 7.5 7.5 7.5z"/><path d="m378.444 134.374c4.143 0 7.5-3.358 7.5-7.5v-6.285c0-4.142-3.357-7.5-7.5-7.5s-7.5 3.358-7.5 7.5v6.285c0 4.142 3.358 7.5 7.5 7.5z"/></g></g></svg>