<svg id="Capa_1" enable-background="new 0 0 512.017 512.017" height="512" viewBox="0 0 512.017 512.017" width="512" xmlns="http://www.w3.org/2000/svg"><g><g><g><g><path d="m344.788 263.686c1.431 4.191-.647-13.567-4.743-11.884l-41.304 16.977c-2.356.969-5.025.813-7.253-.425-2.227-1.237-3.771-3.421-4.193-5.934-7.221-42.959-45.684-70.739-46.071-71.014-2.88-2.047-4.166-5.681-3.214-9.084.951-3.402 3.935-5.842 7.458-6.099 7.41-.54 22.21-.608 38.84 4.852-4.097-10.944-9.622-21.227-16.517-30.713-7.5-10.321-16.505-19.483-26.762-27.231-2.776-2.097-3.968-5.693-2.992-9.032.975-3.34 3.914-5.729 7.382-6.002 8.616-.681 27.271-.753 47.28 7.997-.161-4.708-.593-9.398-1.293-14.033-2.541-16.839-8.532-32.888-17.805-47.701-1.816-2.902-1.684-6.619.335-9.384 2.02-2.767 5.519-4.022 8.836-3.178 12.542 3.199 30.796 10.592 46.529 27.644 4.179 4.528 7.902 9.473 11.121 14.738 5.839-24.656 14.157-48.733 24.821-71.815 1.36-2.943 4.295-4.837 7.537-4.864h.068c3.216 0 6.15 1.841 7.547 4.741 11.025 22.886 19.282 46.976 24.61 71.766 3.357-5.239 7.199-10.154 11.47-14.653 15.854-16.704 33.949-24.189 46.339-27.528 3.326-.899 6.868.336 8.918 3.112 2.048 2.775 2.188 6.52.35 9.439-9.326 14.811-15.311 30.844-17.789 47.654-.63 4.278-1.029 8.607-1.192 12.956 18.671-7.246 35.616-7.393 43.678-6.902 3.511.215 6.515 2.601 7.518 5.974 1.002 3.374-.209 7.013-3.034 9.112-10.293 7.647-19.267 16.778-26.671 27.138-6.751 9.446-12.071 19.691-15.9 30.597 16.361-5.246 30.859-5.198 38.165-4.684 3.527.25 6.519 2.686 7.475 6.092.957 3.404-.329 7.043-3.211 9.092-.388.275-38.851 28.055-46.072 71.014-.422 2.512-1.964 4.696-4.191 5.933-1.261.701-2.664 1.056-4.071 1.056-1.078 0-2.159-.208-3.181-.627l-41.482-17.022c-4.114-1.688-6.192 16.04-4.732 11.839z" fill="#9be69d"/></g><g fill="#6fd7a3"><path d="m474.588 115.475c.364 3.074-1.128 6.054-3.608 7.907-10.175 7.604-19.053 16.662-26.389 26.927-.068.094-.135.189-.202.284-7.651 10.769.363 25.739 13.57 25.437.897-.02 1.76-.028 2.586-.026 3.631-9.082 8.318-17.679 14.046-25.694 7.33-10.257 16.199-19.309 26.364-26.909 2.548-1.905 4.067-4.997 3.605-8.145-.586-3.993-3.869-6.93-7.782-7.17-5.305-.323-14.469-.355-25.429 1.716 1.735 1.326 2.96 3.315 3.239 5.673z"/><path d="m442.082 54.378c-5.429 8.623-9.736 17.674-12.873 27.054-4.726 14.13 6.813 28.454 21.642 27.003.923-.09 1.824-.166 2.701-.23.195-2.067.44-4.126.742-6.172 2.466-16.73 8.406-32.689 17.655-47.441 1.476-2.354 1.872-5.286.803-7.85-1.674-4.014-5.96-5.989-9.937-4.915-5.578 1.503-12.315 3.859-19.48 7.505.12 1.736-.283 3.505-1.253 5.046z"/><path d="m405.005 84.008c-.572-1.894-1.106-4.303-1.615-7.081-5.321-22.286-13.015-43.962-22.979-64.652-1.402-2.91-4.332-4.775-7.563-4.775h-.068c-3.237 0-6.165 1.894-7.523 4.833-2.571 5.563-5.001 11.185-7.298 16.857 3.675 8.913 6.945 17.982 9.8 27.18 5.085 16.377 20.097 27.638 37.246 27.638z"/><path d="m329.301 69.441c-15.733-17.052-33.986-24.445-46.529-27.644-3.317-.843-6.816.411-8.836 3.178-.913 1.251-1.419 2.698-1.555 4.175 7.991 3.893 19.532 10.683 30.799 22.12 4.603 4.673 8.449 9.399 11.658 13.94 6.312 8.931 19.698 8.495 25.446-.809.046-.074.092-.149.138-.223-3.219-5.264-6.942-10.209-11.121-14.737z"/><path d="m345.238 263.686 21.689-.036c0-.015.001-.034.001-.05l-21.692.036c.001.015.002.034.002.05z"/><path d="m496.857 176.223c-5.382-.379-14.674-.498-25.732 1.56 1.517 1.084 2.68 2.651 3.207 4.531.957 3.404-.329 7.043-3.211 9.092-.385.272-38.134 27.56-45.848 69.852l18.334 7.523c1.022.419 2.103.627 3.181.627 1.407 0 2.81-.354 4.071-1.056 2.226-1.237 3.768-3.42 4.19-5.933 7.221-42.959 45.684-70.739 46.072-71.014 2.882-2.049 4.168-5.688 3.211-9.092-.956-3.403-3.948-5.84-7.475-6.09z"/><path d="m397.394 263.599-.465.001c-.009.779.14.933.465-.001z"/><path d="m345.238 263.686-.45.001c.318.928.462.776.45-.001z"/></g><g><path d="m371.172 503.224-1.529.22c-3.818 0-6.068.893-9.803.574-15.441-1.319-30.112-5.308-43.538-11.499-3.035-1.4-1.129-4.793-4.031-6.412-1.957-1.091-8.76-.35-10.652-1.538-9.553-5.994-18.264-13.185-25.918-21.362-1.712-1.829-.231-6.004-1.835-7.929s-6.293-1.602-7.783-3.619c-15.765-21.327-25.073-47.631-25.073-76.088v-38.234c0-29.784 10.196-57.209 27.319-79.038 1.599-2.038 4.639-2.061 6.356-3.999s2.112-5.792 3.942-7.624c6.949-6.96 14.693-13.139 23.086-18.395 2.135-1.337 6.604-.232 8.821-1.447s2.182-4.751 4.476-5.839c12.753-6.051 26.655-10.105 41.293-11.754 4.88-.55 8.237 1.007 13.265 1.007l1.605.178c4.493 0 8.933-1.792 13.308-1.351 14.345 1.443 28.001 5.193 40.585 10.87 1.936.873 3.615 3.786 5.498 4.749 2.58 1.319 5.341.727 7.818 2.209 10.453 6.255 19.946 13.925 28.209 22.742 1.998 2.132 1.895 5.959 3.745 8.222 1.415 1.73 4.815 1.869 6.139 3.671 7.109 9.673 12.892 20.362 17.086 31.807 1.238 3.378.611 8.46 1.565 11.963.725 2.662 3.092 3.721 3.647 6.449 1.68 8.268 2.562 16.822 2.562 25.58v6.057l-2.641 14.92 2.641 10.876v6.381c0 9.407-1.017 18.578-2.948 27.412-.534 2.444-5.352 4.449-6.024 6.839-.771 2.744 2.581 5.864 1.635 8.531-4.259 11.997-10.259 23.182-17.699 33.257-1.232 1.669-4.653 1.907-5.963 3.513-1.836 2.252-1.599 5.842-3.582 7.965-8.274 8.862-17.788 16.57-28.27 22.855-2.06 1.235-7.598.873-9.731 1.996-2.654 1.398-1.922 4.25-4.681 5.467-12.587 5.552-26.227 9.184-40.542 10.519-4.067.381-8.19-.701-12.358-.701z" fill="#fee97d"/><path d="m371.172 208.409c-5.074 0-10.077.298-15 .857 64.82 7.368 115.162 61.892 115.162 128.071v38.234c0 66.179-50.343 120.703-115.162 128.071 4.923.56 9.926.857 15 .857 71.887 0 130.162-57.723 130.162-128.928v-38.234c.001-71.204-58.275-128.928-130.162-128.928z" fill="#f4da6e"/></g></g><g><path d="m266.245 443.414-19.143 8.9c-5.101 2.371-9.32 6.297-12.052 11.213l-10.256 18.452c-5.606 10.086-17.069 15.416-28.394 13.201l-20.719-4.052c-5.52-1.08-11.241-.384-16.342 1.988l-19.143 8.9c-10.464 4.865-22.87 2.439-30.73-6.01l-14.38-15.456c-3.832-4.118-8.868-6.918-14.389-7.997l-20.719-4.052c-11.325-2.215-19.936-11.47-21.329-22.925l-2.549-20.957c-.679-5.584-3.109-10.809-6.94-14.928l-14.38-15.456c-7.86-8.448-9.386-20.997-3.78-31.084l10.255-18.451c2.733-4.917 3.839-10.572 3.16-16.156l-2.549-20.957c-1.393-11.455 4.748-22.504 15.212-27.369l19.143-8.9c5.101-2.371 9.32-6.297 12.052-11.213l10.256-18.452c5.606-10.086 17.069-15.416 28.394-13.201l20.719 4.052c5.52 1.08 11.241.384 16.342-1.988l19.143-8.9c10.464-4.865 22.87-2.439 30.73 6.01l14.38 15.456c3.832 4.118 8.868 6.918 14.389 7.997l20.719 4.052c11.325 2.215 19.936 11.47 21.329 22.925l2.549 20.957c.679 5.584 3.109 10.809 6.94 14.928l14.38 15.456c7.86 8.448 9.386 20.997 3.78 31.084l-10.256 18.452c-2.733 4.917-3.839 10.572-3.16 16.156l2.549 20.957c1.394 11.454-4.747 22.503-15.211 27.368z" fill="#fee97d"/><g><path d="m288.543 329.396-14.38-15.456c-3.832-4.118-6.261-9.344-6.94-14.928l-2.549-20.957c-1.393-11.455-10.004-20.71-21.329-22.925l-20.719-4.052c-5.521-1.08-10.557-3.879-14.389-7.998l-14.38-15.456c-7.86-8.448-20.267-10.875-30.73-6.01l-4.113 1.912c1.745 1.15 3.374 2.518 4.843 4.098l14.38 15.456c3.832 4.118 8.868 6.918 14.389 7.998l20.719 4.052c11.325 2.215 19.936 11.47 21.329 22.925l2.549 20.957c.679 5.584 3.109 10.809 6.94 14.928l14.38 15.456c7.86 8.448 9.387 20.997 3.781 31.083l-10.256 18.452c-2.733 4.917-3.839 10.572-3.16 16.156l2.549 20.957c1.393 11.455-4.748 22.504-15.212 27.369l-19.143 8.9c-5.101 2.372-9.32 6.297-12.052 11.213l-10.256 18.452c-2.619 4.711-6.524 8.367-11.087 10.719l12.693 2.482c11.325 2.215 22.788-3.115 28.394-13.201l10.256-18.452c2.733-4.917 6.952-8.842 12.052-11.213l19.143-8.9c10.464-4.865 16.605-15.914 15.212-27.369l-2.549-20.957c-.679-5.584.427-11.239 3.16-16.156l10.256-18.452c5.606-10.085 4.079-22.634-3.781-31.083z" fill="#f4da6e"/></g><circle cx="151.662" cy="361.816" fill="#fffbe5" r="37.794"/><path d="m151.662 324.022c-5.331 0-10.401 1.109-15 3.101 13.409 5.806 22.794 19.151 22.794 34.693s-9.385 28.887-22.794 34.693c4.599 1.991 9.669 3.101 15 3.101 20.873 0 37.794-16.921 37.794-37.794-.001-20.873-16.921-37.794-37.794-37.794z" fill="#fff8bf"/></g></g><path d="m256.927 361.815c0-4.143-3.357-7.5-7.5-7.5h-34.31c-4.143 0-7.5 3.357-7.5 7.5s3.357 7.5 7.5 7.5h34.31c4.142 0 7.5-3.357 7.5-7.5zm-155.439 39.567-24.261 24.261c-2.929 2.93-2.929 7.678 0 10.607 2.929 2.93 7.677 2.928 10.607 0l24.261-24.261c2.929-2.93 2.929-7.678 0-10.607-2.929-2.928-7.677-2.928-10.607 0zm-13.653-114c-2.93-2.928-7.678-2.928-10.607 0-2.929 2.93-2.929 7.678 0 10.607l24.261 24.261c2.93 2.928 7.679 2.93 10.607 0 2.929-2.93 2.929-7.678 0-10.607zm-41.439 74.433c0 4.143 3.357 7.5 7.5 7.5h34.311c4.143 0 7.5-3.357 7.5-7.5s-3.357-7.5-7.5-7.5h-34.311c-4.143 0-7.5 3.358-7.5 7.5zm97.765 63.456v34.31c0 4.143 3.357 7.5 7.5 7.5s7.5-3.357 7.5-7.5v-34.31c0-4.143-3.357-7.5-7.5-7.5s-7.5 3.358-7.5 7.5zm-37.793-63.456c0 24.976 20.318 45.294 45.293 45.294 24.976 0 45.294-20.318 45.294-45.294 0-24.975-20.318-45.293-45.294-45.293-24.974 0-45.293 20.319-45.293 45.293zm45.293-30.293c16.704 0 30.294 13.59 30.294 30.293 0 16.704-13.59 30.294-30.294 30.294-16.703 0-30.293-13.59-30.293-30.294 0-16.703 13.59-30.293 30.293-30.293zm219.512 180.478c.001 0 .001 0 0 0h.002s0 0 0 0c75.906 0 137.659-61.203 137.659-136.43v-38.23c0-36.037-14.007-69.928-39.457-95.589 12.642-27.154 35.846-44.052 36.095-44.23 11.85-8.504 6.092-27.787-8.097-28.782-5.455-.383-14.809-.526-25.991 1.38.266-.532.536-1.063.81-1.591 2.482-4.762 5.346-9.427 8.502-13.858 6.946-9.725 15.37-18.297 25.046-25.483 11.648-8.651 5.588-27.704-8.504-28.581-7.245-.451-20.398-.391-35.697 3.739.056-.407.113-.813.173-1.219 2.327-15.779 7.951-30.835 16.716-44.747 7.637-12.122-4.19-27.395-17.568-23.789-13.325 3.592-32.786 11.643-49.828 29.598-.829.874-1.645 1.765-2.446 2.671-.75-2.814-1.536-5.613-2.354-8.388-1.173-3.972-5.342-6.239-9.317-5.069-3.973 1.173-6.242 5.345-5.069 9.317 2.216 7.503 4.176 15.197 5.826 22.869.639 2.971 3.007 5.262 5.996 5.803 2.993.541 6.01-.775 7.65-3.332 3.119-4.866 6.685-9.424 10.595-13.545 14.643-15.427 31.386-22.35 42.858-25.442.734-.198 1.384.649.967 1.312-9.884 15.689-16.23 32.698-18.864 50.555-.671 4.55-1.097 9.185-1.266 13.777-.093 2.522 1.09 4.923 3.146 6.387 2.057 1.463 4.712 1.795 7.064.881 17.229-6.689 32.766-6.885 40.507-6.405.788.049 1.095 1.107.467 1.573-10.925 8.114-20.446 17.804-28.307 28.809-3.562 5.001-6.79 10.261-9.6 15.648-2.812 5.425-5.259 11.084-7.271 16.823-.941 2.686-.281 5.674 1.705 7.713 1.985 2.038 4.952 2.776 7.665 1.909 15.182-4.871 28.664-4.815 35.338-4.351.778.054 1.106 1.143.52 1.551-.264.184-24.28 17.447-39.047 46.045-24.436-19.683-54.698-30.387-86.622-30.387-32.146 0-62.504 10.929-86.648 30.354-14.76-28.577-38.751-45.824-38.954-45.964-.655-.453-.357-1.542.437-1.6 6.793-.496 20.501-.568 35.955 4.506 2.74.899 5.752.149 7.749-1.931 1.997-2.079 2.625-5.119 1.617-7.819-4.311-11.54-10.188-22.476-17.469-32.505-7.929-10.909-17.456-20.602-28.307-28.798-.64-.484-.332-1.516.448-1.577 8.478-.668 25.43-.598 43.686 7.386 2.361 1.032 5.084.779 7.217-.666 2.132-1.447 3.371-3.887 3.284-6.462-.17-4.985-.631-9.996-1.37-14.893-2.694-17.863-9.039-34.874-18.863-50.568-.405-.647.218-1.496.963-1.306 11.56 2.949 28.382 9.762 42.867 25.453 3.838 4.168 7.282 8.734 10.238 13.57 1.585 2.594 4.576 3.977 7.58 3.495 3.001-.479 5.417-2.721 6.117-5.678 5.722-24.162 13.907-47.849 24.328-70.398.145-.312.452-.507.794-.51.342 0 .646.192.793.496 2.358 4.894 4.617 9.913 6.715 14.921 1.601 3.821 5.997 5.623 9.815 4.021 3.82-1.601 5.62-5.995 4.021-9.815-2.198-5.248-4.566-10.51-7.04-15.643-2.633-5.457-8.248-8.981-14.303-8.981h-.131c-6.11.058-11.714 3.673-14.278 9.214-8.604 18.622-15.743 37.984-21.299 57.749-.76-.884-1.533-1.754-2.321-2.609-16.98-18.396-36.664-26.37-50.182-29.819-13.876-3.541-24.822 11.929-17.387 23.806 8.723 13.934 14.355 29.02 16.741 44.839.091.604.177 1.209.259 1.815-16.687-5.07-31.346-5.006-39.418-4.372-14.581 1.145-19.78 19.839-8.325 28.492 9.68 7.312 18.166 15.943 25.222 25.652 3.553 4.894 6.73 10.028 9.508 15.361-11.321-1.955-20.787-1.791-26.322-1.388-14.914 1.087-19.911 20.25-8.032 28.782.246.177 23.437 17.064 36.072 44.203-4.307 4.359-8.344 9.031-12.083 13.993-4.448-3.937-9.94-6.746-16.082-7.948l-20.718-4.052c-3.993-.781-7.568-2.769-10.339-5.745l-14.38-15.457c-10.106-10.861-25.934-13.955-39.384-7.702l-19.142 8.899c-3.69 1.715-7.75 2.208-11.741 1.429l-20.719-4.052c-14.562-2.851-29.183 3.951-36.389 16.918l-10.257 18.452c-1.976 3.556-4.97 6.341-8.658 8.056l-19.144 8.9c-13.452 6.255-21.286 20.351-19.495 35.075l2.549 20.957c.491 4.038-.294 8.052-2.27 11.606l-10.257 18.455c-7.206 12.967-5.259 28.975 4.846 39.835l14.377 15.453c.441.476.863.978 1.253 1.492 2.499 3.305 7.203 3.957 10.506 1.457 3.304-2.499 3.956-7.203 1.457-10.506-.693-.917-1.443-1.811-2.23-2.657l-14.38-15.456c-5.665-6.089-6.757-15.062-2.717-22.331l10.257-18.453c3.524-6.341 4.924-13.5 4.049-20.704l-2.549-20.957c-1.005-8.255 3.388-16.157 10.929-19.663l19.143-8.9c6.581-3.059 11.922-8.028 15.446-14.37l10.257-18.452c4.039-7.269 12.237-11.08 20.398-9.484l20.718 4.052c7.121 1.394 14.362.513 20.944-2.547l19.142-8.9c7.544-3.507 16.414-1.77 22.078 4.317l14.381 15.458c4.941 5.311 11.318 8.854 18.44 10.248l20.719 4.052c8.203 1.601 14.337 8.306 15.322 16.47l2.549 20.958c.877 7.204 3.953 13.819 8.895 19.13l14.38 15.456c5.665 6.089 6.756 15.062 2.716 22.331l-10.256 18.453c-3.195 5.749-4.624 12.17-4.215 18.685.008.237.028.473.058.71.037.437.055.873.108 1.31l2.549 20.957c1.004 8.255-3.389 16.157-10.929 19.663l-19.143 8.9c-6.58 3.059-11.921 8.027-15.447 14.37l-10.256 18.452c-4.04 7.27-12.24 11.08-20.398 9.484l-20.718-4.052c-7.124-1.395-14.364-.513-20.944 2.547l-19.143 8.9c-7.543 3.507-16.413 1.77-22.078-4.317l-14.38-15.457c-4.941-5.312-11.317-8.855-18.44-10.249l-20.719-4.052c-8.161-1.597-14.319-8.215-15.323-16.47-.5-4.112-4.258-7.033-8.351-6.54-4.112.5-7.04 4.239-6.54 8.351 1.792 14.726 12.776 26.532 27.335 29.38l20.718 4.052c3.993.781 7.568 2.768 10.338 5.745l14.38 15.457c6.624 7.119 15.705 10.901 24.966 10.901 4.867 0 9.784-1.045 14.418-3.199l19.143-8.9c3.691-1.714 7.753-2.205 11.741-1.428l20.719 4.052c14.555 2.849 29.183-3.951 36.389-16.918l10.255-18.451c1.978-3.556 4.972-6.342 8.66-8.057l8.957-4.165c25.953 35.954 67.429 57.051 111.95 57.048zm86.754-260.501c1.515 1.5 2.982 3.034 4.407 4.596-7.535 10.307-15.311 20.474-23.308 30.477-7.884-8.198-15.547-16.622-23.03-25.244 6.537-9.068 12.697-18.428 18.457-28.064 8.44 5.051 16.322 11.15 23.474 18.235zm-51.91 74.025c-7.998-7.758-15.832-15.672-23.539-23.75 8.55-8.997 16.656-18.405 24.308-28.184 7.388 8.431 14.936 16.667 22.711 24.695-7.648 9.243-15.481 18.328-23.48 27.239zm.738 21.433c8.278 7.76 16.716 15.375 25.302 22.83-5.808 6.441-11.713 12.782-17.719 19.001-2.441 2.528-4.906 5.034-7.385 7.53-8.587-7.654-17.001-15.497-25.213-23.536 5.532-5.494 11.01-11.033 16.381-16.651 2.899-3.033 5.774-6.095 8.634-9.174zm-10.858-10.35c-2.855 3.074-5.725 6.131-8.619 9.159-5.291 5.535-10.688 10.992-16.138 16.405-3.038-3.099-6.058-6.214-9.039-9.365-5.403-5.711-10.715-11.521-15.941-17.415 7.094-5.767 13.981-11.776 20.637-18.021 1.729-1.623 3.441-3.26 5.139-4.913 7.846 8.215 15.817 16.257 23.961 24.15zm-39.366-30.175c-6.514 6.113-13.257 11.991-20.208 17.627-7.19-8.451-14.195-17.071-21.003-25.845 5.064-4.983 10.012-10.072 14.805-15.267 2.563-2.778 5.091-5.592 7.585-8.439 7.803 9.163 15.787 18.176 23.948 27.014-1.693 1.652-3.401 3.29-5.127 4.91zm-32.061 26.843c-6.917 5.162-14.027 10.076-21.295 14.754.128-8.59-2.981-17.122-9.14-23.741l-3.341-3.591c4.644-3.936 9.217-7.969 13.705-12.096 6.518 8.367 13.21 16.596 20.071 24.674zm9.842 11.368c5.533 6.256 11.164 12.417 16.892 18.471 3.035 3.208 6.11 6.38 9.203 9.535-7.231 6.942-14.583 13.768-22.049 20.468-1.805-1.801-3.626-3.59-5.419-5.398-8.227-8.297-16.409-16.762-24.438-25.269 8.847-5.589 17.457-11.536 25.811-17.807zm3.466 68.999c8.205 8.029 16.515 15.979 24.93 23.834-8.349 7.174-16.858 14.165-25.507 20.973-7.465-8.506-14.68-17.22-21.631-26.111 7.491-6.104 14.897-12.338 22.208-18.696zm11.268-9.965c7.434-6.685 14.758-13.491 21.962-20.413 8.227 8.062 16.653 15.93 25.25 23.612-7.26 7.027-14.666 13.916-22.208 20.658-8.44-7.861-16.776-15.818-25.004-23.857zm58.524 13.119c7.8 6.695 15.743 13.226 23.81 19.596-1.382 1.542-2.768 3.08-4.165 4.606-5.75 6.286-11.672 12.45-17.715 18.506-8.2-7.151-16.328-14.403-24.375-21.744 7.626-6.841 15.105-13.837 22.445-20.964zm10.705-10.587c2.299-2.32 4.584-4.652 6.852-7 6.22-6.44 12.333-13.008 18.344-19.68 6.82 5.725 13.722 11.35 20.704 16.865-7.349 9.799-14.991 19.373-22.915 28.685-7.786-6.136-15.451-12.426-22.985-18.87zm35.131-37.925c7.544-8.706 14.906-17.583 22.062-26.616 5.51 4.743 11.09 9.391 16.732 13.945-6.107 9.728-12.503 19.288-19.17 28.659-6.615-5.232-13.158-10.564-19.624-15.988zm-11.413-9.734c-8.525-7.4-16.902-14.961-25.118-22.667 7.906-8.797 15.655-17.76 23.223-26.875 7.838 7.76 15.877 15.345 24.093 22.734-7.195 9.102-14.601 18.044-22.198 26.808zm-61.136-142.264c14.051 1.079 27.624 4.499 40.254 10.074-4.764 7.927-9.806 15.661-15.119 23.188-8.825-10.652-17.332-21.57-25.469-32.719.112-.182.222-.363.334-.543zm-9.053 13.969c8.021 10.8 16.375 21.381 25.025 31.708-7.721 10.033-15.942 19.66-24.636 28.851-8.414-9.127-16.636-18.442-24.66-27.918 8.574-10.493 16.679-21.395 24.271-32.641zm-10.138-13.971c.242.344.493.682.736 1.025-7.663 11.671-15.899 22.972-24.65 33.831-6.395-7.823-12.656-15.747-18.762-23.767 13.257-6.159 27.682-9.953 42.676-11.089zm-74.617 32.667c.06-.057.122-.111.18-.169 5.701-5.318 11.864-10.068 18.424-14.174 7.233 9.551 14.667 18.978 22.301 28.256-2.903 3.351-5.851 6.659-8.853 9.912-4.196 4.549-8.52 9.009-12.933 13.391-8.065-10.845-15.83-21.906-23.271-33.158 1.352-1.392 2.742-2.738 4.152-4.058zm-6.58 60.757c-3.202-3.132-5.248-7.156-5.801-11.601l-2.549-20.957c-.358-2.943-1.098-5.762-2.145-8.423.91-1.309 1.838-2.601 2.79-3.869 7.214 10.772 14.717 21.369 22.491 31.769-4.832 4.472-9.764 8.839-14.786 13.081zm8.154 72.868 6.766-12.173c8.818 9.385 17.831 18.732 26.899 27.877 1.588 1.602 3.203 3.186 4.8 4.781-6.796 5.896-13.675 11.68-20.628 17.352-7.035-9.483-13.809-19.215-20.236-29.046.076-3.069.884-6.064 2.399-8.791zm.402 39.397c1.892 2.631 3.804 5.246 5.734 7.843-3.946 3.108-7.93 6.188-11.937 9.235 3.543-4.974 5.716-10.856 6.203-17.078zm-7.329 36.672c7.463-5.514 14.882-11.17 22.178-16.914 6.896 8.813 14.039 17.46 21.428 25.906-5.555 4.198-11.168 8.313-16.831 12.354-9.827-5.788-18.845-12.955-26.775-21.346zm41.93 28.907c3.936-2.87 7.853-5.767 11.737-8.712 5.158 5.612 10.414 11.129 15.769 16.539-9.519-1.547-18.74-4.186-27.506-7.827zm23.636-17.934c8.999-7.102 17.843-14.402 26.522-21.893 8.238 7.534 16.57 14.964 24.969 22.301-8.831 8.417-17.929 16.557-27.234 24.396-8.309-8.016-16.403-16.294-24.257-24.804zm46.614 25.289c5.514-4.911 10.941-9.928 16.277-15.039 2.945 2.519 5.897 5.022 8.858 7.515-7.982 3.359-16.398 5.898-25.135 7.524zm39.736-14.856c-4.255-3.549-8.495-7.124-12.717-10.729 5.926-5.961 11.737-12.022 17.388-18.199 1.674-1.83 3.337-3.672 4.99-5.524 5.762 4.366 11.587 8.647 17.469 12.842-7.944 8.408-17.075 15.699-27.13 21.61zm36.773-33.162c-5.807-4.127-11.561-8.332-17.249-12.628 7.907-9.314 15.543-18.881 22.89-28.669 3.796 2.896 7.613 5.759 11.449 8.589-4.012 11.816-9.818 22.821-17.09 32.708zm21.233-48.317c-2.251-1.685-4.495-3.382-6.732-5.09 2.997-4.204 5.941-8.444 8.83-12.721-.259 6.062-.97 12.009-2.098 17.811zm2.217-61.232v.223c-3.073-2.557-6.123-5.144-9.154-7.758 2.639-3.466 5.247-6.953 7.824-10.459.882 5.905 1.33 11.915 1.33 17.994zm-21.788-69.131c6.895 9.814 12.239 20.518 15.908 31.813-4.739 6.68-9.591 13.293-14.554 19.831-8.11-7.318-16.04-14.833-23.771-22.518 7.678-9.565 15.153-19.283 22.417-29.126zm-256.559 19.173-24.261 24.261c-2.929 2.93-2.929 7.678 0 10.607 2.929 2.93 7.677 2.928 10.607 0l24.261-24.261c2.929-2.93 2.929-7.678 0-10.607-2.929-2.928-7.677-2.928-10.607 0zm-56.327 10.978v-34.31c0-4.143-3.357-7.5-7.5-7.5s-7.5 3.357-7.5 7.5v34.31c0 4.143 3.357 7.5 7.5 7.5s7.5-3.357 7.5-7.5zm32.067 103.022c-2.929 2.93-2.929 7.678 0 10.607l24.261 24.261c2.93 2.928 7.679 2.93 10.607 0s2.929-7.678 0-10.607l-24.261-24.261c-2.93-2.928-7.678-2.928-10.607 0z"/></g></svg>