<svg id="Capa_1" enable-background="new 0 0 512 512" height="512" viewBox="0 0 512 512" width="512" xmlns="http://www.w3.org/2000/svg"><g><g><path d="m393.829 146.827c-5.542-1.526-9.765-6.13-10.552-11.824-.648-4.686-.742-9.963.206-15.656 2.183-13.118 8.919-22.574 14.909-28.656 2.788-2.831.272-7.568-3.617-6.753-5.934 1.242-12.746 3.507-19.638 7.589-3.575 2.12-6.881 4.652-9.67 7.09-2.052 1.795-5.273 1.03-6.303-1.494-1.679-4.112-3.777-7.811-6.207-10.97-1.629-2.118-4.783-2.118-6.412 0-2.43 3.159-4.528 6.857-6.207 10.97-1.03 2.524-4.251 3.288-6.303 1.494-2.788-2.438-6.094-4.97-9.67-7.09-6.892-4.082-13.704-6.347-19.638-7.589-3.889-.814-6.405 3.922-3.617 6.753 5.99 6.082 12.726 15.538 14.909 28.656.947 5.693.854 10.97.206 15.656-.787 5.693-5.011 10.298-10.552 11.824-63.993 17.616-110.673 72.597-110.673 137.703 0 79.32 69.284 143.622 154.75 143.622s154.75-64.302 154.75-143.622c0-65.106-46.68-120.087-110.671-137.703z" fill="#ff646f"/><g><path d="m393.829 146.827c-5.541-1.525-9.765-6.13-10.552-11.823-.648-4.686-.742-9.963.206-15.656 2.183-13.118 8.919-22.574 14.909-28.656 2.788-2.831.272-7.568-3.617-6.753-5.934 1.242-12.746 3.507-19.638 7.589-3.575 2.12-6.881 4.652-9.67 7.09-1.184 1.035-2.755 1.214-4.071.7-3.532 5.351-6.577 12.002-7.913 20.03-.947 5.693-.854 10.97-.206 15.656.787 5.693 5.011 10.298 10.552 11.823 63.991 17.616 110.671 72.597 110.671 137.703 0 74.623-61.324 135.946-139.75 142.948 4.937.441 9.939.674 15 .674 85.466 0 154.75-64.302 154.75-143.622 0-65.106-46.68-120.087-110.671-137.703z" fill="#fb4455"/></g><g><g><path d="m206.329 146.827c-5.541-1.526-9.765-6.13-10.552-11.824-.648-4.686-.742-9.963.206-15.656 2.183-13.118 8.919-22.574 14.909-28.656 2.788-2.831.272-7.568-3.617-6.753-5.934 1.242-12.746 3.507-19.638 7.589-3.575 2.12-6.881 4.652-9.67 7.09-2.052 1.795-5.273 1.03-6.303-1.494-1.679-4.112-3.777-7.811-6.207-10.97-1.629-2.118-4.783-2.118-6.412 0-2.43 3.159-4.528 6.857-6.207 10.97-1.03 2.524-4.251 3.288-6.303 1.494-2.788-2.438-6.094-4.97-9.67-7.09-6.892-4.082-13.704-6.347-19.638-7.589-3.889-.814-6.405 3.922-3.617 6.753 5.99 6.082 12.726 15.538 14.909 28.656.947 5.693.854 10.97.206 15.656-.787 5.693-5.011 10.298-10.552 11.824-63.993 17.616-110.673 72.597-110.673 137.703 0 79.32 69.284 143.622 154.75 143.622s154.75-64.302 154.75-143.622c0-65.106-46.68-120.087-110.671-137.703z" fill="#ff646f"/><g><path d="m206.329 146.827c-5.541-1.525-9.765-6.13-10.552-11.823-.648-4.686-.742-9.963.206-15.656 2.183-13.118 8.919-22.574 14.909-28.656 2.788-2.831.272-7.568-3.617-6.753-5.934 1.242-12.746 3.507-19.638 7.589-3.575 2.12-6.881 4.652-9.67 7.09-1.184 1.035-2.755 1.214-4.071.7-3.532 5.351-6.577 12.002-7.913 20.03-.947 5.693-.854 10.97-.206 15.656.787 5.693 5.011 10.298 10.552 11.823 63.991 17.616 110.671 72.597 110.671 137.703 0 74.623-61.324 135.946-139.75 142.948 4.937.441 9.939.674 15 .674 85.466 0 154.75-64.302 154.75-143.622 0-65.106-46.68-120.087-110.671-137.703z" fill="#fb4455"/></g><path d="m129.052 179.328c-38.905 8.417-72.652 41.464-81.652 80.108-16.649 71.483 45.659 132.374 114.846 132.374 65.034 0 117.754-48.929 117.754-109.286 0-71.483-80.19-113.162-143.91-104.439-2.362.323-4.709.739-7.038 1.243z" fill="#fff3de"/><path d="m138.461 177.79c55.574 6.108 111.539 45.016 111.539 104.734 0 55.535-44.634 101.391-102.424 108.365 4.838.601 9.736.921 14.67.921 65.033 0 117.754-48.929 117.754-109.286 0-70.6-78.219-112.122-141.539-104.734z" fill="#ffe5c2"/></g><g fill="#ff646f"><ellipse cx="122.079" cy="227.186" rx="22.371" ry="15.877" transform="matrix(.707 -.707 .707 .707 -124.889 152.864)"/><ellipse cx="93.374" cy="300.243" rx="22.371" ry="15.877" transform="matrix(.707 -.707 .707 .707 -184.955 153.964)"/><ellipse cx="156.227" cy="347.477" rx="22.371" ry="15.877" transform="matrix(.707 -.707 .707 .707 -199.945 212.243)"/><ellipse cx="222.913" cy="308.729" rx="22.371" ry="15.877" transform="matrix(.707 -.707 .707 .707 -153.015 248.048)"/><ellipse cx="210.903" cy="240.23" rx="22.371" ry="15.877" transform="matrix(.707 -.707 .707 .707 -108.096 219.493)"/><ellipse cx="158.144" cy="283.847" rx="22.371" ry="15.877" transform="matrix(.707 -.707 .707 .707 -154.391 194.961)"/></g></g></g><path d="m139.697 330.946c-5.315 5.315-8.863 11.893-9.988 18.521-1.267 7.461.7 14.434 5.396 19.13 10.433 10.433 27.173 5.887 37.652-4.591 11.844-11.844 13.861-28.383 4.591-37.652-9.267-9.269-25.807-7.252-37.651 4.592zm27.045 6.015c2.796 2.796 1.427 10.421-4.591 16.439s-13.642 7.389-16.439 4.591c-2.796-2.796-1.426-10.42 4.592-16.439 4.538-4.538 12.38-8.648 16.438-4.591zm324.794-125.957c-2.128-3.553-6.735-4.711-10.288-2.581-3.554 2.128-4.709 6.734-2.581 10.288 11.994 20.024 18.333 42.785 18.333 65.821 0 75.057-66.056 136.12-147.25 136.12-29.099 0-56.824-7.711-80.828-22.351 34.039-27.723 55.578-68.446 55.578-113.771 0-33.337-11.421-64.944-33.03-91.404-6.671-8.169-14.241-15.668-22.524-22.391 11.962-7.287 24.941-12.886 38.708-16.68 8.536-2.342 14.815-9.421 15.995-18.021.832-5.989.754-12.018-.231-17.917-1.593-9.545-5.302-17.354-9.398-23.439 2.248.96 4.424 2.063 6.519 3.307 2.81 1.664 5.765 3.833 8.573 6.299 2.792 2.426 6.609 3.36 10.209 2.501 3.596-.859 6.573-3.414 7.962-6.825.739-1.809 1.564-3.512 2.468-5.1.903 1.586 1.727 3.287 2.464 5.09 1.393 3.421 4.371 5.977 7.966 6.835 3.6.86 7.417-.075 10.239-2.527 2.779-2.44 5.733-4.609 8.55-6.277 2.091-1.242 4.265-2.344 6.512-3.304-4.096 6.086-7.805 13.895-9.398 23.439-.985 5.899-1.063 11.928-.233 17.904 1.181 8.613 7.46 15.691 15.99 18.032 25.522 7.028 48.566 20.407 66.641 38.692 1.467 1.484 3.4 2.228 5.334 2.228 1.904 0 3.811-.721 5.272-2.166 2.946-2.912 2.973-7.661.062-10.606-19.919-20.151-45.275-34.885-73.333-42.611-2.737-.75-4.74-2.951-5.106-5.619-.623-4.481-.565-8.984.169-13.383 1.924-11.526 8.053-19.757 12.854-24.63 3.606-3.658 4.376-9.139 1.917-13.64-2.442-4.469-7.436-6.765-12.413-5.717-7.821 1.635-15.197 4.489-21.917 8.478-2.409 1.427-4.812 3.072-7.17 4.906-1.536-3.052-3.291-5.866-5.243-8.404-2.208-2.872-5.545-4.519-9.156-4.519s-6.948 1.647-9.155 4.518c-1.952 2.538-3.707 5.352-5.243 8.405-2.363-1.838-4.761-3.48-7.163-4.903-6.727-3.993-14.103-6.847-21.912-8.479-4.986-1.049-9.982 1.245-12.424 5.714-2.459 4.5-1.689 9.982 1.915 13.638 4.803 4.875 10.931 13.105 12.855 24.632.734 4.398.792 8.901.167 13.396-.364 2.655-2.367 4.855-5.112 5.608-17.133 4.722-33.157 11.995-47.716 21.63-14.495-9.566-30.625-16.941-47.642-21.625-2.739-.754-4.746-2.96-5.114-5.62-.619-4.475-.56-8.982.175-13.397 1.538-9.239 5.862-17.524 12.854-24.625 3.602-3.657 4.372-9.137 1.916-13.635-2.438-4.466-7.429-6.767-12.414-5.722-7.812 1.635-15.188 4.488-21.926 8.479-2.391 1.417-4.788 3.06-7.162 4.906-1.532-3.041-3.289-5.854-5.248-8.401-2.208-2.87-5.543-4.516-9.151-4.516s-6.943 1.646-9.151 4.516c-1.959 2.547-3.715 5.361-5.248 8.401-2.375-1.846-4.772-3.489-7.165-4.908-6.735-3.989-14.111-6.842-21.923-8.477-4.985-1.045-9.976 1.255-12.414 5.722-2.456 4.498-1.686 9.978 1.916 13.635 6.992 7.101 11.317 15.386 12.854 24.625.735 4.415.793 8.923.175 13.397-.368 2.66-2.375 4.866-5.114 5.62-32.806 9.031-62.336 28.042-83.151 53.53-21.61 26.461-33.031 58.068-33.031 91.405 0 83.329 72.785 151.122 162.25 151.122 34.874 0 67.212-10.303 93.694-27.81 27.512 18.207 59.827 27.81 93.806 27.81 89.465 0 162.25-67.792 162.25-151.12 0-25.75-7.076-51.176-20.464-73.528zm-329.286 209.648c-81.194 0-147.25-61.064-147.25-136.122 0-29.839 10.252-58.165 29.648-81.916 18.863-23.099 45.682-40.343 75.515-48.556 8.524-2.347 14.801-9.423 15.99-18.027.827-5.977.747-12.004-.236-17.915-1.391-8.354-4.589-16.297-9.393-23.438 2.247.959 4.422 2.061 6.516 3.301 2.825 1.675 5.705 3.79 8.557 6.284 2.784 2.434 6.595 3.379 10.198 2.526 3.604-.853 6.589-3.407 7.987-6.831.736-1.803 1.562-3.506 2.469-5.097.908 1.591 1.733 3.294 2.469 5.097 1.397 3.425 4.383 5.979 7.987 6.832 3.603.854 7.415-.092 10.197-2.526 2.853-2.495 5.732-4.609 8.555-6.283 2.095-1.241 4.271-2.343 6.518-3.302-4.802 7.14-8.002 15.085-9.392 23.438-.983 5.91-1.063 11.938-.236 17.914 1.189 8.604 7.466 15.681 15.99 18.028 29.833 8.213 56.651 25.457 75.514 48.556 19.396 23.751 29.648 52.078 29.648 81.916-.001 75.057-66.057 136.121-147.251 136.121zm32.123-196.952c-11.844 11.844-13.861 28.383-4.592 37.652 3.762 3.762 8.984 5.773 14.75 5.773 8.514 0 16.481-3.943 22.903-10.364 11.844-11.843 13.86-28.382 4.591-37.652-9.268-9.269-25.807-7.252-37.652 4.591zm22.454 22.454c-3.09 3.089-6.89 5.206-10.426 5.806-1.532.259-4.35.448-6.013-1.215s-1.475-4.481-1.215-6.013c.601-3.536 2.717-7.336 5.806-10.426 3.794-3.795 12.011-9.019 16.438-4.591 2.797 2.797 1.428 10.421-4.59 16.439zm-149.971 56.08c-1.267 7.462.7 14.435 5.396 19.13 10.4 10.399 27.174 5.887 37.652-4.591 11.844-11.844 13.861-28.383 4.591-37.652-9.27-9.266-25.807-7.252-37.652 4.592-5.315 5.315-8.862 11.892-9.987 18.521zm14.788 2.51c.601-3.536 2.717-7.336 5.806-10.426 4.538-4.539 12.381-8.649 16.439-4.591 2.796 2.796 1.427 10.421-4.591 16.439-6.017 6.017-13.643 7.388-16.439 4.591-1.663-1.662-1.475-4.48-1.215-6.013zm169.115-99.691c-30.235-26.378-75.645-39.88-115.686-34.398-2.527.346-5.087.798-7.607 1.343-41.791 9.042-77.719 44.299-87.371 85.738-3.545 15.222-3.866 30.488-.953 45.375.796 4.065 4.742 6.719 8.8 5.92 4.065-.795 6.716-4.735 5.92-8.8-2.503-12.795-2.22-25.948.842-39.093 8.383-35.992 39.608-66.619 75.933-74.479 2.145-.464 4.322-.849 6.469-1.143 35.939-4.919 76.678 7.186 103.791 30.84 14.417 12.578 31.602 34.267 31.602 66.168 0 56.125-49.46 101.786-110.254 101.786-39.132 0-77.057-21.08-96.619-53.702-2.129-3.553-6.737-4.707-10.289-2.575-3.552 2.13-4.706 6.737-2.575 10.289 22.215 37.049 65.19 60.988 109.483 60.988 69.064 0 125.253-52.39 125.254-116.786.001-29.712-12.704-56.501-36.74-77.471zm-90.624 52.276c-6.628 1.125-13.206 4.672-18.521 9.988-11.843 11.844-13.86 28.382-4.591 37.652 10.398 10.4 27.173 5.886 37.652-4.592 5.315-5.315 8.863-11.893 9.988-18.521 1.267-7.461-.7-14.434-5.396-19.13-4.698-4.697-11.672-6.663-19.132-5.397zm9.739 22.016c-.601 3.536-2.717 7.336-5.806 10.425-6.019 6.019-13.642 7.39-16.438 4.592-2.796-2.796-1.427-10.421 4.591-16.439 3.09-3.089 6.89-5.206 10.426-5.806 1.893-.321 4.451-.347 6.013 1.215 1.661 1.663 1.473 4.481 1.214 6.013zm-45.804-78.677c-6.628 1.125-13.206 4.672-18.521 9.988-11.843 11.844-13.86 28.382-4.591 37.652 10.4 10.4 27.174 5.887 37.652-4.591 11.844-11.844 13.861-28.383 4.592-37.652-4.698-4.697-11.672-6.663-19.132-5.397zm3.932 32.442c-6.018 6.018-13.643 7.389-16.438 4.591-2.796-2.796-1.427-10.421 4.591-16.439 3.794-3.795 11.982-9.048 16.439-4.591 2.796 2.797 1.427 10.421-4.592 16.439zm73.79 96.741c4.708 4.708 12.187 6.575 19.13 5.396 6.629-1.125 13.207-4.672 18.521-9.988 5.315-5.315 8.863-11.893 9.988-18.521 1.267-7.461-.7-14.434-5.396-19.13-9.269-9.269-25.807-7.253-37.652 4.591-11.844 11.844-13.861 28.383-4.591 37.652zm15.198-27.046c4.539-4.539 12.381-8.65 16.439-4.591 2.796 2.796 1.426 10.42-4.592 16.439-3.089 3.089-6.889 5.206-10.425 5.806-1.533.261-4.35.448-6.013-1.214-2.797-2.797-1.427-10.421 4.591-16.44z"/></g></svg>