<svg id="Capa_1" enable-background="new 0 0 512 512" height="512" viewBox="0 0 512 512" width="512" xmlns="http://www.w3.org/2000/svg"><g><g><path d="m128.241 488.75c-40.117 0-77.943-24.819-96.985-59.746-21.298-39.066-26.544-90.353-22.404-133.915 5.253-55.267 25.687-113.424 77.382-140.811 19.031-10.083 40.457-15.528 62.007-15.528 16.568 0 30 13.432 30 30v270c0 27.614-22.386 50-50 50z" fill="#fe9738"/><path d="m387.504 488.75c27.914 0 55.213-10.521 75.891-29.275 43.549-39.497 43.111-106.511 39.846-160.523-1.279-21.157-3.337-42.403-9.042-62.816-7.221-25.836-20.834-49.289-41.569-66.579-23.781-19.83-54.165-30.806-85.125-30.806-16.569 0-30 13.432-30 30v270c-.002 27.613 22.384 49.999 49.999 49.999z" fill="#fe9738"/><path d="m503.241 298.952c-1.279-21.157-3.337-42.403-9.042-62.816-7.221-25.836-20.834-49.289-41.569-66.579-23.781-19.83-54.165-30.806-85.125-30.806-3.368 0-6.603.563-9.625 1.587 23.691 3.698 46.225 13.771 64.75 29.219 20.735 17.29 34.348 40.743 41.569 66.579 5.705 20.413 7.763 41.659 9.042 62.816 3.265 54.012 3.702 121.026-39.846 160.523-16.198 14.691-36.458 24.328-57.894 27.815 3.846.948 7.864 1.46 12.003 1.46 27.914 0 55.213-10.521 75.891-29.275 43.548-39.498 43.11-106.511 39.846-160.523z" fill="#fe860a"/><path d="m282.606 135.06h-50.064c4.792-4.719 32.168-32.657 20.906-69.795-5.237-17.269-16.979-30.431-28.626-39.826-7.368-5.943-3.271-17.818 6.195-17.834 20.152-.035 40.304-.069 60.455-.104 8.451-.015 16.005 5.276 18.858 13.231 4.162 11.605 7.356 26.554 5.835 43.829-2.989 33.932-22.574 58.656-33.559 70.499z" fill="#9be69d"/><path d="m310.33 20.731c-2.853-7.955-10.407-13.246-18.858-13.231-9.56.016-19.119.033-28.679.049 7.908.507 14.834 5.645 17.537 13.182 4.162 11.605 7.356 26.554 5.834 43.829-2.989 33.933-22.573 58.657-33.559 70.5h30c10.986-11.842 30.57-36.566 33.559-70.5 1.522-17.274-1.672-32.224-5.834-43.829z" fill="#6fd7a3"/><path d="m302.525 504.5c27.914 0 55.213-11.468 75.891-31.91 43.549-43.052 43.111-116.097 39.846-174.97-1.279-23.061-3.337-46.219-9.042-68.47-7.221-28.161-20.834-53.725-41.569-72.572-23.782-21.615-54.166-33.578-85.126-33.578-16.569 0-30 14.64-30 32.7v294.3c0 30.1 22.386 54.5 50 54.5z" fill="#fe9738"/><path d="m418.262 297.62c-1.279-23.061-3.337-46.219-9.042-68.47-7.221-28.161-20.834-53.725-41.569-72.572-23.782-21.615-54.166-33.578-85.126-33.578-3.368 0-6.603.614-9.625 1.73 23.691 4.031 46.224 15.01 64.75 31.849 20.735 18.846 34.348 44.41 41.569 72.572 5.705 22.25 7.763 45.409 9.042 68.47 3.265 58.873 3.702 131.918-39.846 174.97-16.198 16.013-36.458 26.517-57.894 30.318 3.846 1.033 7.864 1.592 12.003 1.592 27.914 0 55.212-11.468 75.891-31.91 43.549-43.053 43.112-116.098 39.847-174.971z" fill="#fe860a"/><path d="m72.874 229.15c-5.705 22.25-7.763 45.409-9.042 68.47-3.265 58.873-3.702 131.918 39.846 174.97 6.282 6.211 13.178 11.587 20.514 16.071 1.347.056 2.697.089 4.05.089 27.615 0 50-22.386 50-50v-270c0-16.568-13.432-30-30-30-3.202 0-6.4.135-9.589.373-8.598 4.817-16.73 10.658-24.209 17.456-20.736 18.846-34.349 44.41-41.57 72.571z" fill="#fe860a"/><path d="m209.568 504.5c-27.914 0-55.213-11.468-75.891-31.91-43.549-43.052-43.111-116.097-39.846-174.97 1.279-23.061 3.337-46.219 9.042-68.47 7.221-28.161 20.834-53.725 41.569-72.572 23.782-21.615 54.166-33.578 85.126-33.578 16.569 0 30 14.64 30 32.7v294.3c0 30.1-22.386 54.5-50 54.5z" fill="#fe9738"/><path d="m259.568 450v-294.3c0-5.325-1.175-10.349-3.247-14.792-8.931-11.153-18.867-17.521-29.348-17.877-1.342.029-2.682.084-4.021.158-38.052 4.324-68.406 87.98-68.406 190.561 0 98.879 28.201 180.182 64.315 189.795 23.172-4.75 40.707-26.909 40.707-53.545z" fill="#fe860a"/><ellipse cx="256.047" cy="313.75" fill="#fe9738" rx="71.5" ry="190.75"/><path d="m256.047 123c-5.146 0-10.163 1.463-15 4.218 32.286 18.39 56.5 94.911 56.5 186.532s-24.214 168.142-56.5 186.532c4.837 2.755 9.854 4.218 15 4.218 39.488 0 71.5-85.402 71.5-190.75s-32.012-190.75-71.5-190.75z" fill="#fe860a"/></g><path d="m510.724 298.498c-1.247-20.621-3.236-42.692-9.303-64.375-8.019-28.698-23.229-53.015-43.989-70.322-25.172-20.99-57.107-32.55-89.924-32.55-5.688 0-11.228 1.286-16.276 3.728-14.184-8.621-29.674-14.521-45.741-17.414 6.421-10.262 11.232-20.936 14.344-31.86 1.135-3.984-1.174-8.133-5.157-9.269-3.983-1.133-8.133 1.174-9.269 5.157-3.336 11.705-8.941 23.144-16.668 34.058-2.067-.1-4.138-.15-6.214-.15-4.514 0-9.023.896-13.237 2.59-4.314-1.706-8.738-2.59-13.245-2.59-.098 0-.195.008-.293.009 6.492-13.264 11.201-31.546 4.871-52.428-4.91-16.176-15.374-30.806-31.092-43.474-1.25-1.01-1.059-2.233-.833-2.872.262-.745.88-1.633 2.33-1.636l60.447-.1h.015c5.272 0 10.005 3.319 11.776 8.259 3.062 8.549 4.93 17.291 5.551 25.981.294 4.132 3.896 7.243 8.015 6.947 4.132-.295 7.242-3.883 6.946-8.015-.718-10.053-2.867-20.136-6.392-29.973-3.902-10.889-14.306-18.199-25.897-18.199h-.031l-60.455.1c-7.504.016-13.961 4.588-16.45 11.649-2.506 7.108-.327 14.771 5.56 19.53 13.338 10.751 22.14 22.917 26.158 36.156 6.055 19.977-.489 37.133-8.282 49.094-2.757-.677-5.588-1.03-8.42-1.03-23.574 0-46.678 6.466-67.153 18.541-4.473-1.831-9.297-2.791-14.177-2.791-22.619 0-45.273 5.672-65.51 16.402-25.324 13.412-45.285 34.697-59.33 63.265-11.581 23.555-18.989 51.635-22.018 83.464-4.911 51.683 3.578 102.059 23.292 138.209 21.079 38.672 61.731 63.661 103.564 63.661 6.492 0 12.808-1.08 18.84-3.179 18.704 12.315 40.245 18.929 62.491 18.929 8.954 0 17.727-2.243 25.661-6.51 6.652 4.29 13.632 6.51 20.818 6.51 7.187 0 14.166-2.221 20.819-6.511 7.934 4.268 16.708 6.511 25.663 6.511 22.764 0 44.794-6.924 63.797-19.799 6.724 2.675 13.826 4.049 21.183 4.049 29.991 0 58.732-11.089 80.929-31.225 43.629-39.572 46.107-103.423 42.286-166.527zm-382.486 182.752c-17.984 0-36.105-5.405-52.405-15.629-15.977-10.023-29.113-23.927-37.989-40.211-18.317-33.59-26.164-80.832-21.529-129.609 7.952-83.558 44.323-119.475 73.438-134.894 17.08-9.057 36.071-14.074 55.129-14.604-1.861 1.525-3.693 3.097-5.486 4.727-20.667 18.783-35.806 45.152-43.78 76.256-6.049 23.571-8.032 47.534-9.273 69.92-3.795 68.513-1.325 137.825 42.065 180.718 1.096 1.084 2.213 2.136 3.341 3.172-1.164.094-2.332.154-3.511.154zm81.33 15.75c-26.413 0-51.727-11.07-70.617-29.744-39.167-38.718-41.234-104.212-37.634-169.22 1.199-21.621 3.099-44.705 8.826-67.023 7.245-28.258 20.849-52.077 39.339-68.882 20.757-18.865 47.596-30.408 75.43-31.528-9.98 10.294-18.964 25.673-26.447 45.635-13.812 36.849-21.419 85.686-21.419 137.513s7.606 100.664 21.419 137.513c6.954 18.55 15.202 33.145 24.343 43.379-4.25 1.54-8.715 2.357-13.24 2.357zm46.478 0c-21.307 0-34.232-26.183-43.535-51.002-13.197-35.207-20.465-82.174-20.465-132.248s7.268-97.041 20.465-132.248c12.149-32.413 28.018-51.002 43.535-51.002s31.386 18.589 43.535 51.002c13.197 35.207 20.465 82.174 20.465 132.248s-7.268 97.041-20.465 132.248c-9.968 26.592-19.984 51.002-43.535 51.002zm202.313-43.084c-19.149 17.372-44.974 27.334-70.851 27.334-2.284 0-4.532-.188-6.743-.538.986-.913 1.964-1.838 2.925-2.788 17.101-16.905 29.239-39.767 36.078-67.952.978-4.025-1.494-8.08-5.52-9.057s-8.08 1.495-9.057 5.52c-6.261 25.797-16.743 45.692-32.047 60.82-19.264 19.045-44.018 29.745-70.616 29.745-4.526 0-8.992-.817-13.243-2.359 9.141-10.234 17.389-24.829 24.343-43.378 13.812-36.849 21.419-85.686 21.419-137.513s-7.606-100.664-21.419-137.513c-7.483-19.962-16.466-35.341-26.447-45.635 27.923 1.124 54.536 12.556 75.424 31.53 18.496 16.801 32.103 40.62 39.349 68.882 5.734 22.343 7.626 45.415 8.816 67.022 1.251 22.525 2.211 49.01-.151 74.655-.38 4.125 2.656 7.776 6.781 8.156.233.021.466.032.696.032 3.832 0 7.102-2.922 7.46-6.812 2.451-26.617 1.472-53.791.19-76.86-1.232-22.369-3.207-46.322-9.264-69.92-7.976-31.11-23.119-57.479-43.79-76.256-1.809-1.645-3.657-3.23-5.535-4.768.117-.002.233-.013.35-.013 29.312 0 57.836 10.324 80.317 29.071 18.415 15.352 31.952 37.081 39.149 62.84 5.688 20.333 7.58 41.45 8.776 61.243 3.598 59.374 1.556 119.187-37.39 154.512z"/></g></svg>