<svg id="Capa_1" enable-background="new 0 0 512 512" height="512" viewBox="0 0 512 512" width="512" xmlns="http://www.w3.org/2000/svg"><g><g><g><ellipse cx="327.154" cy="256" fill="#9be69d" rx="177.346" ry="248.5"/><path d="m327.153 7.5c-5.053 0-10.054.313-15 .893 90.924 10.673 162.346 117.445 162.346 247.607s-71.422 236.934-162.346 247.607c4.946.581 9.947.893 15 .893 97.945 0 177.346-111.257 177.346-248.5s-79.4-248.5-177.346-248.5z" fill="#6fd7a3"/><ellipse cx="327.154" cy="256" fill="#bbf49b" rx="119.129" ry="248.5"/><g fill="#e5fbd8"><path d="m388.6 43.074c-17.941-22.577-38.966-35.574-61.447-35.574-4.1 0-8.152.433-12.145 1.276 26.725 3.745 51.699 15.801 73.592 34.298z"/><path d="m388.6 468.926c-21.893 18.498-46.867 30.553-73.592 34.298 3.994.844 8.045 1.276 12.145 1.276 22.482 0 43.506-12.997 61.447-35.574z"/></g><ellipse cx="327.154" cy="256" fill="#9be69d" rx="42.608" ry="248.5"/></g><g><path d="m380.953 312.5c5.755 0 10.3 4.845 9.987 10.592-5.497 101.112-89.228 181.408-191.713 181.408s-186.215-80.296-191.712-181.408c-.312-5.746 4.232-10.592 9.987-10.592h28.911l147.142 15 158.488-15z" fill="#9be69d"/><path d="m380.953 312.5h-30c5.755 0 10.3 4.845 9.987 10.592-5.227 96.132-81.171 173.44-176.713 180.824 4.95.383 9.951.585 15 .585 102.485 0 186.215-80.296 191.713-181.408.313-5.748-4.232-10.593-9.987-10.593z" fill="#6fd7a3"/><path d="m352.042 312.5c0 84.397-68.418 152.815-152.815 152.815s-152.814-68.418-152.814-152.815z" fill="#ff646f"/><path d="m322.042 312.5c0 79.335-60.459 144.544-137.815 152.081 4.936.481 9.938.734 15 .734 84.397 0 152.815-68.418 152.815-152.815z" fill="#fb4455"/></g></g><path d="m229.228 357.272c4.142 0 7.5-3.358 7.5-7.5v-11.73c0-4.142-3.358-7.5-7.5-7.5s-7.5 3.358-7.5 7.5v11.73c0 4.143 3.357 7.5 7.5 7.5zm30 45c4.142 0 7.5-3.358 7.5-7.5v-11.73c0-4.142-3.358-7.5-7.5-7.5s-7.5 3.358-7.5 7.5v11.73c0 4.143 3.357 7.5 7.5 7.5zm30-45c4.142 0 7.5-3.358 7.5-7.5v-11.73c0-4.142-3.358-7.5-7.5-7.5s-7.5 3.358-7.5 7.5v11.73c0 4.143 3.357 7.5 7.5 7.5zm-180 0c4.142 0 7.5-3.358 7.5-7.5v-11.73c0-4.142-3.358-7.5-7.5-7.5s-7.5 3.358-7.5 7.5v11.73c0 4.143 3.357 7.5 7.5 7.5zm120 90c4.142 0 7.5-3.358 7.5-7.5v-11.73c0-4.142-3.358-7.5-7.5-7.5s-7.5 3.358-7.5 7.5v11.73c0 4.143 3.357 7.5 7.5 7.5zm-90-45c4.142 0 7.5-3.358 7.5-7.5v-11.73c0-4.142-3.358-7.5-7.5-7.5s-7.5 3.358-7.5 7.5v11.73c0 4.143 3.357 7.5 7.5 7.5zm319.433-326.344c-34.944-48.963-81.649-75.928-131.512-75.928-49.858 0-96.56 26.965-131.502 75.928-34.395 48.197-53.337 112.148-53.337 180.072 0 16.497 1.145 32.936 3.384 49h-128.192c-9.933-.053-18.013 8.619-17.476 18.499 5.747 105.702 93.246 188.501 199.202 188.501 24.661 0 48.321-4.49 70.184-12.706 18.557 8.428 37.963 12.706 57.737 12.706 49.863 0 96.568-26.965 131.511-75.928 34.396-48.196 53.339-112.147 53.339-180.072s-18.942-131.876-53.338-180.072zm-131.513-60.928c.12.009 12.074 3.651 22.903 67.493 7.873 46.419 12.209 108.038 12.209 173.507 0 16.578-.281 33.026-.835 49h-68.539c-.554-15.981-.836-32.428-.836-49 0-65.427 4.331-127.02 12.196-173.433 10.818-63.852 22.785-67.557 22.902-67.567zm-21.581 4.637c-.838 1.83-1.486 3.427-1.951 4.574-5.275 13.015-9.979 31.454-13.982 54.806-8.115 47.34-12.584 110.193-12.584 176.982 0 16.566.279 33.01.828 49h-60.008c-1.56-16.051-2.35-32.501-2.35-49 0-65.275 12.13-126.528 34.157-172.473 15.807-32.973 35.14-54.886 55.89-63.889zm-39.718 11.613c-10.865 12.027-20.867 27.371-29.698 45.793-22.978 47.928-35.631 111.482-35.631 178.957 0 16.486.774 32.928 2.288 49h-41.971c-2.338-16.033-3.527-32.484-3.527-49 0-102.231 45.095-189.788 108.539-224.75zm-66.621 465.75c-97.989 0-178.909-76.568-184.224-174.315-.09-1.663.925-2.633 2.499-2.685h21.607c1.215 26.031 8.717 51.403 21.919 73.8 2.124 3.603 6.752 4.726 10.27 2.652 3.568-2.104 4.756-6.701 2.652-10.27-11.845-20.091-18.623-42.83-19.826-66.182h156.965.01.009 133.242c-3.916 76.655-67.512 137.815-145.123 137.815-40.144 0-77.509-16.011-105.213-45.082-2.858-2.999-7.605-3.112-10.604-.256-2.999 2.858-3.113 7.605-.256 10.604 30.563 32.072 71.785 49.734 116.073 49.734 85.884 0 156.203-67.886 160.134-152.815h21.592c1.601.062 2.589 1.016 2.499 2.685-5.326 97.924-84.405 174.315-184.225 174.315zm96.644-9.935c2.054-1.139 4.083-2.317 6.092-3.526 1.066 2.953 2.246 5.917 3.564 8.758-3.246-1.423-6.466-3.169-9.656-5.232zm31.279 9.935c-.057-.004-5.339-1.341-12.238-21.933 11.606-8.266 22.29-17.751 31.873-28.267-8.483 40.36-17.338 50.038-19.635 50.2zm61.304-16.25c10.865-12.027 20.867-27.371 29.697-45.793 22.975-47.925 35.627-111.48 35.627-178.957 0-24.024-1.618-47.793-4.809-70.647-.572-4.103-4.364-6.968-8.465-6.391-4.103.573-6.964 4.362-6.391 8.465 3.095 22.169 4.665 45.24 4.665 68.573 0 65.278-12.129 126.53-34.153 172.473-15.822 33.005-35.176 54.929-55.95 63.916 1.217-2.601 2.399-5.459 3.546-8.589 5.527-15.075 10.35-36.135 14.344-62.587 18.444-28.332 29.904-61.691 31.863-97.714.538-9.894-7.623-18.547-17.476-18.499h-4.521c.548-15.985.827-32.428.827-49 0-66.792-4.47-129.646-12.585-176.982-4.003-23.353-8.709-41.792-13.985-54.807-.461-1.136-1.101-2.715-1.929-4.525 34.009 14.864 63.822 64.113 79.261 133.78.896 4.043 4.898 6.596 8.945 5.7 4.044-.896 6.596-4.901 5.7-8.945-9.639-43.495-25.016-80.477-44.469-106.947-3.189-4.34-6.468-8.363-9.825-12.069 63.49 34.932 108.627 122.52 108.627 224.795 0 102.231-45.097 189.787-108.544 224.75zm-219.227-33.478c4.142 0 7.5-3.358 7.5-7.5v-11.73c0-4.142-3.358-7.5-7.5-7.5s-7.5 3.358-7.5 7.5v11.73c0 4.143 3.357 7.5 7.5 7.5zm30-45c4.142 0 7.5-3.358 7.5-7.5v-11.73c0-4.142-3.358-7.5-7.5-7.5s-7.5 3.358-7.5 7.5v11.73c0 4.143 3.357 7.5 7.5 7.5zm-30-45c4.142 0 7.5-3.358 7.5-7.5v-11.73c0-4.142-3.358-7.5-7.5-7.5s-7.5 3.358-7.5 7.5v11.73c0 4.143 3.357 7.5 7.5 7.5z"/></g></svg>